<svg width="720" height="208" viewBox="0 0 720 208" fill="none" xmlns="http://www.w3.org/2000/svg">
<g clip-path="url(#clip0_165_8524)">
<path d="M679.311 42.4506C717.414 36.5246 743.499 0.831917 737.573 -37.2714C731.647 -75.3746 695.955 -101.46 657.851 -95.5336C619.748 -89.6076 593.663 -53.9149 599.589 -15.8116C605.515 22.2916 641.208 48.3765 679.311 42.4506Z" fill="white" stroke="#B28A35" stroke-width="2" stroke-miterlimit="10" stroke-linecap="round"/>
<path d="M719.957 -4.70509C731.998 -33.1008 718.74 -65.8818 690.345 -77.9234C661.949 -89.965 629.168 -76.7073 617.126 -48.3115C605.085 -19.9158 618.343 12.8651 646.738 24.9067C675.134 36.9483 707.915 23.6907 719.957 -4.70509Z" fill="white" stroke="#B28A35" stroke-width="2" stroke-miterlimit="10" stroke-linecap="round"/>
<path d="M668.594 15.403C691.728 15.403 710.483 -3.35155 710.483 -26.4865C710.483 -49.6214 691.728 -68.376 668.594 -68.376C645.459 -68.376 626.704 -49.6214 626.704 -26.4865C626.704 -3.35155 645.459 15.403 668.594 15.403Z" fill="white" stroke="#B28A35" stroke-width="2" stroke-miterlimit="10" stroke-linecap="round"/>
<path d="M668.593 1.44648C684.02 1.44648 696.525 -11.0591 696.525 -26.4855C696.525 -41.9119 684.02 -54.4175 668.593 -54.4175C653.167 -54.4175 640.661 -41.9119 640.661 -26.4855C640.661 -11.0591 653.167 1.44648 668.593 1.44648Z" fill="white" stroke="#B28A35" stroke-width="2" stroke-miterlimit="10" stroke-linecap="round"/>
<path d="M442.111 -21.4238C444.901 -59.8841 415.986 -93.3245 377.525 -96.1151C339.065 -98.9057 305.625 -69.9897 302.834 -31.5295C300.043 6.93072 328.959 40.3711 367.42 43.1617C405.88 45.9523 439.32 17.0364 442.111 -21.4238Z" fill="white" stroke="#B28A35" stroke-width="2" stroke-miterlimit="10" stroke-linecap="round"/>
<path d="M411.937 13.0005C433.747 -8.80906 433.747 -44.1694 411.937 -65.979C390.128 -87.7886 354.767 -87.7886 332.958 -65.979C311.148 -44.1694 311.148 -8.80908 332.958 13.0005C354.767 34.8101 390.128 34.8102 411.937 13.0005Z" fill="white" stroke="#B28A35" stroke-width="2" stroke-miterlimit="10" stroke-linecap="round"/>
<path d="M372.448 15.405C395.583 15.405 414.338 -3.3496 414.338 -26.4845C414.338 -49.6195 395.583 -68.374 372.448 -68.374C349.313 -68.374 330.559 -49.6195 330.559 -26.4845C330.559 -3.3496 349.313 15.405 372.448 15.405Z" fill="white" stroke="#B28A35" stroke-width="2" stroke-miterlimit="10" stroke-linecap="round"/>
<path d="M372.449 1.44648C387.875 1.44648 400.381 -11.0591 400.381 -26.4855C400.381 -41.9119 387.875 -54.4175 372.449 -54.4175C357.022 -54.4175 344.517 -41.9119 344.517 -26.4855C344.517 -11.0591 357.022 1.44648 372.449 1.44648Z" fill="white" stroke="#B28A35" stroke-width="2" stroke-miterlimit="10" stroke-linecap="round"/>
<path d="M531.251 42.4643C569.354 36.5383 595.439 0.845589 589.513 -37.2577C583.587 -75.361 547.894 -101.446 509.791 -95.5199C471.688 -89.594 445.603 -53.9012 451.529 -15.798C457.455 22.3053 493.147 48.3902 531.251 42.4643Z" fill="white" stroke="#B28A35" stroke-width="2" stroke-miterlimit="10" stroke-linecap="round"/>
<path d="M533.179 27.9515C563.221 20.966 581.912 -9.05066 574.926 -39.0927C567.941 -69.1347 537.924 -87.8257 507.882 -80.8402C477.84 -73.8547 459.149 -43.838 466.135 -13.796C473.12 16.2459 503.137 34.937 533.179 27.9515Z" fill="white" stroke="#B28A35" stroke-width="2" stroke-miterlimit="10" stroke-linecap="round"/>
<path d="M520.52 15.405C543.655 15.405 562.41 -3.3496 562.41 -26.4845C562.41 -49.6195 543.655 -68.374 520.52 -68.374C497.385 -68.374 478.631 -49.6195 478.631 -26.4845C478.631 -3.3496 497.385 15.405 520.52 15.405Z" fill="white" stroke="#B28A35" stroke-width="2" stroke-miterlimit="10" stroke-linecap="round"/>
<path d="M520.521 1.44648C535.947 1.44648 548.453 -11.0591 548.453 -26.4855C548.453 -41.9119 535.947 -54.4175 520.521 -54.4175C505.094 -54.4175 492.589 -41.9119 492.589 -26.4855C492.589 -11.0591 505.094 1.44648 520.521 1.44648Z" fill="white" stroke="#B28A35" stroke-width="2" stroke-miterlimit="10" stroke-linecap="round"/>
<path d="M236.034 42.3554C274.052 35.9047 299.642 -0.144287 293.191 -38.1622C286.74 -76.1802 250.691 -101.77 212.674 -95.3197C174.656 -88.869 149.065 -52.82 155.516 -14.8021C161.967 23.2159 198.016 48.8062 236.034 42.3554Z" fill="white" stroke="#B28A35" stroke-width="2" stroke-miterlimit="10" stroke-linecap="round"/>
<path d="M237.383 27.8087C267.377 20.6189 285.863 -9.52433 278.673 -39.5181C271.484 -69.5118 241.34 -87.9981 211.347 -80.8083C181.353 -73.6185 162.867 -43.4753 170.056 -13.4815C177.246 16.5122 207.389 34.9985 237.383 27.8087Z" fill="white" stroke="#B28A35" stroke-width="2" stroke-miterlimit="10" stroke-linecap="round"/>
<path d="M234.093 14.2374C256.595 8.86413 270.481 -13.7335 265.108 -36.2358C259.734 -58.738 237.137 -72.6239 214.635 -67.2506C192.132 -61.8774 178.247 -39.2798 183.62 -16.7775C188.993 5.72481 211.591 19.6106 234.093 14.2374Z" fill="white" stroke="#B28A35" stroke-width="2" stroke-miterlimit="10" stroke-linecap="round"/>
<path d="M229.295 1.01555C244.479 -1.71093 254.577 -16.2299 251.851 -31.4134C249.124 -46.597 234.606 -56.6954 219.422 -53.969C204.238 -51.2425 194.14 -36.7235 196.866 -21.54C199.593 -6.35642 214.112 3.74203 229.295 1.01555Z" fill="white" stroke="#B28A35" stroke-width="2" stroke-miterlimit="10" stroke-linecap="round"/>
<path d="M87.0211 42.5038C125.124 36.5779 151.209 0.885138 145.283 -37.2181C139.357 -75.3214 103.665 -101.406 65.5614 -95.4804C27.4581 -89.5544 1.37326 -53.8617 7.2992 -15.7584C13.2251 22.3449 48.9179 48.4297 87.0211 42.5038Z" fill="white" stroke="#B28A35" stroke-width="2" stroke-miterlimit="10" stroke-linecap="round"/>
<path d="M127.685 -4.68166C139.727 -33.0774 126.469 -65.8583 98.0732 -77.8999C69.6775 -89.9415 36.8966 -76.6838 24.855 -48.2881C12.8134 -19.8923 26.0711 12.8886 54.4668 24.9302C82.8626 36.9718 115.643 23.7141 127.685 -4.68166Z" fill="white" stroke="#B28A35" stroke-width="2" stroke-miterlimit="10" stroke-linecap="round"/>
<path d="M76.2889 15.4035C99.4238 15.4035 118.178 -3.35107 118.178 -26.486C118.178 -49.6209 99.4238 -68.3755 76.2889 -68.3755C53.154 -68.3755 34.3994 -49.6209 34.3994 -26.486C34.3994 -3.35107 53.154 15.4035 76.2889 15.4035Z" fill="white" stroke="#B28A35" stroke-width="2" stroke-miterlimit="10" stroke-linecap="round"/>
<path d="M76.2884 1.44648C91.7148 1.44648 104.22 -11.0591 104.22 -26.4855C104.22 -41.9119 91.7148 -54.4175 76.2884 -54.4175C60.862 -54.4175 48.3564 -41.9119 48.3564 -26.4855C48.3564 -11.0591 60.862 1.44648 76.2884 1.44648Z" fill="white" stroke="#B28A35" stroke-width="2" stroke-miterlimit="10" stroke-linecap="round"/>
<path d="M594.65 83.5296C633.211 83.5296 664.471 52.2695 664.471 13.7082C664.471 -24.8531 633.211 -56.1133 594.65 -56.1133C556.088 -56.1133 524.828 -24.8531 524.828 13.7082C524.828 52.2695 556.088 83.5296 594.65 83.5296Z" fill="white" stroke="#B28A35" stroke-width="2" stroke-miterlimit="10" stroke-linecap="round"/>
<path d="M634.144 53.1997C655.954 31.3901 655.954 -3.97023 634.144 -25.7798C612.335 -47.5895 576.974 -47.5895 555.165 -25.7799C533.355 -3.97025 533.355 31.3901 555.165 53.1998C576.974 75.0094 612.335 75.0093 634.144 53.1997Z" fill="white" stroke="#B28A35" stroke-width="2" stroke-miterlimit="10" stroke-linecap="round"/>
<path d="M633.476 29.5218C642.198 8.0942 631.899 -16.3473 610.471 -25.0699C589.044 -33.7926 564.602 -23.4932 555.88 -2.06564C547.157 19.3619 557.456 43.8035 578.884 52.5261C600.312 61.2488 624.753 50.9493 633.476 29.5218Z" fill="white" stroke="#B28A35" stroke-width="2" stroke-miterlimit="10" stroke-linecap="round"/>
<path d="M599.147 41.2194C614.372 38.7344 624.7 24.3776 622.215 9.1527C619.73 -6.07223 605.373 -16.4 590.148 -13.915C574.923 -11.43 564.596 2.92673 567.081 18.1517C569.566 33.3766 583.922 43.7044 599.147 41.2194Z" fill="white" stroke="#B28A35" stroke-width="2" stroke-miterlimit="10" stroke-linecap="round"/>
<path d="M604.524 23.5794C609.975 18.1286 609.975 9.29127 604.524 3.84053C599.074 -1.61022 590.236 -1.61025 584.785 3.8405C579.335 9.29124 579.335 18.1287 584.785 23.5794C590.236 29.0302 599.074 29.0301 604.524 23.5794Z" fill="white" stroke="#B28A35" stroke-width="2" stroke-miterlimit="10" stroke-linecap="round"/>
<path d="M298.49 83.5296C337.052 83.5296 368.312 52.2695 368.312 13.7082C368.312 -24.8531 337.052 -56.1133 298.49 -56.1133C259.929 -56.1133 228.669 -24.8531 228.669 13.7082C228.669 52.2695 259.929 83.5296 298.49 83.5296Z" fill="white" stroke="#B28A35" stroke-width="2" stroke-miterlimit="10" stroke-linecap="round"/>
<path d="M312.322 67.8215C342.204 60.1823 360.236 29.765 352.597 -0.117427C344.958 -29.9999 314.54 -48.0316 284.658 -40.3925C254.775 -32.7533 236.744 -2.33602 244.383 27.5464C252.022 57.4289 282.439 75.4606 312.322 67.8215Z" fill="white" stroke="#B28A35" stroke-width="2" stroke-miterlimit="10" stroke-linecap="round"/>
<path d="M307.01 54.6906C329.661 49.9833 344.207 27.8051 339.5 5.15413C334.793 -17.4968 312.614 -32.0431 289.963 -27.3358C267.312 -22.6285 252.766 -0.450255 257.473 22.2007C262.181 44.8517 284.359 59.3979 307.01 54.6906Z" fill="white" stroke="#B28A35" stroke-width="2" stroke-miterlimit="10" stroke-linecap="round"/>
<path d="M304.161 41.0576C319.266 37.9293 328.976 23.1476 325.848 8.04169C322.72 -7.0642 307.938 -16.774 292.832 -13.6457C277.726 -10.5174 268.016 4.2643 271.145 19.3702C274.273 34.4761 289.055 44.1858 304.161 41.0576Z" fill="white" stroke="#B28A35" stroke-width="2" stroke-miterlimit="10" stroke-linecap="round"/>
<path d="M312.465 13.709C312.465 5.9925 306.207 -0.248535 298.507 -0.248535C290.808 -0.248535 284.55 6.00945 284.55 13.709C284.55 21.4085 290.808 27.6665 298.507 27.6665C306.207 27.6665 312.465 21.4085 312.465 13.709Z" fill="white" stroke="#B28A35" stroke-width="2" stroke-miterlimit="10" stroke-linecap="round"/>
<path d="M446.578 83.5301C485.14 83.5301 516.4 52.27 516.4 13.7087C516.4 -24.8527 485.14 -56.1128 446.578 -56.1128C408.017 -56.1128 376.757 -24.8527 376.757 13.7087C376.757 52.27 408.017 83.5301 446.578 83.5301Z" fill="white" stroke="#B28A35" stroke-width="2" stroke-miterlimit="10" stroke-linecap="round"/>
<path d="M475.335 61.607C501.782 45.7353 510.354 11.4298 494.482 -15.0166C478.611 -41.4629 444.305 -50.0353 417.859 -34.1635C391.413 -18.2918 382.84 16.0137 398.712 42.46C414.584 68.9063 448.889 77.4787 475.335 61.607Z" fill="white" stroke="#B28A35" stroke-width="2" stroke-miterlimit="10" stroke-linecap="round"/>
<path d="M470.882 47.8541C489.732 34.4426 494.142 8.28872 480.73 -10.5622C467.319 -29.4131 441.165 -33.8226 422.314 -20.4111C403.463 -6.99959 399.054 19.1542 412.465 38.0051C425.877 56.8561 452.031 61.2656 470.882 47.8541Z" fill="white" stroke="#B28A35" stroke-width="2" stroke-miterlimit="10" stroke-linecap="round"/>
<path d="M462.686 36.5215C475.288 27.6249 478.293 10.1963 469.396 -2.40617C460.499 -15.0087 443.071 -18.0128 430.468 -9.11616C417.866 -0.219479 414.862 17.209 423.758 29.8115C432.655 42.414 450.083 45.4182 462.686 36.5215Z" fill="white" stroke="#B28A35" stroke-width="2" stroke-miterlimit="10" stroke-linecap="round"/>
<path d="M454.591 25.1364C460.905 20.7139 462.438 12.0105 458.015 5.69682C453.593 -0.616854 444.889 -2.14993 438.575 2.2726C432.262 6.69513 430.729 15.3985 435.151 21.7122C439.574 28.0259 448.277 29.559 454.591 25.1364Z" fill="white" stroke="#B28A35" stroke-width="2" stroke-miterlimit="10" stroke-linecap="round"/>
<path d="M150.418 83.513C188.979 83.513 220.24 52.2529 220.24 13.6916C220.24 -24.8698 188.979 -56.1299 150.418 -56.1299C111.857 -56.1299 80.5967 -24.8698 80.5967 13.6916C80.5967 52.2529 111.857 83.513 150.418 83.513Z" fill="white" stroke="#B28A35" stroke-width="2" stroke-miterlimit="10" stroke-linecap="round"/>
<path d="M150.418 69.5392C181.262 69.5392 206.265 44.5357 206.265 13.6922C206.265 -17.1512 181.262 -42.1548 150.418 -42.1548C119.575 -42.1548 94.5713 -17.1512 94.5713 13.6922C94.5713 44.5357 119.575 69.5392 150.418 69.5392Z" fill="white" stroke="#B28A35" stroke-width="2" stroke-miterlimit="10" stroke-linecap="round"/>
<path d="M150.419 55.5807C173.554 55.5807 192.308 36.8262 192.308 13.6912C192.308 -9.44368 173.554 -28.1982 150.419 -28.1982C127.284 -28.1982 108.529 -9.44368 108.529 13.6912C108.529 36.8262 127.284 55.5807 150.419 55.5807Z" fill="white" stroke="#B28A35" stroke-width="2" stroke-miterlimit="10" stroke-linecap="round"/>
<path d="M150.418 41.6237C165.845 41.6237 178.35 29.1182 178.35 13.6917C178.35 -1.73466 165.845 -14.2402 150.418 -14.2402C134.992 -14.2402 122.486 -1.73466 122.486 13.6917C122.486 29.1182 134.992 41.6237 150.418 41.6237Z" fill="white" stroke="#B28A35" stroke-width="2" stroke-miterlimit="10" stroke-linecap="round"/>
<path d="M150.418 27.6499C158.127 27.6499 164.376 21.4009 164.376 13.6924C164.376 5.98385 158.127 -0.265137 150.418 -0.265137C142.71 -0.265137 136.461 5.98385 136.461 13.6924C136.461 21.4009 142.71 27.6499 150.418 27.6499Z" fill="white" stroke="#B28A35" stroke-width="2" stroke-miterlimit="10" stroke-linecap="round"/>
<path d="M2.34588 83.5296C40.9072 83.5296 72.1673 52.2695 72.1673 13.7082C72.1673 -24.8531 40.9072 -56.1133 2.34588 -56.1133C-36.2155 -56.1133 -67.4756 -24.8531 -67.4756 13.7082C-67.4756 52.2695 -36.2155 83.5296 2.34588 83.5296Z" fill="white" stroke="#B28A35" stroke-width="2" stroke-miterlimit="10" stroke-linecap="round"/>
<path d="M11.3819 68.8194C41.8191 63.8296 62.4483 35.1105 57.4586 4.67329C52.4689 -25.7639 23.7497 -46.3931 -6.68747 -41.4034C-37.1246 -36.4136 -57.7539 -7.69445 -52.7641 22.7427C-47.7744 53.1799 -19.0552 73.8091 11.3819 68.8194Z" fill="white" stroke="#B28A35" stroke-width="2" stroke-miterlimit="10" stroke-linecap="round"/>
<path d="M41.1408 29.4969C49.8634 8.06932 39.564 -16.3722 18.1364 -25.0949C-3.29113 -33.8175 -27.7327 -23.5181 -36.4553 -2.09052C-45.1779 19.337 -34.8785 43.7786 -13.451 52.5012C7.9766 61.2239 32.4182 50.9245 41.1408 29.4969Z" fill="white" stroke="#B28A35" stroke-width="2" stroke-miterlimit="10" stroke-linecap="round"/>
<path d="M6.86205 41.2692C22.087 38.7842 32.4148 24.4275 29.9298 9.20251C27.4448 -6.02243 13.088 -16.3502 -2.13691 -13.8652C-17.3619 -11.3802 -27.6896 2.97653 -25.2046 18.2015C-22.7196 33.4264 -8.36289 43.7542 6.86205 41.2692Z" fill="white" stroke="#B28A35" stroke-width="2" stroke-miterlimit="10" stroke-linecap="round"/>
<path d="M15.0783 19.4251C18.2407 12.3951 15.1054 4.13259 8.07536 0.97024C1.04537 -2.19211 -7.21717 0.943228 -10.3795 7.97322C-13.5419 15.0032 -10.4065 23.2657 -3.37654 26.4281C3.65346 29.5905 11.916 26.4551 15.0783 19.4251Z" fill="white" stroke="#B28A35" stroke-width="2" stroke-miterlimit="10" stroke-linecap="round"/>
<path d="M742.722 83.513C781.283 83.513 812.543 52.2529 812.543 13.6916C812.543 -24.8698 781.283 -56.1299 742.722 -56.1299C704.161 -56.1299 672.9 -24.8698 672.9 13.6916C672.9 52.2529 704.161 83.513 742.722 83.513Z" fill="white" stroke="#B28A35" stroke-width="2" stroke-miterlimit="10" stroke-linecap="round"/>
<path d="M742.722 69.5392C773.565 69.5392 798.569 44.5357 798.569 13.6922C798.569 -17.1512 773.565 -42.1548 742.722 -42.1548C711.879 -42.1548 686.875 -17.1512 686.875 13.6922C686.875 44.5357 711.879 69.5392 742.722 69.5392Z" fill="white" stroke="#B28A35" stroke-width="2" stroke-miterlimit="10" stroke-linecap="round"/>
<path d="M742.723 55.5807C765.857 55.5807 784.612 36.8262 784.612 13.6912C784.612 -9.44368 765.857 -28.1982 742.723 -28.1982C719.588 -28.1982 700.833 -9.44368 700.833 13.6912C700.833 36.8262 719.588 55.5807 742.723 55.5807Z" fill="white" stroke="#B28A35" stroke-width="2" stroke-miterlimit="10" stroke-linecap="round"/>
<path d="M742.722 41.6237C758.148 41.6237 770.654 29.1182 770.654 13.6917C770.654 -1.73466 758.148 -14.2402 742.722 -14.2402C727.296 -14.2402 714.79 -1.73466 714.79 13.6917C714.79 29.1182 727.296 41.6237 742.722 41.6237Z" fill="white" stroke="#B28A35" stroke-width="2" stroke-miterlimit="10" stroke-linecap="round"/>
<path d="M668.593 112.598C707.154 112.598 738.414 81.3379 738.414 42.7766C738.414 4.21522 707.154 -27.0449 668.593 -27.0449C630.032 -27.0449 598.771 4.21522 598.771 42.7766C598.771 81.3379 630.032 112.598 668.593 112.598Z" fill="white" stroke="#B28A35" stroke-width="2" stroke-miterlimit="10" stroke-linecap="round"/>
<path d="M668.592 98.6237C699.436 98.6237 724.439 73.6201 724.439 42.7767C724.439 11.9332 699.436 -13.0703 668.592 -13.0703C637.749 -13.0703 612.745 11.9332 612.745 42.7767C612.745 73.6201 637.749 98.6237 668.592 98.6237Z" fill="white" stroke="#B28A35" stroke-width="2" stroke-miterlimit="10" stroke-linecap="round"/>
<path d="M668.594 84.6652C691.728 84.6652 710.483 65.9106 710.483 42.7757C710.483 19.6408 691.728 0.88623 668.594 0.88623C645.459 0.88623 626.704 19.6408 626.704 42.7757C626.704 65.9106 645.459 84.6652 668.594 84.6652Z" fill="white" stroke="#B28A35" stroke-width="2" stroke-miterlimit="10" stroke-linecap="round"/>
<path d="M668.593 70.7087C684.02 70.7087 696.525 58.2031 696.525 42.7767C696.525 27.3503 684.02 14.8447 668.593 14.8447C653.167 14.8447 640.661 27.3503 640.661 42.7767C640.661 58.2031 653.167 70.7087 668.593 70.7087Z" fill="white" stroke="#B28A35" stroke-width="2" stroke-miterlimit="10" stroke-linecap="round"/>
<path d="M668.593 56.7344C676.302 56.7344 682.551 50.4854 682.551 42.7769C682.551 35.0683 676.302 28.8193 668.593 28.8193C660.885 28.8193 654.636 35.0683 654.636 42.7769C654.636 50.4854 660.885 56.7344 668.593 56.7344Z" fill="white" stroke="#B28A35" stroke-width="2" stroke-miterlimit="10" stroke-linecap="round"/>
<path d="M372.449 112.598C411.011 112.598 442.271 81.3379 442.271 42.7766C442.271 4.21522 411.011 -27.0449 372.449 -27.0449C333.888 -27.0449 302.628 4.21522 302.628 42.7766C302.628 81.3379 333.888 112.598 372.449 112.598Z" fill="white" stroke="#B28A35" stroke-width="2" stroke-miterlimit="10" stroke-linecap="round"/>
<path d="M372.45 98.6237C403.293 98.6237 428.297 73.6201 428.297 42.7767C428.297 11.9332 403.293 -13.0703 372.45 -13.0703C341.606 -13.0703 316.603 11.9332 316.603 42.7767C316.603 73.6201 341.606 98.6237 372.45 98.6237Z" fill="white" stroke="#B28A35" stroke-width="2" stroke-miterlimit="10" stroke-linecap="round"/>
<path d="M372.45 84.6652C395.585 84.6652 414.34 65.9106 414.34 42.7757C414.34 19.6408 395.585 0.88623 372.45 0.88623C349.315 0.88623 330.561 19.6408 330.561 42.7757C330.561 65.9106 349.315 84.6652 372.45 84.6652Z" fill="white" stroke="#B28A35" stroke-width="2" stroke-miterlimit="10" stroke-linecap="round"/>
<path d="M372.45 70.7087C387.876 70.7087 400.382 58.2031 400.382 42.7767C400.382 27.3503 387.876 14.8447 372.45 14.8447C357.023 14.8447 344.518 27.3503 344.518 42.7767C344.518 58.2031 357.023 70.7087 372.45 70.7087Z" fill="white" stroke="#B28A35" stroke-width="2" stroke-miterlimit="10" stroke-linecap="round"/>
<path d="M372.449 56.7344C380.157 56.7344 386.406 50.4854 386.406 42.7769C386.406 35.0683 380.157 28.8193 372.449 28.8193C364.74 28.8193 358.491 35.0683 358.491 42.7769C358.491 50.4854 364.74 56.7344 372.449 56.7344Z" fill="white" stroke="#B28A35" stroke-width="2" stroke-miterlimit="10" stroke-linecap="round"/>
<path d="M520.521 112.598C559.082 112.598 590.342 81.3379 590.342 42.7766C590.342 4.21522 559.082 -27.0449 520.521 -27.0449C481.959 -27.0449 450.699 4.21522 450.699 42.7766C450.699 81.3379 481.959 112.598 520.521 112.598Z" fill="white" stroke="#B28A35" stroke-width="2" stroke-miterlimit="10" stroke-linecap="round"/>
<path d="M520.521 98.6237C551.364 98.6237 576.368 73.6201 576.368 42.7767C576.368 11.9332 551.364 -13.0703 520.521 -13.0703C489.677 -13.0703 464.674 11.9332 464.674 42.7767C464.674 73.6201 489.677 98.6237 520.521 98.6237Z" fill="white" stroke="#B28A35" stroke-width="2" stroke-miterlimit="10" stroke-linecap="round"/>
<path d="M520.521 84.6652C543.656 84.6652 562.411 65.9106 562.411 42.7757C562.411 19.6408 543.656 0.88623 520.521 0.88623C497.386 0.88623 478.632 19.6408 478.632 42.7757C478.632 65.9106 497.386 84.6652 520.521 84.6652Z" fill="white" stroke="#B28A35" stroke-width="2" stroke-miterlimit="10" stroke-linecap="round"/>
<path d="M520.521 70.7087C535.947 70.7087 548.453 58.2031 548.453 42.7767C548.453 27.3503 535.947 14.8447 520.521 14.8447C505.094 14.8447 492.589 27.3503 492.589 42.7767C492.589 58.2031 505.094 70.7087 520.521 70.7087Z" fill="white" stroke="#B28A35" stroke-width="2" stroke-miterlimit="10" stroke-linecap="round"/>
<path d="M520.52 56.7344C528.228 56.7344 534.478 50.4854 534.478 42.7769C534.478 35.0683 528.228 28.8193 520.52 28.8193C512.811 28.8193 506.562 35.0683 506.562 42.7769C506.562 50.4854 512.811 56.7344 520.52 56.7344Z" fill="white" stroke="#B28A35" stroke-width="2" stroke-miterlimit="10" stroke-linecap="round"/>
<path d="M224.361 112.581C262.922 112.581 294.182 81.3208 294.182 42.7595C294.182 4.19812 262.922 -27.062 224.361 -27.062C185.799 -27.062 154.539 4.19812 154.539 42.7595C154.539 81.3208 185.799 112.581 224.361 112.581Z" fill="white" stroke="#B28A35" stroke-width="2" stroke-miterlimit="10" stroke-linecap="round"/>
<path d="M263.86 82.2559C285.67 60.4463 285.67 25.0859 263.86 3.27632C242.05 -18.5333 206.69 -18.5333 184.88 3.27631C163.071 25.0859 163.071 60.4463 184.88 82.2559C206.69 104.066 242.05 104.066 263.86 82.2559Z" fill="white" stroke="#B28A35" stroke-width="2" stroke-miterlimit="10" stroke-linecap="round"/>
<path d="M253.991 72.3865C270.35 56.0276 270.35 29.5046 253.991 13.1458C237.632 -3.21308 211.109 -3.21308 194.75 13.1458C178.391 29.5046 178.391 56.0276 194.75 72.3865C211.109 88.7453 237.632 88.7453 253.991 72.3865Z" fill="white" stroke="#B28A35" stroke-width="2" stroke-miterlimit="10" stroke-linecap="round"/>
<path d="M249.099 55.6986C256.248 42.0289 250.962 25.1517 237.293 18.0023C223.623 10.853 206.746 16.1387 199.596 29.8084C192.447 43.4781 197.733 60.3553 211.403 67.5047C225.072 74.654 241.949 69.3683 249.099 55.6986Z" fill="white" stroke="#B28A35" stroke-width="2" stroke-miterlimit="10" stroke-linecap="round"/>
<path d="M234.24 52.6356C239.691 47.1848 239.691 38.3474 234.24 32.8967C228.789 27.4459 219.952 27.4459 214.501 32.8967C209.051 38.3474 209.051 47.1848 214.501 52.6356C219.952 58.0863 228.789 58.0863 234.24 52.6356Z" fill="white" stroke="#B28A35" stroke-width="2" stroke-miterlimit="10" stroke-linecap="round"/>
<path d="M76.2892 112.598C114.851 112.598 146.111 81.3379 146.111 42.7766C146.111 4.21522 114.851 -27.0449 76.2892 -27.0449C37.7279 -27.0449 6.46777 4.21522 6.46777 42.7766C6.46777 81.3379 37.7279 112.598 76.2892 112.598Z" fill="white" stroke="#B28A35" stroke-width="2" stroke-miterlimit="10" stroke-linecap="round"/>
<path d="M76.2894 98.6237C107.133 98.6237 132.136 73.6201 132.136 42.7767C132.136 11.9332 107.133 -13.0703 76.2894 -13.0703C45.4459 -13.0703 20.4424 11.9332 20.4424 42.7767C20.4424 73.6201 45.4459 98.6237 76.2894 98.6237Z" fill="white" stroke="#B28A35" stroke-width="2" stroke-miterlimit="10" stroke-linecap="round"/>
<path d="M76.2899 84.6652C99.4248 84.6652 118.179 65.9106 118.179 42.7757C118.179 19.6408 99.4248 0.88623 76.2899 0.88623C53.1549 0.88623 34.4004 19.6408 34.4004 42.7757C34.4004 65.9106 53.1549 84.6652 76.2899 84.6652Z" fill="white" stroke="#B28A35" stroke-width="2" stroke-miterlimit="10" stroke-linecap="round"/>
<path d="M76.2894 70.7087C91.7158 70.7087 104.221 58.2031 104.221 42.7767C104.221 27.3503 91.7158 14.8447 76.2894 14.8447C60.863 14.8447 48.3574 27.3503 48.3574 42.7767C48.3574 58.2031 60.863 70.7087 76.2894 70.7087Z" fill="white" stroke="#B28A35" stroke-width="2" stroke-miterlimit="10" stroke-linecap="round"/>
<path d="M76.2886 56.7344C83.9971 56.7344 90.2461 50.4854 90.2461 42.7769C90.2461 35.0683 83.9971 28.8193 76.2886 28.8193C68.58 28.8193 62.3311 35.0683 62.3311 42.7769C62.3311 50.4854 68.58 56.7344 76.2886 56.7344Z" fill="white" stroke="#B28A35" stroke-width="2" stroke-miterlimit="10" stroke-linecap="round"/>
<path d="M594.651 152.775C633.212 152.775 664.472 121.515 664.472 82.9533C664.472 44.392 633.212 13.1318 594.651 13.1318C556.089 13.1318 524.829 44.392 524.829 82.9533C524.829 121.515 556.089 152.775 594.651 152.775Z" fill="white" stroke="#B28A35" stroke-width="2" stroke-miterlimit="10" stroke-linecap="round"/>
<path d="M607.29 137.397C637.332 130.412 656.023 100.395 649.038 70.3531C642.052 40.3111 612.036 21.6201 581.994 28.6056C551.952 35.5911 533.26 65.6078 540.246 95.6498C547.231 125.692 577.248 144.383 607.29 137.397Z" fill="white" stroke="#B28A35" stroke-width="2" stroke-miterlimit="10" stroke-linecap="round"/>
<path d="M601.324 124.273C624.164 120.594 639.698 99.0957 636.019 76.2551C632.34 53.4146 610.842 37.881 588.001 41.5599C565.16 45.2388 549.627 66.7371 553.306 89.5776C556.985 112.418 578.483 127.952 601.324 124.273Z" fill="white" stroke="#B28A35" stroke-width="2" stroke-miterlimit="10" stroke-linecap="round"/>
<path d="M620.41 93.7519C626.374 79.5246 619.674 63.1571 605.447 57.194C591.219 51.2309 574.852 57.9304 568.889 72.1577C562.926 86.385 569.625 102.752 583.853 108.716C598.08 114.679 614.447 107.979 620.41 93.7519Z" fill="white" stroke="#B28A35" stroke-width="2" stroke-miterlimit="10" stroke-linecap="round"/>
<path d="M597.847 96.6033C605.351 94.8392 610.004 87.3259 608.24 79.8219C606.475 72.318 598.962 67.665 591.458 69.4292C583.954 71.1934 579.301 78.7067 581.065 86.2106C582.83 93.7145 590.343 98.3675 597.847 96.6033Z" fill="white" stroke="#B28A35" stroke-width="2" stroke-miterlimit="10" stroke-linecap="round"/>
<path d="M298.49 152.775C337.052 152.775 368.312 121.515 368.312 82.9538C368.312 44.3925 337.052 13.1323 298.49 13.1323C259.929 13.1323 228.669 44.3925 228.669 82.9538C228.669 121.515 259.929 152.775 298.49 152.775Z" fill="white" stroke="#B28A35" stroke-width="2" stroke-miterlimit="10" stroke-linecap="round"/>
<path d="M334.479 125.694C358.068 105.823 361.082 70.5915 341.211 47.0021C321.34 23.4128 286.108 20.3986 262.519 40.2697C238.93 60.1408 235.915 95.3725 255.786 118.962C275.658 142.551 310.889 145.565 334.479 125.694Z" fill="white" stroke="#B28A35" stroke-width="2" stroke-miterlimit="10" stroke-linecap="round"/>
<path d="M332.142 107.951C345.929 89.373 342.045 63.1359 323.467 49.3488C304.889 35.5616 278.652 39.4454 264.865 58.0233C251.078 76.6012 254.962 102.838 273.54 116.625C292.118 130.413 318.355 126.529 332.142 107.951Z" fill="white" stroke="#B28A35" stroke-width="2" stroke-miterlimit="10" stroke-linecap="round"/>
<path d="M320.988 99.5215C330.133 87.0985 327.477 69.6136 315.054 60.468C302.631 51.3223 285.146 53.9792 276 66.4022C266.854 78.8252 269.511 96.31 281.934 105.456C294.357 114.601 311.842 111.945 320.988 99.5215Z" fill="white" stroke="#B28A35" stroke-width="2" stroke-miterlimit="10" stroke-linecap="round"/>
<path d="M312.465 82.9546C312.465 75.2381 306.207 68.9971 298.507 68.9971C290.808 68.9971 284.55 75.255 284.55 82.9546C284.55 90.6541 290.808 96.9121 298.507 96.9121C306.207 96.9121 312.465 90.6541 312.465 82.9546Z" fill="white" stroke="#B28A35" stroke-width="2" stroke-miterlimit="10" stroke-linecap="round"/>
<path d="M446.578 152.775C485.14 152.775 516.4 121.515 516.4 82.9538C516.4 44.3925 485.14 13.1323 446.578 13.1323C408.017 13.1323 376.757 44.3925 376.757 82.9538C376.757 121.515 408.017 152.775 446.578 152.775Z" fill="white" stroke="#B28A35" stroke-width="2" stroke-miterlimit="10" stroke-linecap="round"/>
<path d="M463.035 136.317C492.508 127.228 509.033 95.9657 499.943 66.4921C490.853 37.0185 459.591 20.4942 430.118 29.584C400.644 38.6737 384.12 69.9356 393.21 99.4092C402.299 128.883 433.561 145.407 463.035 136.317Z" fill="white" stroke="#B28A35" stroke-width="2" stroke-miterlimit="10" stroke-linecap="round"/>
<path d="M457.832 123.259C480.116 117.041 493.14 93.9362 486.922 71.6524C480.705 49.3687 457.6 36.3444 435.316 42.562C413.032 48.7795 400.008 71.8844 406.226 94.1682C412.443 116.452 435.548 129.476 457.832 123.259Z" fill="white" stroke="#B28A35" stroke-width="2" stroke-miterlimit="10" stroke-linecap="round"/>
<path d="M454.112 109.846C468.966 105.684 477.635 90.269 473.473 75.4145C469.312 60.56 453.896 51.8915 439.042 56.053C424.187 60.2144 415.519 75.6298 419.68 90.4844C423.842 105.339 439.257 114.007 454.112 109.846Z" fill="white" stroke="#B28A35" stroke-width="2" stroke-miterlimit="10" stroke-linecap="round"/>
<path d="M450.359 96.424C457.779 94.3368 462.103 86.6292 460.016 79.2087C457.929 71.7881 450.221 67.4646 442.8 69.5518C435.38 71.639 431.056 79.3466 433.144 86.7672C435.231 94.1877 442.938 98.5113 450.359 96.424Z" fill="white" stroke="#B28A35" stroke-width="2" stroke-miterlimit="10" stroke-linecap="round"/>
<path d="M150.418 152.758C188.979 152.758 220.24 121.498 220.24 82.9367C220.24 44.3754 188.979 13.1152 150.418 13.1152C111.857 13.1152 80.5967 44.3754 80.5967 82.9367C80.5967 121.498 111.857 152.758 150.418 152.758Z" fill="white" stroke="#B28A35" stroke-width="2" stroke-miterlimit="10" stroke-linecap="round"/>
<path d="M163.442 137.225C193.435 130.035 211.922 99.8922 204.732 69.8984C197.542 39.9047 167.399 21.4184 137.405 28.6082C107.411 35.798 88.9252 65.9412 96.1149 95.935C103.305 125.929 133.448 144.415 163.442 137.225Z" fill="white" stroke="#B28A35" stroke-width="2" stroke-miterlimit="10" stroke-linecap="round"/>
<path d="M150.419 124.826C173.554 124.826 192.308 106.071 192.308 82.9364C192.308 59.8014 173.554 41.0469 150.419 41.0469C127.284 41.0469 108.529 59.8014 108.529 82.9364C108.529 106.071 127.284 124.826 150.419 124.826Z" fill="white" stroke="#B28A35" stroke-width="2" stroke-miterlimit="10" stroke-linecap="round"/>
<path d="M150.418 110.869C165.845 110.869 178.35 98.3633 178.35 82.9369C178.35 67.5105 165.845 55.0049 150.418 55.0049C134.992 55.0049 122.486 67.5105 122.486 82.9369C122.486 98.3633 134.992 110.869 150.418 110.869Z" fill="white" stroke="#B28A35" stroke-width="2" stroke-miterlimit="10" stroke-linecap="round"/>
<path d="M153.636 96.5235C161.137 94.7463 165.776 87.2249 163.999 79.724C162.222 72.2232 154.7 67.5833 147.2 69.3606C139.699 71.1379 135.059 78.6593 136.836 86.1601C138.613 93.6609 146.135 98.3008 153.636 96.5235Z" fill="white" stroke="#B28A35" stroke-width="2" stroke-miterlimit="10" stroke-linecap="round"/>
<path d="M2.34588 152.774C40.9072 152.774 72.1673 121.514 72.1673 82.9528C72.1673 44.3915 40.9072 13.1313 2.34588 13.1313C-36.2155 13.1313 -67.4756 44.3915 -67.4756 82.9528C-67.4756 121.514 -36.2155 152.774 2.34588 152.774Z" fill="white" stroke="#B28A35" stroke-width="2" stroke-miterlimit="10" stroke-linecap="round"/>
<path d="M53.7544 104.727C65.796 76.3308 52.5383 43.5499 24.1426 31.5083C-4.25317 19.4667 -37.0341 32.7244 -49.0757 61.1201C-61.1173 89.5159 -47.8596 122.297 -19.4639 134.338C8.93189 146.38 41.7128 133.122 53.7544 104.727Z" fill="white" stroke="#B28A35" stroke-width="2" stroke-miterlimit="10" stroke-linecap="round"/>
<path d="M9.02565 124.302C31.8662 120.623 47.3998 99.125 43.7209 76.2844C40.042 53.4439 18.5437 37.9103 -4.29686 41.5892C-27.1374 45.2681 -42.671 66.7664 -38.9921 89.6069C-35.3132 112.447 -13.8149 127.981 9.02565 124.302Z" fill="white" stroke="#B28A35" stroke-width="2" stroke-miterlimit="10" stroke-linecap="round"/>
<path d="M28.1019 93.7382C34.0649 79.5109 27.3655 63.1434 13.1382 57.1803C-1.0891 51.2172 -17.4566 57.9167 -23.4197 72.144C-29.3828 86.3713 -22.6833 102.739 -8.45602 108.702C5.77126 114.665 22.1388 107.966 28.1019 93.7382Z" fill="white" stroke="#B28A35" stroke-width="2" stroke-miterlimit="10" stroke-linecap="round"/>
<path d="M4.6415 96.7242C12.2432 95.4453 17.3688 88.2461 16.0899 80.6445C14.811 73.0428 7.61186 67.9171 0.0101685 69.1961C-7.59152 70.475 -12.7171 77.6741 -11.4382 85.2758C-10.1593 92.8775 -2.96019 98.0031 4.6415 96.7242Z" fill="white" stroke="#B28A35" stroke-width="2" stroke-miterlimit="10" stroke-linecap="round"/>
<path d="M742.722 152.758C781.283 152.758 812.543 121.498 812.543 82.9367C812.543 44.3754 781.283 13.1152 742.722 13.1152C704.161 13.1152 672.9 44.3754 672.9 82.9367C672.9 121.498 704.161 152.758 742.722 152.758Z" fill="white" stroke="#B28A35" stroke-width="2" stroke-miterlimit="10" stroke-linecap="round"/>
<path d="M751.746 138.094C782.183 133.105 802.813 104.385 797.823 73.9482C792.833 43.511 764.114 22.8818 733.677 27.8715C703.24 32.8613 682.61 61.5804 687.6 92.0176C692.59 122.455 721.309 143.084 751.746 138.094Z" fill="white" stroke="#B28A35" stroke-width="2" stroke-miterlimit="10" stroke-linecap="round"/>
<path d="M742.723 124.826C765.857 124.826 784.612 106.071 784.612 82.9364C784.612 59.8014 765.857 41.0469 742.723 41.0469C719.588 41.0469 700.833 59.8014 700.833 82.9364C700.833 106.071 719.588 124.826 742.723 124.826Z" fill="white" stroke="#B28A35" stroke-width="2" stroke-miterlimit="10" stroke-linecap="round"/>
<path d="M742.722 110.869C758.148 110.869 770.654 98.3633 770.654 82.9369C770.654 67.5105 758.148 55.0049 742.722 55.0049C727.296 55.0049 714.79 67.5105 714.79 82.9369C714.79 98.3633 727.296 110.869 742.722 110.869Z" fill="white" stroke="#B28A35" stroke-width="2" stroke-miterlimit="10" stroke-linecap="round"/>
<path d="M668.593 182.978C707.154 182.978 738.414 151.718 738.414 113.156C738.414 74.5951 707.154 43.335 668.593 43.335C630.032 43.335 598.771 74.5951 598.771 113.156C598.771 151.718 630.032 182.978 668.593 182.978Z" fill="white" stroke="#B28A35" stroke-width="2" stroke-miterlimit="10" stroke-linecap="round"/>
<path d="M677.614 168.326C708.052 163.336 728.681 134.617 723.691 104.18C718.701 73.7425 689.982 53.1133 659.545 58.103C629.108 63.0927 608.479 91.8119 613.468 122.249C618.458 152.686 647.177 173.315 677.614 168.326Z" fill="white" stroke="#B28A35" stroke-width="2" stroke-miterlimit="10" stroke-linecap="round"/>
<path d="M668.594 155.046C691.728 155.046 710.483 136.291 710.483 113.156C710.483 90.0212 691.728 71.2666 668.594 71.2666C645.459 71.2666 626.704 90.0212 626.704 113.156C626.704 136.291 645.459 155.046 668.594 155.046Z" fill="white" stroke="#B28A35" stroke-width="2" stroke-miterlimit="10" stroke-linecap="round"/>
<path d="M668.593 141.089C684.02 141.089 696.525 128.583 696.525 113.157C696.525 97.7302 684.02 85.2246 668.593 85.2246C653.167 85.2246 640.661 97.7302 640.661 113.157C640.661 128.583 653.167 141.089 668.593 141.089Z" fill="white" stroke="#B28A35" stroke-width="2" stroke-miterlimit="10" stroke-linecap="round"/>
<path d="M677.394 124.053C683.385 119.203 684.31 110.414 679.46 104.423C674.61 98.4311 665.821 97.5058 659.83 102.356C653.838 107.206 652.913 115.995 657.763 121.986C662.613 127.978 671.402 128.903 677.394 124.053Z" fill="white" stroke="#B28A35" stroke-width="2" stroke-miterlimit="10" stroke-linecap="round"/>
<path d="M372.449 182.978C411.011 182.978 442.271 151.718 442.271 113.156C442.271 74.5951 411.011 43.335 372.449 43.335C333.888 43.335 302.628 74.5951 302.628 113.156C302.628 151.718 333.888 182.978 372.449 182.978Z" fill="white" stroke="#B28A35" stroke-width="2" stroke-miterlimit="10" stroke-linecap="round"/>
<path d="M385.468 167.43C415.462 160.24 433.948 130.097 426.758 100.104C419.568 70.1098 389.425 51.6235 359.432 58.8133C329.438 66.0031 310.952 96.1463 318.141 126.14C325.331 156.134 355.474 174.62 385.468 167.43Z" fill="white" stroke="#B28A35" stroke-width="2" stroke-miterlimit="10" stroke-linecap="round"/>
<path d="M372.45 155.046C395.585 155.046 414.34 136.291 414.34 113.156C414.34 90.0212 395.585 71.2666 372.45 71.2666C349.315 71.2666 330.561 90.0212 330.561 113.156C330.561 136.291 349.315 155.046 372.45 155.046Z" fill="white" stroke="#B28A35" stroke-width="2" stroke-miterlimit="10" stroke-linecap="round"/>
<path d="M372.45 141.089C387.876 141.089 400.382 128.583 400.382 113.157C400.382 97.7302 387.876 85.2246 372.45 85.2246C357.023 85.2246 344.518 97.7302 344.518 113.157C344.518 128.583 357.023 141.089 372.45 141.089Z" fill="white" stroke="#B28A35" stroke-width="2" stroke-miterlimit="10" stroke-linecap="round"/>
<path d="M375.67 126.733C383.171 124.956 387.811 117.435 386.033 109.934C384.256 102.433 376.735 97.7933 369.234 99.5705C361.733 101.348 357.093 108.869 358.87 116.37C360.648 123.871 368.169 128.511 375.67 126.733Z" fill="white" stroke="#B28A35" stroke-width="2" stroke-miterlimit="10" stroke-linecap="round"/>
<path d="M520.521 182.979C559.082 182.979 590.342 151.719 590.342 113.158C590.342 74.5966 559.082 43.3364 520.521 43.3364C481.959 43.3364 450.699 74.5966 450.699 113.158C450.699 151.719 481.959 182.979 520.521 182.979Z" fill="white" stroke="#B28A35" stroke-width="2" stroke-miterlimit="10" stroke-linecap="round"/>
<path d="M560.01 152.652C581.82 130.843 581.82 95.4824 560.01 73.6728C538.201 51.8632 502.84 51.8632 481.031 73.6728C459.221 95.4824 459.221 130.843 481.031 152.652C502.84 174.462 538.201 174.462 560.01 152.652Z" fill="white" stroke="#B28A35" stroke-width="2" stroke-miterlimit="10" stroke-linecap="round"/>
<path d="M520.52 155.047C543.655 155.047 562.41 136.292 562.41 113.158C562.41 90.0226 543.655 71.2681 520.52 71.2681C497.385 71.2681 478.631 90.0226 478.631 113.158C478.631 136.292 497.385 155.047 520.52 155.047Z" fill="white" stroke="#B28A35" stroke-width="2" stroke-miterlimit="10" stroke-linecap="round"/>
<path d="M520.521 141.089C535.947 141.089 548.453 128.583 548.453 113.157C548.453 97.7302 535.947 85.2246 520.521 85.2246C505.094 85.2246 492.589 97.7302 492.589 113.157C492.589 128.583 505.094 141.089 520.521 141.089Z" fill="white" stroke="#B28A35" stroke-width="2" stroke-miterlimit="10" stroke-linecap="round"/>
<path d="M530.39 123.032C535.84 117.581 535.84 108.744 530.39 103.293C524.939 97.8424 516.101 97.8424 510.651 103.293C505.2 108.744 505.2 117.581 510.651 123.032C516.101 128.483 524.939 128.483 530.39 123.032Z" fill="white" stroke="#B28A35" stroke-width="2" stroke-miterlimit="10" stroke-linecap="round"/>
<path d="M224.36 182.978C262.921 182.978 294.181 151.718 294.181 113.157C294.181 74.5956 262.921 43.3354 224.36 43.3354C185.798 43.3354 154.538 74.5956 154.538 113.157C154.538 151.718 185.798 182.978 224.36 182.978Z" fill="white" stroke="#B28A35" stroke-width="2" stroke-miterlimit="10" stroke-linecap="round"/>
<path d="M263.863 152.657C285.673 130.847 285.673 95.4868 263.863 73.6772C242.053 51.8676 206.693 51.8676 184.883 73.6772C163.074 95.4868 163.074 130.847 184.883 152.657C206.693 174.466 242.053 174.466 263.863 152.657Z" fill="white" stroke="#B28A35" stroke-width="2" stroke-miterlimit="10" stroke-linecap="round"/>
<path d="M224.36 155.048C247.495 155.048 266.25 136.293 266.25 113.158C266.25 90.0231 247.495 71.2686 224.36 71.2686C201.225 71.2686 182.471 90.0231 182.471 113.158C182.471 136.293 201.225 155.048 224.36 155.048Z" fill="white" stroke="#B28A35" stroke-width="2" stroke-miterlimit="10" stroke-linecap="round"/>
<path d="M224.36 141.09C239.786 141.09 252.292 128.584 252.292 113.158C252.292 97.7312 239.786 85.2256 224.36 85.2256C208.933 85.2256 196.428 97.7312 196.428 113.158C196.428 128.584 208.933 141.09 224.36 141.09Z" fill="white" stroke="#B28A35" stroke-width="2" stroke-miterlimit="10" stroke-linecap="round"/>
<path d="M234.243 123.036C239.694 117.586 239.694 108.748 234.243 103.298C228.792 97.8468 219.955 97.8468 214.504 103.298C209.053 108.748 209.053 117.586 214.504 123.036C219.955 128.487 228.792 128.487 234.243 123.036Z" fill="white" stroke="#B28A35" stroke-width="2" stroke-miterlimit="10" stroke-linecap="round"/>
<path d="M76.2892 182.978C114.851 182.978 146.111 151.718 146.111 113.156C146.111 74.5951 114.851 43.335 76.2892 43.335C37.7279 43.335 6.46777 74.5951 6.46777 113.156C6.46777 151.718 37.7279 182.978 76.2892 182.978Z" fill="white" stroke="#B28A35" stroke-width="2" stroke-miterlimit="10" stroke-linecap="round"/>
<path d="M85.3116 168.276C115.749 163.286 136.378 134.567 131.388 104.13C126.399 73.6927 97.6794 53.0635 67.2422 58.0532C36.805 63.0429 16.1758 91.7621 21.1656 122.199C26.1553 152.636 54.8745 173.266 85.3116 168.276Z" fill="white" stroke="#B28A35" stroke-width="2" stroke-miterlimit="10" stroke-linecap="round"/>
<path d="M76.2899 155.046C99.4248 155.046 118.179 136.291 118.179 113.156C118.179 90.0212 99.4248 71.2666 76.2899 71.2666C53.1549 71.2666 34.4004 90.0212 34.4004 113.156C34.4004 136.291 53.1549 155.046 76.2899 155.046Z" fill="white" stroke="#B28A35" stroke-width="2" stroke-miterlimit="10" stroke-linecap="round"/>
<path d="M76.2894 141.089C91.7158 141.089 104.221 128.583 104.221 113.157C104.221 97.7302 91.7158 85.2246 76.2894 85.2246C60.863 85.2246 48.3574 97.7302 48.3574 113.157C48.3574 128.583 60.863 141.089 76.2894 141.089Z" fill="white" stroke="#B28A35" stroke-width="2" stroke-miterlimit="10" stroke-linecap="round"/>
<path d="M89.1931 118.466C92.1281 111.338 88.7291 103.18 81.6012 100.245C74.4733 97.31 66.3157 100.709 63.3807 107.837C60.4457 114.965 63.8447 123.122 70.9726 126.057C78.1005 128.992 86.2581 125.593 89.1931 118.466Z" fill="white" stroke="#B28A35" stroke-width="2" stroke-miterlimit="10" stroke-linecap="round"/>
<path d="M594.651 223.172C633.212 223.172 664.472 191.912 664.472 153.351C664.472 114.789 633.212 83.5293 594.651 83.5293C556.089 83.5293 524.829 114.789 524.829 153.351C524.829 191.912 556.089 223.172 594.651 223.172Z" fill="white" stroke="#B28A35" stroke-width="2" stroke-miterlimit="10" stroke-linecap="round"/>
<path d="M594.651 209.198C625.494 209.198 650.498 184.195 650.498 153.351C650.498 122.508 625.494 97.5044 594.651 97.5044C563.807 97.5044 538.804 122.508 538.804 153.351C538.804 184.195 563.807 209.198 594.651 209.198Z" fill="white" stroke="#B28A35" stroke-width="2" stroke-miterlimit="10" stroke-linecap="round"/>
<path d="M594.651 195.24C617.786 195.24 636.541 176.485 636.541 153.35C636.541 130.216 617.786 111.461 594.651 111.461C571.516 111.461 552.762 130.216 552.762 153.35C552.762 176.485 571.516 195.24 594.651 195.24Z" fill="white" stroke="#B28A35" stroke-width="2" stroke-miterlimit="10" stroke-linecap="round"/>
<path d="M594.651 181.283C610.077 181.283 622.583 168.778 622.583 153.351C622.583 137.925 610.077 125.419 594.651 125.419C579.224 125.419 566.719 137.925 566.719 153.351C566.719 168.778 579.224 181.283 594.651 181.283Z" fill="white" stroke="#B28A35" stroke-width="2" stroke-miterlimit="10" stroke-linecap="round"/>
<path d="M594.651 167.309C602.359 167.309 608.608 161.06 608.608 153.352C608.608 145.643 602.359 139.394 594.651 139.394C586.942 139.394 580.693 145.643 580.693 153.352C580.693 161.06 586.942 167.309 594.651 167.309Z" fill="white" stroke="#B28A35" stroke-width="2" stroke-miterlimit="10" stroke-linecap="round"/>
<path d="M298.49 223.172C337.052 223.172 368.312 191.912 368.312 153.351C368.312 114.789 337.052 83.5293 298.49 83.5293C259.929 83.5293 228.669 114.789 228.669 153.351C228.669 191.912 259.929 223.172 298.49 223.172Z" fill="white" stroke="#B28A35" stroke-width="2" stroke-miterlimit="10" stroke-linecap="round"/>
<path d="M298.491 209.198C329.334 209.198 354.338 184.195 354.338 153.351C354.338 122.508 329.334 97.5044 298.491 97.5044C267.647 97.5044 242.644 122.508 242.644 153.351C242.644 184.195 267.647 209.198 298.491 209.198Z" fill="white" stroke="#B28A35" stroke-width="2" stroke-miterlimit="10" stroke-linecap="round"/>
<path d="M298.491 195.24C321.626 195.24 340.381 176.485 340.381 153.35C340.381 130.216 321.626 111.461 298.491 111.461C275.356 111.461 256.602 130.216 256.602 153.35C256.602 176.485 275.356 195.24 298.491 195.24Z" fill="white" stroke="#B28A35" stroke-width="2" stroke-miterlimit="10" stroke-linecap="round"/>
<path d="M298.491 181.283C313.917 181.283 326.423 168.778 326.423 153.351C326.423 137.925 313.917 125.419 298.491 125.419C283.064 125.419 270.559 137.925 270.559 153.351C270.559 168.778 283.064 181.283 298.491 181.283Z" fill="white" stroke="#B28A35" stroke-width="2" stroke-miterlimit="10" stroke-linecap="round"/>
<path d="M312.465 153.352C312.465 145.635 306.207 139.394 298.507 139.394C290.808 139.394 284.55 145.652 284.55 153.352C284.55 161.051 290.808 167.309 298.507 167.309C306.207 167.309 312.465 161.051 312.465 153.352Z" fill="white" stroke="#B28A35" stroke-width="2" stroke-miterlimit="10" stroke-linecap="round"/>
<path d="M446.578 223.172C485.14 223.172 516.4 191.912 516.4 153.351C516.4 114.789 485.14 83.5293 446.578 83.5293C408.017 83.5293 376.757 114.789 376.757 153.351C376.757 191.912 408.017 223.172 446.578 223.172Z" fill="white" stroke="#B28A35" stroke-width="2" stroke-miterlimit="10" stroke-linecap="round"/>
<path d="M446.577 209.198C477.421 209.198 502.424 184.195 502.424 153.351C502.424 122.508 477.421 97.5044 446.577 97.5044C415.734 97.5044 390.73 122.508 390.73 153.351C390.73 184.195 415.734 209.198 446.577 209.198Z" fill="white" stroke="#B28A35" stroke-width="2" stroke-miterlimit="10" stroke-linecap="round"/>
<path d="M446.579 195.24C469.714 195.24 488.468 176.485 488.468 153.35C488.468 130.216 469.714 111.461 446.579 111.461C423.444 111.461 404.689 130.216 404.689 153.35C404.689 176.485 423.444 195.24 446.579 195.24Z" fill="white" stroke="#B28A35" stroke-width="2" stroke-miterlimit="10" stroke-linecap="round"/>
<path d="M446.578 181.283C462.005 181.283 474.51 168.778 474.51 153.351C474.51 137.925 462.005 125.419 446.578 125.419C431.152 125.419 418.646 137.925 418.646 153.351C418.646 168.778 431.152 181.283 446.578 181.283Z" fill="white" stroke="#B28A35" stroke-width="2" stroke-miterlimit="10" stroke-linecap="round"/>
<path d="M446.579 167.309C454.287 167.309 460.536 161.06 460.536 153.352C460.536 145.643 454.287 139.394 446.579 139.394C438.87 139.394 432.621 145.643 432.621 153.352C432.621 161.06 438.87 167.309 446.579 167.309Z" fill="white" stroke="#B28A35" stroke-width="2" stroke-miterlimit="10" stroke-linecap="round"/>
<path d="M161.459 222.272C199.535 216.173 225.458 180.362 219.359 142.286C213.26 104.21 177.449 78.2876 139.373 84.3864C101.297 90.4852 75.3747 126.296 81.4735 164.372C87.5723 202.448 123.383 228.371 161.459 222.272Z" fill="white" stroke="#B28A35" stroke-width="2" stroke-miterlimit="10" stroke-linecap="round"/>
<path d="M189.906 192.819C211.716 171.009 211.716 135.649 189.906 113.839C168.096 92.0297 132.736 92.0297 110.926 113.839C89.1167 135.649 89.1167 171.009 110.926 192.819C132.736 214.629 168.096 214.629 189.906 192.819Z" fill="white" stroke="#B28A35" stroke-width="2" stroke-miterlimit="10" stroke-linecap="round"/>
<path d="M157.094 194.681C179.935 191.002 195.468 169.503 191.789 146.663C188.11 123.822 166.612 108.289 143.771 111.968C120.931 115.647 105.397 137.145 109.076 159.985C112.755 182.826 134.253 198.359 157.094 194.681Z" fill="white" stroke="#B28A35" stroke-width="2" stroke-miterlimit="10" stroke-linecap="round"/>
<path d="M176.179 164.135C182.142 149.907 175.443 133.54 161.215 127.577C146.988 121.614 130.621 128.313 124.657 142.54C118.694 156.768 125.394 173.135 139.621 179.098C153.848 185.061 170.216 178.362 176.179 164.135Z" fill="white" stroke="#B28A35" stroke-width="2" stroke-miterlimit="10" stroke-linecap="round"/>
<path d="M160.286 163.199C165.737 157.748 165.737 148.91 160.286 143.46C154.835 138.009 145.998 138.009 140.547 143.46C135.096 148.91 135.096 157.748 140.547 163.199C145.998 168.649 154.835 168.649 160.286 163.199Z" fill="white" stroke="#B28A35" stroke-width="2" stroke-miterlimit="10" stroke-linecap="round"/>
<path d="M2.34588 223.172C40.9072 223.172 72.1673 191.912 72.1673 153.351C72.1673 114.789 40.9072 83.5293 2.34588 83.5293C-36.2155 83.5293 -67.4756 114.789 -67.4756 153.351C-67.4756 191.912 -36.2155 223.172 2.34588 223.172Z" fill="white" stroke="#B28A35" stroke-width="2" stroke-miterlimit="10" stroke-linecap="round"/>
<path d="M2.34602 209.198C33.1895 209.198 58.193 184.195 58.193 153.351C58.193 122.508 33.1895 97.5044 2.34602 97.5044C-28.4974 97.5044 -53.501 122.508 -53.501 153.351C-53.501 184.195 -28.4974 209.198 2.34602 209.198Z" fill="white" stroke="#B28A35" stroke-width="2" stroke-miterlimit="10" stroke-linecap="round"/>
<path d="M2.34652 195.24C25.4815 195.24 44.236 176.485 44.236 153.35C44.236 130.216 25.4815 111.461 2.34652 111.461C-20.7884 111.461 -39.543 130.216 -39.543 153.35C-39.543 176.485 -20.7884 195.24 2.34652 195.24Z" fill="white" stroke="#B28A35" stroke-width="2" stroke-miterlimit="10" stroke-linecap="round"/>
<path d="M2.34604 181.283C17.7724 181.283 30.278 168.778 30.278 153.351C30.278 137.925 17.7724 125.419 2.34604 125.419C-13.0804 125.419 -25.5859 137.925 -25.5859 153.351C-25.5859 168.778 -13.0804 181.283 2.34604 181.283Z" fill="white" stroke="#B28A35" stroke-width="2" stroke-miterlimit="10" stroke-linecap="round"/>
<path d="M2.34618 167.309C10.0547 167.309 16.3037 161.06 16.3037 153.352C16.3037 145.643 10.0547 139.394 2.34618 139.394C-5.36234 139.394 -11.6113 145.643 -11.6113 153.352C-11.6113 161.06 -5.36234 167.309 2.34618 167.309Z" fill="white" stroke="#B28A35" stroke-width="2" stroke-miterlimit="10" stroke-linecap="round"/>
<path d="M751.902 222.562C790.128 217.489 817.004 182.388 811.931 144.161C806.857 105.935 771.756 79.0595 733.53 84.1328C695.304 89.2061 668.428 124.307 673.501 162.533C678.575 200.76 713.676 227.635 751.902 222.562Z" fill="white" stroke="#B28A35" stroke-width="2" stroke-miterlimit="10" stroke-linecap="round"/>
<path d="M794.086 175.087C806.128 146.691 792.87 113.91 764.475 101.869C736.079 89.827 703.298 103.085 691.256 131.48C679.215 159.876 692.472 192.657 720.868 204.699C749.264 216.74 782.045 203.483 794.086 175.087Z" fill="white" stroke="#B28A35" stroke-width="2" stroke-miterlimit="10" stroke-linecap="round"/>
<path d="M749.392 194.634C772.232 190.955 787.766 169.457 784.087 146.616C780.408 123.776 758.91 108.242 736.069 111.921C713.229 115.6 697.695 137.098 701.374 159.939C705.053 182.78 726.551 198.313 749.392 194.634Z" fill="white" stroke="#B28A35" stroke-width="2" stroke-miterlimit="10" stroke-linecap="round"/>
<path d="M768.489 164.129C774.452 149.902 767.752 133.535 753.525 127.571C739.298 121.608 722.93 128.308 716.967 142.535C711.004 156.762 717.703 173.13 731.931 179.093C746.158 185.056 762.526 178.357 768.489 164.129Z" fill="white" stroke="#B28A35" stroke-width="2" stroke-miterlimit="10" stroke-linecap="round"/>
<path d="M733.408 208.529C747.803 172.755 730.473 132.085 694.699 117.69C658.925 103.295 618.255 120.625 603.86 156.399C589.465 192.172 606.795 232.842 642.569 247.238C678.342 261.633 719.012 244.303 733.408 208.529Z" fill="white" stroke="#B28A35" stroke-width="2" stroke-miterlimit="10" stroke-linecap="round"/>
<path d="M677.609 237.576C708.047 232.586 728.676 203.867 723.686 173.43C718.696 142.992 689.977 122.363 659.54 127.353C629.103 132.343 608.474 161.062 613.463 191.499C618.453 221.936 647.172 242.565 677.609 237.576Z" fill="white" stroke="#B28A35" stroke-width="2" stroke-miterlimit="10" stroke-linecap="round"/>
<path d="M709.001 193.65C715.187 171.358 702.131 148.271 679.838 142.085C657.546 135.898 634.459 148.955 628.273 171.247C622.086 193.54 635.143 216.626 657.435 222.813C679.728 228.999 702.814 215.943 709.001 193.65Z" fill="white" stroke="#B28A35" stroke-width="2" stroke-miterlimit="10" stroke-linecap="round"/>
<path d="M673.1 209.926C688.325 207.441 698.653 193.084 696.168 177.859C693.683 162.634 679.326 152.307 664.101 154.792C648.876 157.277 638.549 171.633 641.034 186.858C643.519 202.083 657.875 212.411 673.1 209.926Z" fill="white" stroke="#B28A35" stroke-width="2" stroke-miterlimit="10" stroke-linecap="round"/>
<path d="M677.388 193.321C683.379 188.471 684.305 179.682 679.455 173.691C674.604 167.699 665.816 166.774 659.824 171.624C653.833 176.474 652.907 185.263 657.757 191.254C662.608 197.246 671.396 198.171 677.388 193.321Z" fill="white" stroke="#B28A35" stroke-width="2" stroke-miterlimit="10" stroke-linecap="round"/>
<path d="M388.757 250.342C426.249 241.327 449.335 203.625 440.32 166.132C431.305 128.639 393.603 105.553 356.11 114.568C318.617 123.583 295.532 161.285 304.547 198.778C313.562 236.271 351.264 259.357 388.757 250.342Z" fill="white" stroke="#B28A35" stroke-width="2" stroke-miterlimit="10" stroke-linecap="round"/>
<path d="M385.486 236.684C415.479 229.494 433.966 199.351 426.776 169.357C419.586 139.364 389.443 120.877 359.449 128.067C329.455 135.257 310.969 165.4 318.159 195.394C325.349 225.388 355.492 243.874 385.486 236.684Z" fill="white" stroke="#B28A35" stroke-width="2" stroke-miterlimit="10" stroke-linecap="round"/>
<path d="M382.184 223.146C404.686 217.772 418.572 195.175 413.199 172.672C407.825 150.17 385.228 136.284 362.725 141.658C340.223 147.031 326.337 169.628 331.711 192.131C337.084 214.633 359.681 228.519 382.184 223.146Z" fill="white" stroke="#B28A35" stroke-width="2" stroke-miterlimit="10" stroke-linecap="round"/>
<path d="M378.454 209.691C393.52 206.376 403.046 191.475 399.73 176.409C396.415 161.343 381.514 151.817 366.448 155.133C351.382 158.448 341.856 173.349 345.172 188.415C348.487 203.481 363.388 213.006 378.454 209.691Z" fill="white" stroke="#B28A35" stroke-width="2" stroke-miterlimit="10" stroke-linecap="round"/>
<path d="M375.663 195.998C383.164 194.22 387.804 186.699 386.026 179.198C384.249 171.697 376.728 167.057 369.227 168.835C361.726 170.612 357.086 178.133 358.864 185.634C360.641 193.135 368.162 197.775 375.663 195.998Z" fill="white" stroke="#B28A35" stroke-width="2" stroke-miterlimit="10" stroke-linecap="round"/>
<path d="M585.33 208.508C599.725 172.735 582.395 132.065 546.621 117.669C510.847 103.274 470.177 120.605 455.782 156.378C441.387 192.152 458.717 232.822 494.491 247.217C530.264 261.612 570.934 244.282 585.33 208.508Z" fill="white" stroke="#B28A35" stroke-width="2" stroke-miterlimit="10" stroke-linecap="round"/>
<path d="M560.007 221.912C581.817 200.103 581.817 164.742 560.007 142.933C538.198 121.123 502.837 121.123 481.028 142.933C459.218 164.742 459.218 200.103 481.028 221.912C502.837 243.722 538.198 243.722 560.007 221.912Z" fill="white" stroke="#B28A35" stroke-width="2" stroke-miterlimit="10" stroke-linecap="round"/>
<path d="M550.138 212.043C566.497 195.684 566.497 169.161 550.138 152.802C533.78 136.443 507.257 136.443 490.898 152.802C474.539 169.161 474.539 195.684 490.898 212.043C507.257 228.402 533.779 228.402 550.138 212.043Z" fill="white" stroke="#B28A35" stroke-width="2" stroke-miterlimit="10" stroke-linecap="round"/>
<path d="M525.028 209.934C540.253 207.449 550.581 193.092 548.096 177.867C545.611 162.642 531.254 152.314 516.029 154.799C500.804 157.284 490.476 171.641 492.961 186.866C495.446 202.091 509.803 212.419 525.028 209.934Z" fill="white" stroke="#B28A35" stroke-width="2" stroke-miterlimit="10" stroke-linecap="round"/>
<path d="M530.388 192.292C535.838 186.841 535.838 178.004 530.388 172.553C524.937 167.102 516.099 167.102 510.649 172.553C505.198 178.004 505.198 186.841 510.649 192.292C516.1 197.743 524.937 197.743 530.388 192.292Z" fill="white" stroke="#B28A35" stroke-width="2" stroke-miterlimit="10" stroke-linecap="round"/>
<path d="M224.361 252.224C262.922 252.224 294.182 220.964 294.182 182.403C294.182 143.841 262.922 112.581 224.361 112.581C185.799 112.581 154.539 143.841 154.539 182.403C154.539 220.964 185.799 252.224 224.361 252.224Z" fill="white" stroke="#B28A35" stroke-width="2" stroke-miterlimit="10" stroke-linecap="round"/>
<path d="M224.361 238.25C255.204 238.25 280.208 213.246 280.208 182.403C280.208 151.559 255.204 126.556 224.361 126.556C193.517 126.556 168.514 151.559 168.514 182.403C168.514 213.246 193.517 238.25 224.361 238.25Z" fill="white" stroke="#B28A35" stroke-width="2" stroke-miterlimit="10" stroke-linecap="round"/>
<path d="M224.361 224.292C247.496 224.292 266.251 205.537 266.251 182.402C266.251 159.267 247.496 140.513 224.361 140.513C201.226 140.513 182.472 159.267 182.472 182.402C182.472 205.537 201.226 224.292 224.361 224.292Z" fill="white" stroke="#B28A35" stroke-width="2" stroke-miterlimit="10" stroke-linecap="round"/>
<path d="M224.361 210.335C239.787 210.335 252.293 197.829 252.293 182.403C252.293 166.976 239.787 154.471 224.361 154.471C208.934 154.471 196.429 166.976 196.429 182.403C196.429 197.829 208.934 210.335 224.361 210.335Z" fill="white" stroke="#B28A35" stroke-width="2" stroke-miterlimit="10" stroke-linecap="round"/>
<path d="M224.36 196.361C232.068 196.361 238.317 190.112 238.317 182.403C238.317 174.695 232.068 168.446 224.36 168.446C216.651 168.446 210.402 174.695 210.402 182.403C210.402 190.112 216.651 196.361 224.36 196.361Z" fill="white" stroke="#B28A35" stroke-width="2" stroke-miterlimit="10" stroke-linecap="round"/>
<path d="M141.071 208.498C155.466 172.725 138.136 132.055 102.362 117.659C66.5886 103.264 25.9186 120.594 11.5232 156.368C-2.87222 192.141 14.4582 232.811 50.2318 247.207C86.0054 261.602 126.675 244.272 141.071 208.498Z" fill="white" stroke="#B28A35" stroke-width="2" stroke-miterlimit="10" stroke-linecap="round"/>
<path d="M85.3058 237.543C115.743 232.553 136.372 203.834 131.382 173.397C126.393 142.96 97.6735 122.331 67.2363 127.32C36.7992 132.31 16.17 161.029 21.1597 191.466C26.1494 221.904 54.8686 242.533 85.3058 237.543Z" fill="white" stroke="#B28A35" stroke-width="2" stroke-miterlimit="10" stroke-linecap="round"/>
<path d="M115.095 198.236C123.818 176.808 113.518 152.367 92.0906 143.644C70.663 134.921 46.2214 145.221 37.4988 166.648C28.7762 188.076 39.0756 212.517 60.5031 221.24C81.9307 229.963 106.372 219.663 115.095 198.236Z" fill="white" stroke="#B28A35" stroke-width="2" stroke-miterlimit="10" stroke-linecap="round"/>
<path d="M80.8142 209.978C96.0391 207.493 106.367 193.136 103.882 177.911C101.397 162.686 87.0402 152.358 71.8152 154.843C56.5903 157.328 46.2625 171.685 48.7475 186.91C51.2325 202.135 65.5893 212.463 80.8142 209.978Z" fill="white" stroke="#B28A35" stroke-width="2" stroke-miterlimit="10" stroke-linecap="round"/>
<path d="M89.198 187.73C92.133 180.602 88.734 172.444 81.6061 169.509C74.4782 166.574 66.3206 169.973 63.3856 177.101C60.4506 184.229 63.8496 192.387 70.9775 195.322C78.1054 198.257 86.263 194.858 89.198 187.73Z" fill="white" stroke="#B28A35" stroke-width="2" stroke-miterlimit="10" stroke-linecap="round"/>
<path d="M594.651 292.417C633.212 292.417 664.472 261.157 664.472 222.595C664.472 184.034 633.212 152.774 594.651 152.774C556.089 152.774 524.829 184.034 524.829 222.595C524.829 261.157 556.089 292.417 594.651 292.417Z" fill="white" stroke="#B28A35" stroke-width="2" stroke-miterlimit="10" stroke-linecap="round"/>
<path d="M634.135 262.077C655.945 240.267 655.945 204.907 634.135 183.097C612.326 161.287 576.965 161.287 555.156 183.097C533.346 204.907 533.346 240.267 555.156 262.077C576.965 283.886 612.326 283.886 634.135 262.077Z" fill="white" stroke="#B28A35" stroke-width="2" stroke-miterlimit="10" stroke-linecap="round"/>
<path d="M594.65 264.484C617.785 264.484 636.54 245.729 636.54 222.595C636.54 199.46 617.785 180.705 594.65 180.705C571.515 180.705 552.761 199.46 552.761 222.595C552.761 245.729 571.515 264.484 594.65 264.484Z" fill="white" stroke="#B28A35" stroke-width="2" stroke-miterlimit="10" stroke-linecap="round"/>
<path d="M594.651 250.528C610.077 250.528 622.583 238.022 622.583 222.596C622.583 207.169 610.077 194.664 594.651 194.664C579.224 194.664 566.719 207.169 566.719 222.596C566.719 238.022 579.224 250.528 594.651 250.528Z" fill="white" stroke="#B28A35" stroke-width="2" stroke-miterlimit="10" stroke-linecap="round"/>
<path d="M604.515 232.456C609.965 227.006 609.965 218.168 604.515 212.717C599.064 207.267 590.226 207.267 584.776 212.717C579.325 218.168 579.325 227.006 584.776 232.456C590.226 237.907 599.064 237.907 604.515 232.456Z" fill="white" stroke="#B28A35" stroke-width="2" stroke-miterlimit="10" stroke-linecap="round"/>
<path d="M298.49 292.417C337.052 292.417 368.312 261.157 368.312 222.596C368.312 184.035 337.052 152.774 298.49 152.774C259.929 152.774 228.669 184.035 228.669 222.596C228.669 261.157 259.929 292.417 298.49 292.417Z" fill="white" stroke="#B28A35" stroke-width="2" stroke-miterlimit="10" stroke-linecap="round"/>
<path d="M312.316 276.714C342.198 269.075 360.23 238.658 352.591 208.775C344.952 178.893 314.534 160.861 284.652 168.5C254.769 176.139 236.738 206.557 244.377 236.439C252.016 266.321 282.433 284.353 312.316 276.714Z" fill="white" stroke="#B28A35" stroke-width="2" stroke-miterlimit="10" stroke-linecap="round"/>
<path d="M298.491 264.485C321.626 264.485 340.381 245.73 340.381 222.596C340.381 199.461 321.626 180.706 298.491 180.706C275.356 180.706 256.602 199.461 256.602 222.596C256.602 245.73 275.356 264.485 298.491 264.485Z" fill="white" stroke="#B28A35" stroke-width="2" stroke-miterlimit="10" stroke-linecap="round"/>
<path d="M298.491 250.528C313.917 250.528 326.423 238.022 326.423 222.596C326.423 207.17 313.917 194.664 298.491 194.664C283.064 194.664 270.559 207.17 270.559 222.596C270.559 238.022 283.064 250.528 298.491 250.528Z" fill="white" stroke="#B28A35" stroke-width="2" stroke-miterlimit="10" stroke-linecap="round"/>
<path d="M312.465 222.597C312.465 214.88 306.207 208.639 298.507 208.639C290.808 208.639 284.55 214.897 284.55 222.597C284.55 230.296 290.808 236.554 298.507 236.554C306.207 236.554 312.465 230.296 312.465 222.597Z" fill="white" stroke="#B28A35" stroke-width="2" stroke-miterlimit="10" stroke-linecap="round"/>
<path d="M446.578 292.417C485.14 292.417 516.4 261.157 516.4 222.596C516.4 184.035 485.14 152.774 446.578 152.774C408.017 152.774 376.757 184.035 376.757 222.596C376.757 261.157 408.017 292.417 446.578 292.417Z" fill="white" stroke="#B28A35" stroke-width="2" stroke-miterlimit="10" stroke-linecap="round"/>
<path d="M475.322 270.512C501.768 254.641 510.34 220.335 494.469 193.889C478.597 167.442 444.292 158.87 417.845 174.742C391.399 190.613 382.827 224.919 398.698 251.365C414.57 277.812 448.875 286.384 475.322 270.512Z" fill="white" stroke="#B28A35" stroke-width="2" stroke-miterlimit="10" stroke-linecap="round"/>
<path d="M446.578 264.487C469.713 264.487 488.467 245.732 488.467 222.597C488.467 199.462 469.713 180.708 446.578 180.708C423.443 180.708 404.688 199.462 404.688 222.597C404.688 245.732 423.443 264.487 446.578 264.487Z" fill="white" stroke="#B28A35" stroke-width="2" stroke-miterlimit="10" stroke-linecap="round"/>
<path d="M446.577 250.528C462.004 250.528 474.509 238.022 474.509 222.596C474.509 207.17 462.004 194.664 446.577 194.664C431.151 194.664 418.646 207.17 418.646 222.596C418.646 238.022 431.151 250.528 446.577 250.528Z" fill="white" stroke="#B28A35" stroke-width="2" stroke-miterlimit="10" stroke-linecap="round"/>
<path d="M454.582 234.012C460.896 229.589 462.429 220.886 458.006 214.572C453.584 208.259 444.88 206.726 438.567 211.148C432.253 215.571 430.72 224.274 435.142 230.588C439.565 236.901 448.268 238.434 454.582 234.012Z" fill="white" stroke="#B28A35" stroke-width="2" stroke-miterlimit="10" stroke-linecap="round"/>
<path d="M150.418 292.4C188.979 292.4 220.24 261.14 220.24 222.579C220.24 184.017 188.979 152.757 150.418 152.757C111.857 152.757 80.5967 184.017 80.5967 222.579C80.5967 261.14 111.857 292.4 150.418 292.4Z" fill="white" stroke="#B28A35" stroke-width="2" stroke-miterlimit="10" stroke-linecap="round"/>
<path d="M189.909 262.065C211.718 240.256 211.718 204.895 189.909 183.086C168.099 161.276 132.739 161.276 110.929 183.086C89.1196 204.896 89.1196 240.256 110.929 262.065C132.739 283.875 168.099 283.875 189.909 262.065Z" fill="white" stroke="#B28A35" stroke-width="2" stroke-miterlimit="10" stroke-linecap="round"/>
<path d="M157.1 263.927C179.94 260.248 195.474 238.749 191.795 215.909C188.116 193.068 166.618 177.535 143.777 181.214C120.937 184.893 105.403 206.391 109.082 229.231C112.761 252.072 134.259 267.606 157.1 263.927Z" fill="white" stroke="#B28A35" stroke-width="2" stroke-miterlimit="10" stroke-linecap="round"/>
<path d="M150.418 250.511C165.845 250.511 178.35 238.006 178.35 222.579C178.35 207.153 165.845 194.647 150.418 194.647C134.992 194.647 122.486 207.153 122.486 222.579C122.486 238.006 134.992 250.511 150.418 250.511Z" fill="white" stroke="#B28A35" stroke-width="2" stroke-miterlimit="10" stroke-linecap="round"/>
<path d="M160.289 232.445C165.74 226.994 165.74 218.157 160.289 212.706C154.838 207.255 146.001 207.255 140.55 212.706C135.099 218.157 135.099 226.994 140.55 232.445C146.001 237.896 154.838 237.896 160.289 232.445Z" fill="white" stroke="#B28A35" stroke-width="2" stroke-miterlimit="10" stroke-linecap="round"/>
<path d="M2.34588 292.417C40.9072 292.417 72.1673 261.157 72.1673 222.596C72.1673 184.035 40.9072 152.774 2.34588 152.774C-36.2155 152.774 -67.4756 184.035 -67.4756 222.596C-67.4756 261.157 -36.2155 292.417 2.34588 292.417Z" fill="white" stroke="#B28A35" stroke-width="2" stroke-miterlimit="10" stroke-linecap="round"/>
<path d="M11.3575 277.72C41.7947 272.73 62.4239 244.011 57.4342 213.574C52.4444 183.137 23.7253 162.508 -6.71189 167.498C-37.149 172.487 -57.7783 201.206 -52.7885 231.644C-47.7988 262.081 -19.0796 282.71 11.3575 277.72Z" fill="white" stroke="#B28A35" stroke-width="2" stroke-miterlimit="10" stroke-linecap="round"/>
<path d="M2.34652 264.485C25.4815 264.485 44.236 245.73 44.236 222.596C44.236 199.461 25.4815 180.706 2.34652 180.706C-20.7884 180.706 -39.543 199.461 -39.543 222.596C-39.543 245.73 -20.7884 264.485 2.34652 264.485Z" fill="white" stroke="#B28A35" stroke-width="2" stroke-miterlimit="10" stroke-linecap="round"/>
<path d="M2.34604 250.528C17.7724 250.528 30.278 238.022 30.278 222.596C30.278 207.17 17.7724 194.664 2.34604 194.664C-13.0804 194.664 -25.5859 207.17 -25.5859 222.596C-25.5859 238.022 -13.0804 250.528 2.34604 250.528Z" fill="white" stroke="#B28A35" stroke-width="2" stroke-miterlimit="10" stroke-linecap="round"/>
<path d="M15.0744 228.295C18.2368 221.265 15.1014 213.002 8.07144 209.84C1.04145 206.678 -7.22107 209.813 -10.3834 216.843C-13.5458 223.873 -10.4104 232.135 -3.38045 235.298C3.64954 238.46 11.9121 235.325 15.0744 228.295Z" fill="white" stroke="#B28A35" stroke-width="2" stroke-miterlimit="10" stroke-linecap="round"/>
<path d="M742.722 292.401C781.283 292.401 812.543 261.141 812.543 222.579C812.543 184.018 781.283 152.758 742.722 152.758C704.161 152.758 672.9 184.018 672.9 222.579C672.9 261.141 704.161 292.401 742.722 292.401Z" fill="white" stroke="#B28A35" stroke-width="2" stroke-miterlimit="10" stroke-linecap="round"/>
<path d="M794.085 244.332C806.127 215.936 792.869 183.155 764.474 171.114C736.078 159.072 703.297 172.33 691.255 200.726C679.214 229.121 692.471 261.902 720.867 273.944C749.263 285.985 782.044 272.728 794.085 244.332Z" fill="white" stroke="#B28A35" stroke-width="2" stroke-miterlimit="10" stroke-linecap="round"/>
<path d="M749.397 263.879C772.237 260.2 787.771 238.702 784.092 215.862C780.413 193.021 758.915 177.487 736.074 181.166C713.234 184.845 697.7 206.344 701.379 229.184C705.058 252.025 726.556 267.558 749.397 263.879Z" fill="white" stroke="#B28A35" stroke-width="2" stroke-miterlimit="10" stroke-linecap="round"/>
<path d="M742.722 250.511C758.148 250.511 770.654 238.006 770.654 222.579C770.654 207.153 758.148 194.647 742.722 194.647C727.296 194.647 714.79 207.153 714.79 222.579C714.79 238.006 727.296 250.511 742.722 250.511Z" fill="white" stroke="#B28A35" stroke-width="2" stroke-miterlimit="10" stroke-linecap="round"/>
<path d="M668.593 321.486C707.154 321.486 738.414 290.226 738.414 251.664C738.414 213.103 707.154 181.843 668.593 181.843C630.032 181.843 598.771 213.103 598.771 251.664C598.771 290.226 630.032 321.486 668.593 321.486Z" fill="white" stroke="#B28A35" stroke-width="2" stroke-miterlimit="10" stroke-linecap="round"/>
<path d="M668.592 307.511C699.436 307.511 724.439 282.508 724.439 251.664C724.439 220.821 699.436 195.817 668.592 195.817C637.749 195.817 612.745 220.821 612.745 251.664C612.745 282.508 637.749 307.511 668.592 307.511Z" fill="white" stroke="#B28A35" stroke-width="2" stroke-miterlimit="10" stroke-linecap="round"/>
<path d="M668.594 293.553C691.728 293.553 710.483 274.798 710.483 251.663C710.483 228.528 691.728 209.774 668.594 209.774C645.459 209.774 626.704 228.528 626.704 251.663C626.704 274.798 645.459 293.553 668.594 293.553Z" fill="white" stroke="#B28A35" stroke-width="2" stroke-miterlimit="10" stroke-linecap="round"/>
<path d="M668.593 279.596C684.02 279.596 696.525 267.091 696.525 251.664C696.525 236.238 684.02 223.732 668.593 223.732C653.167 223.732 640.661 236.238 640.661 251.664C640.661 267.091 653.167 279.596 668.593 279.596Z" fill="white" stroke="#B28A35" stroke-width="2" stroke-miterlimit="10" stroke-linecap="round"/>
<path d="M668.593 265.622C676.302 265.622 682.551 259.373 682.551 251.665C682.551 243.956 676.302 237.707 668.593 237.707C660.885 237.707 654.636 243.956 654.636 251.665C654.636 259.373 660.885 265.622 668.593 265.622Z" fill="white" stroke="#B28A35" stroke-width="2" stroke-miterlimit="10" stroke-linecap="round"/>
<path d="M372.449 321.486C411.011 321.486 442.271 290.226 442.271 251.664C442.271 213.103 411.011 181.843 372.449 181.843C333.888 181.843 302.628 213.103 302.628 251.664C302.628 290.226 333.888 321.486 372.449 321.486Z" fill="white" stroke="#B28A35" stroke-width="2" stroke-miterlimit="10" stroke-linecap="round"/>
<path d="M372.45 307.511C403.293 307.511 428.297 282.508 428.297 251.664C428.297 220.821 403.293 195.817 372.45 195.817C341.606 195.817 316.603 220.821 316.603 251.664C316.603 282.508 341.606 307.511 372.45 307.511Z" fill="white" stroke="#B28A35" stroke-width="2" stroke-miterlimit="10" stroke-linecap="round"/>
<path d="M372.45 293.553C395.585 293.553 414.34 274.798 414.34 251.663C414.34 228.528 395.585 209.774 372.45 209.774C349.315 209.774 330.561 228.528 330.561 251.663C330.561 274.798 349.315 293.553 372.45 293.553Z" fill="white" stroke="#B28A35" stroke-width="2" stroke-miterlimit="10" stroke-linecap="round"/>
<path d="M372.45 279.596C387.876 279.596 400.382 267.091 400.382 251.664C400.382 236.238 387.876 223.732 372.45 223.732C357.023 223.732 344.518 236.238 344.518 251.664C344.518 267.091 357.023 279.596 372.45 279.596Z" fill="white" stroke="#B28A35" stroke-width="2" stroke-miterlimit="10" stroke-linecap="round"/>
<path d="M372.449 265.622C380.157 265.622 386.406 259.373 386.406 251.665C386.406 243.956 380.157 237.707 372.449 237.707C364.74 237.707 358.491 243.956 358.491 251.665C358.491 259.373 364.74 265.622 372.449 265.622Z" fill="white" stroke="#B28A35" stroke-width="2" stroke-miterlimit="10" stroke-linecap="round"/>
<path d="M520.521 321.486C559.082 321.486 590.342 290.226 590.342 251.664C590.342 213.103 559.082 181.843 520.521 181.843C481.959 181.843 450.699 213.103 450.699 251.664C450.699 290.226 481.959 321.486 520.521 321.486Z" fill="white" stroke="#B28A35" stroke-width="2" stroke-miterlimit="10" stroke-linecap="round"/>
<path d="M520.521 307.511C551.364 307.511 576.368 282.508 576.368 251.664C576.368 220.821 551.364 195.817 520.521 195.817C489.677 195.817 464.674 220.821 464.674 251.664C464.674 282.508 489.677 307.511 520.521 307.511Z" fill="white" stroke="#B28A35" stroke-width="2" stroke-miterlimit="10" stroke-linecap="round"/>
<path d="M520.521 293.553C543.656 293.553 562.411 274.798 562.411 251.663C562.411 228.528 543.656 209.774 520.521 209.774C497.386 209.774 478.632 228.528 478.632 251.663C478.632 274.798 497.386 293.553 520.521 293.553Z" fill="white" stroke="#B28A35" stroke-width="2" stroke-miterlimit="10" stroke-linecap="round"/>
<path d="M520.521 279.596C535.947 279.596 548.453 267.091 548.453 251.664C548.453 236.238 535.947 223.732 520.521 223.732C505.094 223.732 492.589 236.238 492.589 251.664C492.589 267.091 505.094 279.596 520.521 279.596Z" fill="white" stroke="#B28A35" stroke-width="2" stroke-miterlimit="10" stroke-linecap="round"/>
<path d="M520.52 265.622C528.228 265.622 534.478 259.373 534.478 251.665C534.478 243.956 528.228 237.707 520.52 237.707C512.811 237.707 506.562 243.956 506.562 251.665C506.562 259.373 512.811 265.622 520.52 265.622Z" fill="white" stroke="#B28A35" stroke-width="2" stroke-miterlimit="10" stroke-linecap="round"/>
<path d="M224.361 321.485C262.922 321.485 294.182 290.225 294.182 251.664C294.182 213.102 262.922 181.842 224.361 181.842C185.799 181.842 154.539 213.102 154.539 251.664C154.539 290.225 185.799 321.485 224.361 321.485Z" fill="white" stroke="#B28A35" stroke-width="2" stroke-miterlimit="10" stroke-linecap="round"/>
<path d="M263.863 291.162C285.673 269.352 285.673 233.992 263.863 212.182C242.053 190.372 206.693 190.372 184.883 212.182C163.074 233.992 163.074 269.352 184.883 291.162C206.693 312.971 242.053 312.971 263.863 291.162Z" fill="white" stroke="#B28A35" stroke-width="2" stroke-miterlimit="10" stroke-linecap="round"/>
<path d="M253.994 281.292C270.353 264.933 270.353 238.41 253.994 222.052C237.635 205.693 211.112 205.693 194.753 222.052C178.394 238.41 178.394 264.933 194.753 281.292C211.112 297.651 237.635 297.651 253.994 281.292Z" fill="white" stroke="#B28A35" stroke-width="2" stroke-miterlimit="10" stroke-linecap="round"/>
<path d="M249.12 264.581C256.27 250.912 250.984 234.035 237.314 226.885C223.644 219.736 206.767 225.022 199.618 238.691C192.469 252.361 197.754 269.238 211.424 276.387C225.094 283.537 241.971 278.251 249.12 264.581Z" fill="white" stroke="#B28A35" stroke-width="2" stroke-miterlimit="10" stroke-linecap="round"/>
<path d="M234.243 261.541C239.694 256.091 239.694 247.253 234.243 241.802C228.792 236.352 219.955 236.352 214.504 241.802C209.053 247.253 209.053 256.091 214.504 261.541C219.955 266.992 228.792 266.992 234.243 261.541Z" fill="white" stroke="#B28A35" stroke-width="2" stroke-miterlimit="10" stroke-linecap="round"/>
<path d="M76.2892 321.486C114.851 321.486 146.111 290.226 146.111 251.664C146.111 213.103 114.851 181.843 76.2892 181.843C37.7279 181.843 6.46777 213.103 6.46777 251.664C6.46777 290.226 37.7279 321.486 76.2892 321.486Z" fill="white" stroke="#B28A35" stroke-width="2" stroke-miterlimit="10" stroke-linecap="round"/>
<path d="M76.2894 307.511C107.133 307.511 132.136 282.508 132.136 251.664C132.136 220.821 107.133 195.817 76.2894 195.817C45.4459 195.817 20.4424 220.821 20.4424 251.664C20.4424 282.508 45.4459 307.511 76.2894 307.511Z" fill="white" stroke="#B28A35" stroke-width="2" stroke-miterlimit="10" stroke-linecap="round"/>
<path d="M76.2899 293.553C99.4248 293.553 118.179 274.798 118.179 251.663C118.179 228.528 99.4248 209.774 76.2899 209.774C53.1549 209.774 34.4004 228.528 34.4004 251.663C34.4004 274.798 53.1549 293.553 76.2899 293.553Z" fill="white" stroke="#B28A35" stroke-width="2" stroke-miterlimit="10" stroke-linecap="round"/>
<path d="M76.2894 279.596C91.7158 279.596 104.221 267.091 104.221 251.664C104.221 236.238 91.7158 223.732 76.2894 223.732C60.863 223.732 48.3574 236.238 48.3574 251.664C48.3574 267.091 60.863 279.596 76.2894 279.596Z" fill="white" stroke="#B28A35" stroke-width="2" stroke-miterlimit="10" stroke-linecap="round"/>
<path d="M76.2886 265.622C83.9971 265.622 90.2461 259.373 90.2461 251.665C90.2461 243.956 83.9971 237.707 76.2886 237.707C68.58 237.707 62.3311 243.956 62.3311 251.665C62.3311 259.373 68.58 265.622 76.2886 265.622Z" fill="white" stroke="#B28A35" stroke-width="2" stroke-miterlimit="10" stroke-linecap="round"/>
<path d="M607.286 346.316C637.328 339.331 656.019 309.314 649.034 279.272C642.048 249.23 612.032 230.539 581.99 237.525C551.948 244.51 533.257 274.527 540.242 304.569C547.228 334.611 577.244 353.302 607.286 346.316Z" fill="white" stroke="#B28A35" stroke-width="2" stroke-miterlimit="10" stroke-linecap="round"/>
<path d="M594.651 333.746C617.786 333.746 636.541 314.992 636.541 291.857C636.541 268.722 617.786 249.967 594.651 249.967C571.516 249.967 552.762 268.722 552.762 291.857C552.762 314.992 571.516 333.746 594.651 333.746Z" fill="white" stroke="#B28A35" stroke-width="2" stroke-miterlimit="10" stroke-linecap="round"/>
<path d="M594.651 319.79C610.077 319.79 622.583 307.284 622.583 291.858C622.583 276.431 610.077 263.926 594.651 263.926C579.224 263.926 566.719 276.431 566.719 291.858C566.719 307.284 579.224 319.79 594.651 319.79Z" fill="white" stroke="#B28A35" stroke-width="2" stroke-miterlimit="10" stroke-linecap="round"/>
<path d="M597.831 305.509C605.335 303.745 609.988 296.232 608.224 288.728C606.46 281.224 598.946 276.571 591.443 278.335C583.939 280.099 579.286 287.612 581.05 295.116C582.814 302.62 590.327 307.273 597.831 305.509Z" fill="white" stroke="#B28A35" stroke-width="2" stroke-miterlimit="10" stroke-linecap="round"/>
<path d="M334.478 334.615C358.067 314.744 361.081 279.512 341.21 255.923C321.339 232.333 286.107 229.319 262.518 249.19C238.929 269.061 235.914 304.293 255.785 327.882C275.657 351.472 310.888 354.486 334.478 334.615Z" fill="white" stroke="#B28A35" stroke-width="2" stroke-miterlimit="10" stroke-linecap="round"/>
<path d="M298.49 333.748C321.625 333.748 340.38 314.994 340.38 291.859C340.38 268.724 321.625 249.969 298.49 249.969C275.355 249.969 256.601 268.724 256.601 291.859C256.601 314.994 275.355 333.748 298.49 333.748Z" fill="white" stroke="#B28A35" stroke-width="2" stroke-miterlimit="10" stroke-linecap="round"/>
<path d="M298.49 319.79C313.916 319.79 326.422 307.284 326.422 291.858C326.422 276.431 313.916 263.926 298.49 263.926C283.063 263.926 270.558 276.431 270.558 291.858C270.558 307.284 283.063 319.79 298.49 319.79Z" fill="white" stroke="#B28A35" stroke-width="2" stroke-miterlimit="10" stroke-linecap="round"/>
<path d="M312.465 291.858C312.465 284.142 306.207 277.901 298.507 277.901C290.808 277.901 284.55 284.159 284.55 291.858C284.55 299.558 290.808 305.816 298.507 305.816C306.207 305.816 312.465 299.558 312.465 291.858Z" fill="white" stroke="#B28A35" stroke-width="2" stroke-miterlimit="10" stroke-linecap="round"/>
<path d="M463.039 345.221C492.512 336.131 509.037 304.869 499.947 275.395C490.857 245.922 459.595 229.397 430.122 238.487C400.648 247.577 384.124 278.839 393.213 308.313C402.303 337.786 433.565 354.31 463.039 345.221Z" fill="white" stroke="#B28A35" stroke-width="2" stroke-miterlimit="10" stroke-linecap="round"/>
<path d="M446.578 333.748C469.713 333.748 488.467 314.993 488.467 291.858C488.467 268.723 469.713 249.969 446.578 249.969C423.443 249.969 404.688 268.723 404.688 291.858C404.688 314.993 423.443 333.748 446.578 333.748Z" fill="white" stroke="#B28A35" stroke-width="2" stroke-miterlimit="10" stroke-linecap="round"/>
<path d="M446.578 319.789C462.005 319.789 474.51 307.284 474.51 291.857C474.51 276.431 462.005 263.925 446.578 263.925C431.152 263.925 418.646 276.431 418.646 291.857C418.646 307.284 431.152 319.789 446.578 319.789Z" fill="white" stroke="#B28A35" stroke-width="2" stroke-miterlimit="10" stroke-linecap="round"/>
<path d="M450.347 305.344C457.768 303.257 462.091 295.549 460.004 288.129C457.917 280.708 450.209 276.385 442.789 278.472C435.368 280.559 431.045 288.267 433.132 295.687C435.219 303.108 442.927 307.431 450.347 305.344Z" fill="white" stroke="#B28A35" stroke-width="2" stroke-miterlimit="10" stroke-linecap="round"/>
<path d="M163.466 346.124C193.46 338.934 211.946 308.791 204.756 278.797C197.567 248.804 167.423 230.317 137.43 237.507C107.436 244.697 88.9496 274.84 96.1394 304.834C103.329 334.828 133.472 353.314 163.466 346.124Z" fill="white" stroke="#B28A35" stroke-width="2" stroke-miterlimit="10" stroke-linecap="round"/>
<path d="M189.223 307.659C197.945 286.232 187.646 261.79 166.218 253.068C144.791 244.345 120.349 254.645 111.627 276.072C102.904 297.5 113.203 321.941 134.631 330.664C156.059 339.386 180.5 329.087 189.223 307.659Z" fill="white" stroke="#B28A35" stroke-width="2" stroke-miterlimit="10" stroke-linecap="round"/>
<path d="M154.949 319.392C170.174 316.907 180.502 302.55 178.017 287.325C175.532 272.1 161.175 261.772 145.95 264.257C130.725 266.742 120.397 281.099 122.882 296.324C125.367 311.549 139.724 321.877 154.949 319.392Z" fill="white" stroke="#B28A35" stroke-width="2" stroke-miterlimit="10" stroke-linecap="round"/>
<path d="M153.637 305.429C161.138 303.652 165.777 296.131 164 288.63C162.223 281.129 154.701 276.489 147.201 278.266C139.7 280.044 135.06 287.565 136.837 295.066C138.614 302.567 146.136 307.207 153.637 305.429Z" fill="white" stroke="#B28A35" stroke-width="2" stroke-miterlimit="10" stroke-linecap="round"/>
<path d="M53.7798 313.617C65.8214 285.221 52.5637 252.44 24.168 240.399C-4.22777 228.357 -37.0087 241.615 -49.0503 270.011C-61.0919 298.406 -47.8342 331.187 -19.4385 343.229C8.95729 355.271 41.7382 342.013 53.7798 313.617Z" fill="white" stroke="#B28A35" stroke-width="2" stroke-miterlimit="10" stroke-linecap="round"/>
<path d="M2.34652 333.749C25.4815 333.749 44.236 314.994 44.236 291.859C44.236 268.724 25.4815 249.97 2.34652 249.97C-20.7884 249.97 -39.543 268.724 -39.543 291.859C-39.543 314.994 -20.7884 333.749 2.34652 333.749Z" fill="white" stroke="#B28A35" stroke-width="2" stroke-miterlimit="10" stroke-linecap="round"/>
<path d="M2.34701 319.79C17.7734 319.79 30.279 307.285 30.279 291.858C30.279 276.432 17.7734 263.926 2.34701 263.926C-13.0794 263.926 -25.585 276.432 -25.585 291.858C-25.585 307.285 -13.0794 319.79 2.34701 319.79Z" fill="white" stroke="#B28A35" stroke-width="2" stroke-miterlimit="10" stroke-linecap="round"/>
<path d="M4.63564 305.636C12.2373 304.357 17.363 297.158 16.0841 289.556C14.8052 281.954 7.606 276.829 0.00430916 278.108C-7.59738 279.387 -12.723 286.586 -11.4441 294.187C-10.1652 301.789 -2.96605 306.915 4.63564 305.636Z" fill="white" stroke="#B28A35" stroke-width="2" stroke-miterlimit="10" stroke-linecap="round"/>
<path d="M751.742 347.012C782.179 342.022 802.809 313.303 797.819 282.866C792.829 252.428 764.11 231.799 733.673 236.789C703.236 241.779 682.606 270.498 687.596 300.935C692.586 331.372 721.305 352.001 751.742 347.012Z" fill="white" stroke="#B28A35" stroke-width="2" stroke-miterlimit="10" stroke-linecap="round"/>
<path d="M781.558 307.666C790.28 286.238 779.981 261.797 758.553 253.074C737.126 244.351 712.684 254.651 703.962 276.078C695.239 297.506 705.538 321.948 726.966 330.67C748.394 339.393 772.835 329.093 781.558 307.666Z" fill="white" stroke="#B28A35" stroke-width="2" stroke-miterlimit="10" stroke-linecap="round"/>
<path d="M747.25 319.342C762.475 316.857 772.802 302.5 770.317 287.275C767.832 272.05 753.476 261.723 738.251 264.208C723.026 266.693 712.698 281.049 715.183 296.274C717.668 311.499 732.025 321.827 747.25 319.342Z" fill="white" stroke="#B28A35" stroke-width="2" stroke-miterlimit="10" stroke-linecap="round"/>
<path d="M668.593 348.859C684.02 348.859 696.525 336.354 696.525 320.927C696.525 305.501 684.02 292.995 668.593 292.995C653.167 292.995 640.661 305.501 640.661 320.927C640.661 336.354 653.167 348.859 668.593 348.859Z" fill="white" stroke="#B28A35" stroke-width="2" stroke-miterlimit="10" stroke-linecap="round"/>
<path d="M677.38 331.826C683.372 326.976 684.297 318.187 679.447 312.196C674.597 306.205 665.808 305.279 659.816 310.129C653.825 314.979 652.9 323.768 657.75 329.76C662.6 335.751 671.389 336.677 677.38 331.826Z" fill="white" stroke="#B28A35" stroke-width="2" stroke-miterlimit="10" stroke-linecap="round"/>
<path d="M372.45 348.859C387.876 348.859 400.382 336.354 400.382 320.927C400.382 305.501 387.876 292.995 372.45 292.995C357.023 292.995 344.518 305.501 344.518 320.927C344.518 336.354 357.023 348.859 372.45 348.859Z" fill="white" stroke="#B28A35" stroke-width="2" stroke-miterlimit="10" stroke-linecap="round"/>
<path d="M375.662 334.504C383.163 332.727 387.803 325.205 386.026 317.705C384.248 310.204 376.727 305.564 369.226 307.341C361.725 309.118 357.085 316.64 358.863 324.141C360.64 331.641 368.161 336.281 375.662 334.504Z" fill="white" stroke="#B28A35" stroke-width="2" stroke-miterlimit="10" stroke-linecap="round"/>
<path d="M520.522 348.859C535.948 348.859 548.454 336.353 548.454 320.927C548.454 305.5 535.948 292.995 520.522 292.995C505.095 292.995 492.59 305.5 492.59 320.927C492.59 336.353 505.095 348.859 520.522 348.859Z" fill="white" stroke="#B28A35" stroke-width="2" stroke-miterlimit="10" stroke-linecap="round"/>
<path d="M530.388 330.797C535.838 325.346 535.838 316.509 530.388 311.058C524.937 305.608 516.099 305.608 510.649 311.058C505.198 316.509 505.198 325.346 510.649 330.797C516.1 336.248 524.937 336.248 530.388 330.797Z" fill="white" stroke="#B28A35" stroke-width="2" stroke-miterlimit="10" stroke-linecap="round"/>
<path d="M224.36 348.843C239.786 348.843 252.292 336.337 252.292 320.91C252.292 305.484 239.786 292.979 224.36 292.979C208.933 292.979 196.428 305.484 196.428 320.91C196.428 336.337 208.933 348.843 224.36 348.843Z" fill="white" stroke="#B28A35" stroke-width="2" stroke-miterlimit="10" stroke-linecap="round"/>
<path d="M234.227 330.789C239.677 325.339 239.677 316.501 234.226 311.05C228.776 305.6 219.938 305.6 214.488 311.05C209.037 316.501 209.037 325.339 214.488 330.789C219.938 336.24 228.776 336.24 234.227 330.789Z" fill="white" stroke="#B28A35" stroke-width="2" stroke-miterlimit="10" stroke-linecap="round"/>
<path d="M76.2894 348.859C91.7158 348.859 104.221 336.354 104.221 320.927C104.221 305.501 91.7158 292.995 76.2894 292.995C60.863 292.995 48.3574 305.501 48.3574 320.927C48.3574 336.354 60.863 348.859 76.2894 348.859Z" fill="white" stroke="#B28A35" stroke-width="2" stroke-miterlimit="10" stroke-linecap="round"/>
<path d="M89.197 326.228C92.132 319.1 88.733 310.942 81.6051 308.007C74.4772 305.072 66.3196 308.471 63.3846 315.599C60.4496 322.727 63.8486 330.885 70.9765 333.82C78.1045 336.755 86.262 333.356 89.197 326.228Z" fill="white" stroke="#B28A35" stroke-width="2" stroke-miterlimit="10" stroke-linecap="round"/>
</g>
<defs>
<clipPath id="clip0_165_8524">
<rect width="720" height="360" fill="white"/>
</clipPath>
</defs>
</svg>
