<svg width="24" height="24" viewBox="0 0 24 24" fill="none" xmlns="http://www.w3.org/2000/svg">
<g clip-path="url(#clip0_74_13869)">
<path d="M12 0C5.3728 0 0 5.39564 0 12.051C0 17.9705 4.2496 22.8921 9.8512 23.9092V14.8308H6.7448V11.2179H9.8512V8.55301C9.8512 5.46072 11.732 3.77679 14.4784 3.77679C15.7944 3.77679 16.9248 3.8748 17.2544 3.91899V7.15027H15.3488C13.8552 7.15107 13.5656 7.86369 13.5656 8.91052V11.2171H17.1288L16.6648 14.83H13.5656V23.9992C19.4528 23.2279 23.9984 18.1729 23.9984 12.0502C24 5.39564 18.6272 0 12 0Z" fill="#B28A36"/>
</g>
<defs>
<clipPath id="clip0_74_13869">
<rect width="24" height="24" fill="white"/>
</clipPath>
</defs>
</svg>
