<svg width="24" height="24" viewBox="0 0 24 24" fill="none" xmlns="http://www.w3.org/2000/svg">
<path d="M16.8 22.2V24H7.2V22.2H16.8ZM22.2 16.8V7.2C22.2 4.21766 19.7823 1.8 16.8 1.8H7.2C4.21766 1.8 1.8 4.21766 1.8 7.2V16.8C1.8 19.7823 4.21766 22.2 7.2 22.2V24C3.28565 24 0.100864 20.8764 0.00234375 16.9857L0 16.8V7.2C1.54627e-07 3.22355 3.22355 1.54622e-07 7.2 0H16.8L16.9857 0.00234375C20.8764 0.100864 24 3.28565 24 7.2V16.8L23.9977 16.9857C23.9007 20.8146 20.8146 23.9007 16.9857 23.9977L16.8 24V22.2C19.7823 22.2 22.2 19.7823 22.2 16.8Z" fill="white"/>
<path d="M16.1275 11.9279C16.1275 9.64833 14.2798 7.80012 12.0002 7.8C9.72052 7.8 7.87227 9.64826 7.87227 11.9279C7.87238 14.2075 9.7206 16.0553 12.0002 16.0553V17.8553L11.6949 17.8477C8.66389 17.694 6.23346 15.2637 6.07988 12.2326L6.07227 11.9279C6.07227 8.65415 8.72641 6 12.0002 6L12.3049 6.00762C15.437 6.16631 17.9275 8.7564 17.9275 11.9279L17.9199 12.2326C17.7612 15.3646 15.1716 17.8552 12.0002 17.8553V16.0553C14.2797 16.0552 16.1274 14.2074 16.1275 11.9279Z" fill="white"/>
<path d="M19.7999 5.39922C19.7999 6.06196 19.2626 6.59922 18.5999 6.59922C17.9372 6.59922 17.3999 6.06196 17.3999 5.39922C17.3999 4.73648 17.9372 4.19922 18.5999 4.19922C19.2626 4.19922 19.7999 4.73648 19.7999 5.39922Z" fill="white"/>
</svg>
