<svg width="355" height="336" viewBox="0 0 355 336" fill="none" xmlns="http://www.w3.org/2000/svg">
<path d="M58.6108 304.158H61.6469V316.164H61.7448L71.7343 304.158H75.1295L67.6537 313.26L76.3047 328.072H72.9096L65.7602 315.609L61.6469 320.503V328.072H58.6108V304.158Z" fill="#B28A36"/>
<path d="M76.5332 319.231C76.5332 313.489 80.418 309.9 84.5314 309.9C89.0364 309.9 91.5828 313.162 91.5828 318.219C91.5828 318.872 91.5175 319.492 91.4522 319.916H79.5039C79.6998 323.7 82.0177 326.114 85.3801 326.114C87.1104 326.114 88.5141 325.592 89.8199 324.712L90.8972 326.669C89.3303 327.681 87.4368 328.496 85.021 328.496C80.3201 328.496 76.5332 325.07 76.5332 319.231ZM88.9712 317.795C88.9712 314.206 87.3389 312.282 84.564 312.282C82.0503 312.282 79.8304 314.304 79.4713 317.795H88.9712Z" fill="#B28A36"/>
<path d="M94.6514 310.357H97.0998L97.3609 312.901H97.4589C99.1565 311.238 100.985 309.9 103.4 309.9C107.122 309.9 108.82 312.314 108.82 316.849V328.072H105.849V317.241C105.849 313.913 104.837 312.51 102.486 312.51C100.658 312.51 99.4176 313.423 97.6221 315.218V328.072H94.6514V310.357Z" fill="#B28A36"/>
<path d="M111.301 326.049L112.77 324.092C114.304 325.332 115.904 326.18 118.026 326.18C120.376 326.18 121.519 324.94 121.519 323.407C121.519 321.612 119.43 320.797 117.471 320.046C114.99 319.133 112.182 317.926 112.182 314.924C112.182 312.118 114.435 309.9 118.287 309.9C120.474 309.9 122.4 310.813 123.804 311.89L122.368 313.815C121.127 312.901 119.887 312.249 118.287 312.249C116.067 312.249 115.055 313.423 115.055 314.794C115.055 316.49 116.981 317.11 118.972 317.86C121.551 318.839 124.392 319.883 124.392 323.244C124.392 326.115 122.106 328.496 117.928 328.496C115.414 328.496 112.998 327.452 111.301 326.049Z" fill="#B28A36"/>
<path d="M127.265 302.103H130.235V309.215L130.137 312.869C131.77 311.238 133.598 309.9 136.014 309.9C139.735 309.9 141.433 312.314 141.433 316.849V328.072H138.462V317.241C138.462 313.913 137.45 312.51 135.1 312.51C133.271 312.51 132.031 313.423 130.235 315.218V328.072H127.265V302.103Z" fill="#B28A36"/>
<path d="M145.22 304.778C145.22 303.571 146.101 302.853 147.276 302.853C148.452 302.853 149.333 303.571 149.333 304.778C149.333 305.887 148.452 306.703 147.276 306.703C146.101 306.703 145.22 305.887 145.22 304.778ZM145.775 310.357H148.745V328.072H145.775V310.357Z" fill="#B28A36"/>
<path d="M153.446 310.357H155.895L156.156 312.901H156.254C157.951 311.238 159.78 309.9 162.195 309.9C165.917 309.9 167.614 312.314 167.614 316.849V328.072H164.644V317.241C164.644 313.913 163.632 312.51 161.281 312.51C159.453 312.51 158.213 313.423 156.417 315.218V328.072H153.446V310.357Z" fill="#B28A36"/>
<path d="M172.087 302.103H175.025V319.72H175.09L182.697 310.357H185.994L180.052 317.469L186.777 328.072H183.546L178.355 319.524L175.025 323.407V328.072H172.087V302.103Z" fill="#B28A36"/>
<path d="M187.332 323.472C187.332 319.622 190.695 317.697 198.236 316.849C198.236 314.565 197.485 312.379 194.579 312.379C192.523 312.379 190.662 313.326 189.258 314.272L188.083 312.216C189.715 311.172 192.229 309.9 195.069 309.9C199.378 309.9 201.206 312.804 201.206 317.175V328.072H198.758L198.497 325.951H198.399C196.701 327.354 194.71 328.496 192.523 328.496C189.552 328.496 187.332 326.669 187.332 323.472ZM198.236 323.765V318.807C192.262 319.524 190.237 320.992 190.237 323.276C190.237 325.299 191.609 326.114 193.371 326.114C195.134 326.114 196.505 325.299 198.236 323.765Z" fill="#B28A36"/>
<path d="M205.548 310.357H207.997L208.258 312.901H208.356C210.053 311.238 211.882 309.9 214.297 309.9C218.019 309.9 219.717 312.314 219.717 316.849V328.072H216.746V317.241C216.746 313.913 215.734 312.51 213.383 312.51C211.555 312.51 210.315 313.423 208.519 315.218V328.072H205.548V310.357Z" fill="#B28A36"/>
<path d="M230.457 304.158H236.464C243.809 304.158 247.759 308.432 247.759 316.033C247.759 323.635 243.809 328.072 236.594 328.072H230.457V304.158ZM236.203 325.592C241.85 325.592 244.625 322.069 244.625 316.033C244.625 309.998 241.85 306.605 236.203 306.605H233.493V325.592H236.203Z" fill="#B28A36"/>
<path d="M249.979 319.231C249.979 313.326 253.864 309.9 258.206 309.9C262.548 309.9 266.432 313.326 266.432 319.231C266.432 325.136 262.548 328.496 258.206 328.496C253.864 328.496 249.979 325.103 249.979 319.231ZM263.364 319.231C263.364 315.153 261.274 312.379 258.206 312.379C255.137 312.379 253.08 315.153 253.08 319.231C253.08 323.309 255.137 326.017 258.206 326.017C261.274 326.017 263.364 323.309 263.364 319.231Z" fill="#B28A36"/>
<path d="M265.351 335.543L265.939 333.259C266.396 333.423 266.983 333.586 267.604 333.586C269.399 333.586 269.823 332.248 269.823 330.095V310.357H272.794V330.095C272.794 333.716 271.456 336 267.963 336C266.885 336 265.971 335.772 265.351 335.543ZM269.273 304.778C269.273 303.571 270.154 302.853 271.329 302.853C272.505 302.853 273.386 303.571 273.386 304.778C273.386 305.887 272.472 306.703 271.329 306.703C270.187 306.703 269.273 305.887 269.273 304.778Z" fill="#B28A36"/>
<path d="M276.128 319.231C276.128 313.326 280.013 309.9 284.355 309.9C288.696 309.9 292.581 313.326 292.581 319.231C292.581 325.136 288.696 328.496 284.355 328.496C280.013 328.496 276.128 325.103 276.128 319.231ZM289.513 319.231C289.513 315.153 287.423 312.379 284.355 312.379C281.286 312.379 279.229 315.153 279.229 319.231C279.229 323.309 281.286 326.017 284.355 326.017C287.423 326.017 289.513 323.309 289.513 319.231Z" fill="#B28A36"/>
<path d="M15.8249 254.886C6.34548 254.886 0 249.482 0 241.183C0 232.884 5.48445 227.872 13.8662 227.167C14.0213 226.775 14.1804 226.384 14.1804 226.07C14.1804 225.287 13.9437 224.426 12.8501 223.643C12.8501 221.841 18.7263 223.643 18.7263 224.581C18.7263 225.05 18.1795 226.302 17.8653 227.167C26.1695 227.872 31.6539 233.194 31.6539 241.183C31.6539 249.172 25.3085 254.886 15.829 254.886H15.8249ZM15.8249 251.285C21.8562 251.285 25.9328 247.292 25.9328 241.106C25.9328 234.919 21.8603 230.69 15.8249 230.69C9.78959 230.69 5.71705 234.683 5.71705 241.106C5.71705 247.529 9.78959 251.285 15.8249 251.285ZM60.6432 283.857C60.6432 284.248 60.329 284.485 59.7046 284.485H27.8956C20.4524 284.485 18.963 281.981 18.963 276.577V268.119C18.963 267.259 15.2822 265.615 13.7927 265.142C13.3235 264.987 14.5762 262.871 15.1231 262.871C16.6125 262.871 21.1543 263.417 23.5048 264.2C23.9741 264.355 24.68 264.592 24.525 265.611C24.3699 266.708 24.1332 268.352 24.1332 269.763V277.829C24.1332 280.57 25.0718 280.884 27.4223 280.884L48.8908 280.806C50.4578 280.806 55.1587 278.066 55.7056 278.066C56.6441 278.066 60.6432 282.136 60.6432 283.861V283.857ZM50.9271 246.114V234.683H44.8142C42.072 234.683 40.3499 235.388 38.6238 236.249C36.665 235.78 33.9228 232.803 33.4535 232.334C33.1393 232.02 33.6086 231.004 33.8453 231.004C36.665 231.004 38.7013 231.241 43.794 231.241H50.923V220.826C50.923 219.965 45.9853 217.225 44.1082 216.282C43.6389 216.046 45.0468 214.562 45.7527 214.562C48.1808 214.562 56.5666 216.364 56.4074 217.457C56.2524 218.631 56.0932 220.12 56.0932 221.686V256.998C56.0932 262.793 55.3097 266.394 54.6813 268.898C53.9753 269.681 52.4084 270.15 51.4698 269.918C51.1556 267.724 50.923 262.479 50.923 256.998V249.56H44.8101C42.0679 249.56 40.3458 250.265 38.6197 251.126C36.661 250.657 33.9187 247.68 33.4495 247.211C33.1352 246.897 33.6045 245.881 33.8412 245.881C36.661 245.881 38.6972 246.118 43.7899 246.118H50.9189L50.9271 246.114Z" fill="#B28A36"/>
<path d="M92.5298 238.051C85.2417 248.385 75.999 256.297 70.6696 258.801C69.8085 258.723 68.7108 257.626 68.6333 256.843C78.582 249.796 88.2982 236.877 92.9991 226.461C93.3909 225.601 89.9427 223.093 88.5348 222.31C88.5348 221.841 89.3959 221.135 89.7876 220.744C90.416 220.116 97.2308 222.546 98.8753 223.639C99.3446 223.953 100.287 224.108 99.8955 225.05C98.406 228.651 96.5248 232.097 94.3335 235.384C100.524 239.927 108.906 245.718 110.24 247.676C111.26 249.164 109.065 255.114 108.281 254.095C105.694 250.726 98.1734 243.288 92.5339 238.043L92.5298 238.051ZM125.122 279.473C126.375 280.333 128.179 282.291 128.179 283.543C128.179 283.934 127.865 284.171 127.24 284.171C126.379 284.171 123.086 284.093 119.014 284.093H96.684L96.4473 286.206C95.7414 286.989 93.8602 287.144 92.8441 286.911C92.5298 284.799 92.2972 280.647 91.983 275.713L91.4362 265.925C91.3587 264.987 88.8491 263.89 87.3637 263.34C87.2862 262.871 87.9921 261.382 88.6165 261.382C90.1059 261.382 93.7092 261.619 96.1372 262.243H116.9C119.405 262.243 120.74 262.088 121.678 261.223C122.698 260.832 127.318 261.692 127.163 262.789L125.126 279.469L125.122 279.473ZM96.9166 280.488H120.736L121.597 265.848H96.9166V280.488ZM116.818 214.562C119.246 214.562 127.632 216.364 127.473 217.457C127.318 218.631 127.159 220.12 127.159 221.686V245.253C127.159 251.048 126.375 254.649 125.747 257.153C125.041 257.936 123.474 258.405 122.535 258.173C122.221 255.979 121.988 250.734 121.988 245.253V220.826C121.988 219.965 117.051 217.225 115.174 216.282C114.704 216.046 116.112 214.562 116.818 214.562Z" fill="#B28A36"/>
<path d="M187.488 253.867C179.575 255.824 160.457 258.956 153.251 259.817C150.508 260.131 148.786 260.522 147.138 261.538C144.004 261.146 140.164 258.406 139.303 257.309C139.066 256.994 139.539 255.897 139.85 255.897C142.747 255.897 146.587 256.052 151.68 255.743C153.561 255.665 155.911 255.428 158.494 255.114V243.998C158.494 243.06 155.989 241.804 154.108 240.866C153.638 240.629 155.046 239.145 155.752 239.145C158.18 239.145 163.901 240.397 163.824 241.494L163.354 254.568C172.911 253.394 184.039 251.673 188.034 250.498C188.818 250.262 188.426 253.63 187.488 253.867ZM145.101 226.384C144.71 225.993 145.338 224.973 145.648 225.055C148.468 225.76 151.994 225.601 157.086 225.601H170.643C173.148 225.601 174.482 225.446 175.421 224.582C176.441 224.19 181.534 225.051 181.375 226.148C180.199 234.447 178.788 242.199 177.066 247.289C176.751 248.227 173.071 248.618 173.226 247.835C174.556 241.102 175.184 235.307 175.339 229.198H158.417C155.675 229.198 153.952 229.904 152.226 230.764C149.092 230.295 145.567 226.849 145.097 226.38L145.101 226.384ZM203.157 284.563C203.157 284.954 202.843 285.191 202.219 285.191H169.549C162.106 285.191 160.616 282.687 160.616 277.283V270.55C160.616 269.69 156.935 268.046 155.446 267.573C154.977 267.418 156.229 265.302 156.776 265.302C158.266 265.302 162.808 265.848 165.158 266.631C165.627 266.786 166.333 267.023 166.178 268.042C166.023 269.139 165.786 270.783 165.786 272.194V278.535C165.786 281.276 166.725 281.59 169.076 281.59L191.405 281.512C192.972 281.512 197.673 278.772 198.22 278.772C199.158 278.772 203.157 282.842 203.157 284.567V284.563ZM209.115 244.002C210.135 243.765 212.878 249.405 211.311 249.405C210.058 249.405 206.61 249.169 196.894 249.169V259.034C196.894 264.829 196.11 268.43 195.482 270.933C194.776 271.716 193.209 272.185 192.27 271.953C191.956 269.759 191.723 264.515 191.723 259.034V220.822C191.723 219.961 186.786 217.221 184.909 216.279C184.439 216.042 185.847 214.558 186.553 214.558C188.981 214.558 197.367 216.36 197.208 217.453C197.053 218.628 196.894 220.116 196.894 221.682V246.893L209.115 243.998V244.002Z" fill="#B28A36"/>
<path d="M281.274 274.853C281.274 275.244 280.96 275.481 280.336 275.481H225.022C223.063 275.481 221.259 276.419 219.615 277.124C216.481 276.578 212.563 273.446 212.249 272.581C212.172 272.345 212.563 271.329 212.878 271.407C214.367 271.798 219.692 271.876 224.785 271.876H244.527V259.503C244.527 258.565 242.022 257.309 240.141 256.371C239.671 256.134 241.079 254.65 241.785 254.65C244.213 254.65 249.857 255.902 249.857 256.999L249.388 271.876H268.975C270.542 271.876 275.243 269.135 275.79 269.135C276.728 269.135 281.274 273.128 281.274 274.853ZM225.332 228.811C225.332 227.95 222.745 226.698 221.178 226.148C221.1 225.679 221.806 224.19 222.508 224.19C224.153 224.19 228.229 224.504 230.657 225.287H256.827C258.394 225.287 263.095 222.547 263.641 222.547C264.58 222.547 269.126 226.539 269.126 228.264C269.126 228.656 268.812 228.892 268.187 228.892H230.657V244.316C230.657 247.37 231.91 247.525 234.338 247.525H258.471C260.038 247.525 264.033 245.254 264.584 245.254C265.604 245.254 269.754 248.777 269.754 250.498C269.754 250.89 269.44 251.126 268.734 251.126H232.93C226.976 251.126 225.565 249.014 225.487 244.393L225.332 228.811Z" fill="#B28A36"/>
<path d="M287.228 261.619C286.289 261.072 285.269 260.13 285.191 259.115C296.315 252.068 307.913 241.497 315.593 229.206H302.351C300.392 229.206 298.588 230.144 296.944 230.85C293.81 230.303 289.892 227.171 289.578 226.306C289.501 226.07 289.892 225.055 290.207 225.132C291.696 225.523 297.021 225.601 302.114 225.601H313.16C315.98 225.601 317.315 224.895 318.253 224.035C320.057 224.112 324.284 225.364 323.66 226.461C320.681 231.628 317.237 236.326 313.552 240.478C319.114 244.079 324.835 247.839 326.635 249.637C328.047 251.048 325.774 256.762 324.913 255.824C321.934 252.537 317 247.525 311.516 242.668C302.742 252.064 293.181 258.483 287.228 261.615V261.619ZM339.954 274.461C339.954 281.899 333.531 286.911 323.893 286.911C314.254 286.911 307.676 281.899 307.676 274.461C307.676 267.414 313.397 262.561 322.171 262.01C322.248 261.696 322.326 261.464 322.326 261.227C322.326 260.444 322.089 259.584 320.995 258.801C320.995 256.998 326.872 258.801 326.872 259.739C326.872 260.13 326.402 261.15 326.088 262.01C334.47 262.716 339.954 267.569 339.954 274.461ZM334.47 274.224C334.47 268.98 330.161 265.456 323.738 265.456C317.315 265.456 313.16 268.98 313.16 274.224C313.16 279.469 317.315 283.074 323.583 283.074C329.851 283.074 334.474 279.55 334.474 274.224H334.47ZM352.335 237.191C353.355 236.954 356.098 243.377 354.531 243.377L339.567 243.141V247.602C339.567 253.397 338.783 256.998 338.155 259.502C337.449 260.285 335.882 260.754 334.943 260.522C334.629 258.328 334.396 253.083 334.396 247.602V220.826C334.396 219.965 329.459 217.225 327.582 216.282C327.112 216.046 328.52 214.562 329.226 214.562C331.654 214.562 340.04 216.364 339.881 217.457C339.726 218.631 339.567 220.12 339.567 221.686V240.164L352.339 237.187L352.335 237.191Z" fill="#B28A36"/>
<path d="M142.841 78.4221H137.099V91.3375H142.841V78.4221Z" fill="#B28A36"/>
<path d="M206.263 11.0353C205.443 10.9823 204.659 10.603 204.198 9.92198C201.835 6.46374 190.74 -0.00415039 174.797 -0.00415039C158.853 -0.00415039 147.758 6.46374 145.395 9.92198C144.93 10.599 144.151 10.9823 143.33 11.0353C110.868 13.1315 85.1846 40.1041 85.1846 73.0757V122.723C85.1846 155.829 111.077 182.887 143.726 184.788C144.363 184.824 144.95 185.159 145.285 185.697C147.383 189.106 158.58 195.798 174.801 195.798C191.021 195.798 202.219 189.106 204.316 185.697C204.651 185.155 205.239 184.824 205.875 184.788C238.525 182.887 264.417 155.829 264.417 122.723V73.0757C264.417 40.1041 238.733 13.1315 206.271 11.0353H206.263ZM102.809 101.211C105.311 97.8625 107.31 94.2289 108.8 90.3098C110.289 86.3907 111.256 82.4268 111.697 78.418H105.649C105.086 78.418 104.535 78.2263 104.119 77.8471C103.613 77.3862 103.36 76.8398 103.36 76.2077C103.36 75.5756 103.58 75.0576 104.021 74.6335C104.462 74.2094 104.996 73.9973 105.621 73.9973H124.008C124.633 73.9973 125.159 74.2094 125.583 74.6335C126.008 75.0576 126.22 75.5796 126.22 76.2077C126.22 76.7949 126.008 77.3128 125.583 77.7533C125.159 78.1937 124.637 78.4139 124.008 78.4139H116.333C116.112 80.5101 115.769 82.5614 115.312 84.5678C114.851 86.5742 114.292 88.5521 113.627 90.5015C114.513 90.2812 115.561 90.1711 116.773 90.1711C119.426 90.1711 121.319 90.685 122.462 91.7167C123.604 92.7485 124.172 94.6244 124.172 97.3445V107.499C124.172 110.187 123.6 112.042 122.462 113.074C121.319 114.106 119.426 114.619 116.773 114.619C114.121 114.619 112.227 114.106 111.085 113.074C109.942 112.046 109.375 110.187 109.375 107.499V99.8281C109.008 100.489 108.612 101.154 108.187 101.814C107.763 102.475 107.314 103.14 106.833 103.8C106.465 104.351 105.931 104.685 105.233 104.795C104.531 104.905 103.907 104.779 103.356 104.408C102.842 104.078 102.528 103.58 102.417 102.919C102.307 102.259 102.434 101.688 102.805 101.207L102.809 101.211ZM129.036 78.4221C128.481 78.4221 127.934 78.2223 127.526 77.8471C126.983 77.3495 126.734 76.7541 126.779 76.0609C126.812 75.5103 127.048 75.0046 127.436 74.6131C127.877 74.1727 128.411 73.9525 129.036 73.9525H151.292C151.916 73.9525 152.443 74.1727 152.867 74.6131C153.291 75.0536 153.504 75.5878 153.504 76.2118C153.504 76.799 153.291 77.3169 152.867 77.7574C152.443 78.1978 151.92 78.418 151.292 78.418H147.701V91.3334H152.504C153.128 91.3334 153.663 91.5536 154.107 91.9941C154.548 92.4345 154.769 92.9687 154.769 93.5968C154.769 94.2248 154.548 94.7549 154.107 95.1954C153.667 95.6358 153.132 95.856 152.504 95.856H147.701V119.476C147.701 120.174 147.46 120.745 146.983 121.189C146.505 121.63 145.934 121.85 145.269 121.85C144.604 121.85 144.036 121.63 143.559 121.189C143.077 120.749 142.841 120.178 142.841 119.476V95.856H137.099C137.062 99.718 136.675 103.152 135.94 106.149C135.202 109.147 134.071 111.826 132.545 114.179C131.015 116.532 129.003 118.685 126.498 120.635C125.91 121.075 125.245 121.316 124.51 121.352C123.776 121.389 123.147 121.112 122.633 120.525C122.192 120.011 121.997 119.428 122.054 118.787C122.107 118.143 122.413 117.617 122.964 117.213C125.135 115.631 126.902 113.857 128.264 111.887C129.627 109.917 130.639 107.63 131.3 105.015C131.962 102.405 132.313 99.351 132.349 95.856H127.652C127.024 95.856 126.412 95.6195 125.975 95.1709C125.543 94.7305 125.33 94.1962 125.335 93.5723C125.339 92.9769 125.575 92.4141 126 91.9941C126.44 91.5536 126.975 91.3334 127.599 91.3334H132.349V78.418H129.036V78.4221ZM162.04 172.133C162.04 173.389 160.922 174.364 159.682 174.164C156.915 173.719 151.977 172.182 146.228 167.007C145.775 166.599 145.167 166.416 144.563 166.501C141.474 166.946 131.113 167.57 119.805 158.545C111.236 151.706 105.413 140.042 103.046 134.663C102.45 133.309 103.45 131.788 104.931 131.788H144.359C145.187 131.788 145.938 132.282 146.256 133.048C146.921 134.663 148.492 137.575 151.879 140.226C155.332 142.926 158.841 144.426 160.698 145.099C161.51 145.393 162.049 146.164 162.049 147.028V172.133H162.04ZM162.04 48.0075C162.04 48.8721 161.502 49.6428 160.69 49.9365C158.833 50.6093 155.324 52.1101 151.871 54.8098C148.505 57.4443 146.934 60.3397 146.26 61.9587C145.938 62.7336 145.191 63.2474 144.355 63.2474H104.923C103.442 63.2474 102.446 61.7263 103.042 60.3723C105.408 54.9933 111.232 43.3299 119.801 36.4909C131.113 27.462 141.47 28.0859 144.559 28.5345C145.163 28.6201 145.771 28.4366 146.224 28.0288C151.973 22.8578 156.915 21.3162 159.678 20.8717C160.918 20.6719 162.036 21.6466 162.036 22.9026V48.0075H162.04ZM182.717 129.925H166.876C166.656 129.925 166.476 129.745 166.476 129.525V104.094C166.476 103.331 166.537 102.573 166.656 101.822L174.189 66.2C174.266 65.7677 174.89 65.7636 174.972 66.2L182.811 101.782C182.946 102.56 183.015 103.352 183.019 104.147L183.113 129.525C183.113 129.745 182.934 129.925 182.713 129.925H182.717ZM246.482 134.667C244.115 140.051 238.292 151.71 229.723 158.549C218.411 167.578 208.054 166.954 204.965 166.505C204.361 166.42 203.753 166.603 203.304 167.011C197.555 172.182 192.613 173.724 189.846 174.168C188.606 174.368 187.488 173.389 187.488 172.133V147.028C187.488 146.164 188.026 145.393 188.838 145.099C190.695 144.426 194.204 142.926 197.657 140.226C201.04 137.579 202.611 134.667 203.276 133.048C203.59 132.282 204.345 131.784 205.177 131.784H244.601C246.082 131.784 247.082 133.305 246.486 134.663L246.482 134.667ZM194.364 108.392C195.294 107.05 196.196 105.562 197.073 103.927C197.946 102.287 198.75 100.623 199.477 98.9309C200.203 97.2385 200.807 95.6644 201.293 94.2126C201.554 93.4663 202.027 92.985 202.717 92.7607C203.406 92.5364 204.088 92.5568 204.757 92.8178C205.426 93.0788 205.892 93.5274 206.153 94.1595C206.414 94.7916 206.414 95.4645 206.153 96.1701C205.63 97.6586 204.998 99.2776 204.251 101.027C203.504 102.777 202.684 104.51 201.79 106.219C200.897 107.931 199.966 109.493 198.995 110.908C198.583 111.504 198.016 111.903 197.289 112.107C196.563 112.311 195.865 112.23 195.196 111.854C194.563 111.52 194.172 111.01 194.025 110.317C193.874 109.628 193.988 108.988 194.359 108.392H194.364ZM214.424 87.7324C215.167 87.7324 215.783 87.9649 216.269 88.4298C216.754 88.8947 216.995 89.5186 216.995 90.3016V111.41C216.995 112.862 217.199 113.979 217.611 114.762C218.019 115.545 218.758 116.083 219.819 116.381C220.88 116.679 222.398 116.83 224.373 116.83C226.234 116.83 227.67 116.707 228.674 116.467C229.678 116.226 230.453 115.712 230.992 114.929C231.531 114.146 231.988 112.956 232.359 111.357C232.583 110.574 233.057 110.036 233.783 109.738C234.509 109.44 235.228 109.424 235.934 109.681C236.676 109.942 237.182 110.362 237.443 110.937C237.705 111.516 237.741 112.177 237.554 112.919C237.031 115.264 236.289 117.079 235.317 118.363C234.35 119.648 232.971 120.549 231.184 121.071C229.396 121.593 227.03 121.854 224.087 121.854C220.957 121.854 218.501 121.564 216.709 120.989C214.922 120.41 213.653 119.399 212.91 117.947C212.164 116.495 211.792 114.485 211.792 111.916V90.3057C211.792 89.5227 212.045 88.9028 212.547 88.4339C213.049 87.969 213.673 87.7365 214.42 87.7365L214.424 87.7324ZM213.196 75.2779C213.567 74.6458 214.081 74.2339 214.734 74.0503C215.387 73.8628 216.048 73.9402 216.718 74.2746C217.799 74.7966 219.019 75.4736 220.378 76.3137C221.737 77.1538 223.108 78.0184 224.483 78.9115C225.862 79.8046 227.091 80.661 228.172 81.4807C228.805 81.9293 229.188 82.4961 229.319 83.1853C229.449 83.8745 229.29 84.5352 228.845 85.1673C228.474 85.7627 227.895 86.1542 227.115 86.3377C226.332 86.5253 225.642 86.3744 225.046 85.8932C224.079 85.1102 222.932 84.266 221.61 83.3525C220.288 82.439 218.958 81.5582 217.615 80.6977C216.273 79.8413 215.081 79.1521 214.041 78.6301C213.408 78.2957 213.025 77.7859 212.894 77.0926C212.763 76.4034 212.865 75.7999 213.2 75.2779H213.196ZM230.91 93.5111C230.947 92.8219 231.208 92.2387 231.694 91.7534C232.216 91.2682 232.84 91.0194 233.567 90.999C234.293 90.9827 234.917 91.2315 235.44 91.7534C236.705 92.9443 237.99 94.2574 239.296 95.6888C240.598 97.1243 241.83 98.5557 242.985 99.9872C244.14 101.423 245.127 102.752 245.948 103.98C246.429 104.648 246.625 105.358 246.535 106.1C246.441 106.847 246.078 107.458 245.446 107.944C244.813 108.429 244.095 108.604 243.295 108.474C242.495 108.343 241.887 107.96 241.479 107.328C240.696 106.064 239.737 104.693 238.602 103.225C237.464 101.753 236.285 100.313 235.056 98.8983C233.828 97.4832 232.673 96.272 231.592 95.2688C231.106 94.7835 230.886 94.2003 230.923 93.507L230.91 93.5111ZM244.662 63.6593H205.235C204.394 63.6593 203.647 63.1455 203.329 62.3706C202.66 60.7475 201.084 57.8562 197.718 55.2217C194.266 52.522 190.756 51.0212 188.899 50.3483C188.087 50.0547 187.549 49.284 187.549 48.4194V23.3145C187.549 22.0462 188.687 21.0838 189.94 21.2877C192.711 21.7363 197.632 23.286 203.357 28.4326C203.81 28.8404 204.418 29.032 205.022 28.9423C208.111 28.4978 218.472 27.8698 229.784 36.8987C238.353 43.7377 244.173 55.397 246.543 60.7802C247.139 62.1382 246.143 63.6593 244.658 63.6593H244.662Z" fill="#B28A36"/>
<path d="M116.724 110.207C117.794 110.207 118.536 110.015 118.961 109.628C119.385 109.24 119.597 108.515 119.597 107.45V97.4057C119.597 96.3006 119.385 95.5665 118.961 95.1995C118.536 94.8324 117.794 94.6489 116.724 94.6489C115.655 94.6489 114.908 94.8324 114.488 95.1995C114.064 95.5665 113.852 96.3046 113.852 97.4057V107.45C113.852 108.519 114.064 109.245 114.488 109.628C114.908 110.015 115.655 110.207 116.724 110.207Z" fill="#B28A36"/>
</svg>
