<svg width="220" height="209" viewBox="0 0 220 209" fill="none" xmlns="http://www.w3.org/2000/svg">
<path d="M36.3218 188.492H38.2032V195.932H38.2639L44.4546 188.492H46.5586L41.9257 194.133L47.2869 203.312H45.1829L40.7523 195.589L38.2032 198.621V203.312H36.3218V188.492Z" fill="white"/>
<path d="M47.4287 197.833C47.4287 194.275 49.8362 192.051 52.3853 192.051C55.1771 192.051 56.7551 194.073 56.7551 197.206C56.7551 197.611 56.7147 197.995 56.6742 198.258H49.2697C49.3911 200.603 50.8275 202.099 52.9113 202.099C53.9835 202.099 54.8534 201.776 55.6627 201.23L56.3303 202.443C55.3592 203.07 54.1858 203.575 52.6887 203.575C49.7755 203.575 47.4287 201.452 47.4287 197.833ZM55.1367 196.944C55.1367 194.72 54.1251 193.527 52.4055 193.527C50.8477 193.527 49.472 194.78 49.2495 196.944H55.1367Z" fill="white"/>
<path d="M58.6567 192.334H60.1741L60.3359 193.911H60.3966C61.4486 192.88 62.5815 192.051 64.0786 192.051C66.3849 192.051 67.4369 193.547 67.4369 196.357V203.312H65.5959V196.6C65.5959 194.538 64.9688 193.668 63.5121 193.668C62.3792 193.668 61.6104 194.234 60.4977 195.346V203.312H58.6567V192.334Z" fill="white"/>
<path d="M68.9741 202.059L69.8845 200.846C70.8354 201.614 71.8267 202.14 73.1417 202.14C74.5983 202.14 75.3064 201.371 75.3064 200.421C75.3064 199.309 74.0116 198.804 72.7977 198.339C71.2602 197.772 69.5204 197.024 69.5204 195.164C69.5204 193.426 70.9163 192.051 73.3035 192.051C74.659 192.051 75.8526 192.617 76.7225 193.284L75.8324 194.477C75.0636 193.911 74.2948 193.506 73.3035 193.506C71.9278 193.506 71.3007 194.234 71.3007 195.083C71.3007 196.135 72.4943 196.519 73.7284 196.984C75.3266 197.591 77.0867 198.238 77.0867 200.32C77.0867 202.099 75.6705 203.575 73.081 203.575C71.5232 203.575 70.0261 202.928 68.9741 202.059Z" fill="white"/>
<path d="M78.8672 187.219H80.7082V191.626L80.6475 193.891C81.659 192.88 82.792 192.051 84.2891 192.051C86.5954 192.051 87.6474 193.547 87.6474 196.357V203.312H85.8064V196.6C85.8064 194.538 85.1792 193.668 83.7226 193.668C82.5897 193.668 81.8209 194.234 80.7082 195.346V203.312H78.8672V187.219Z" fill="white"/>
<path d="M89.9941 188.876C89.9941 188.128 90.5404 187.684 91.2687 187.684C91.997 187.684 92.5432 188.128 92.5432 188.876C92.5432 189.564 91.997 190.069 91.2687 190.069C90.5404 190.069 89.9941 189.564 89.9941 188.876ZM90.3381 192.334H92.1791V203.312H90.3381V192.334Z" fill="white"/>
<path d="M95.0923 192.334H96.6096L96.7714 193.911H96.8321C97.8841 192.88 99.0171 192.051 100.514 192.051C102.82 192.051 103.872 193.547 103.872 196.357V203.312H102.031V196.6C102.031 194.538 101.404 193.668 99.9477 193.668C98.8148 193.668 98.046 194.234 96.9333 195.346V203.312H95.0923V192.334Z" fill="white"/>
<path d="M106.644 187.219H108.465V198.136H108.505L113.219 192.334H115.262L111.58 196.741L115.748 203.312H113.745L110.528 198.015L108.465 200.421V203.312H106.644V187.219Z" fill="white"/>
<path d="M116.092 200.461C116.092 198.076 118.176 196.883 122.849 196.357C122.849 194.942 122.384 193.587 120.583 193.587C119.308 193.587 118.155 194.174 117.285 194.76L116.557 193.486C117.569 192.839 119.126 192.051 120.887 192.051C123.557 192.051 124.69 193.85 124.69 196.559V203.312H123.173L123.011 201.998H122.95C121.898 202.867 120.664 203.575 119.308 203.575C117.467 203.575 116.092 202.443 116.092 200.461ZM122.849 200.643V197.57C119.147 198.015 117.892 198.925 117.892 200.34C117.892 201.594 118.742 202.099 119.834 202.099C120.927 202.099 121.777 201.594 122.849 200.643Z" fill="white"/>
<path d="M127.381 192.334H128.898L129.06 193.911H129.121C130.173 192.88 131.306 192.051 132.803 192.051C135.109 192.051 136.161 193.547 136.161 196.357V203.312H134.32V196.6C134.32 194.538 133.693 193.668 132.236 193.668C131.103 193.668 130.335 194.234 129.222 195.346V203.312H127.381V192.334Z" fill="white"/>
<path d="M142.817 188.492H146.539C151.091 188.492 153.539 191.141 153.539 195.852C153.539 200.562 151.091 203.312 146.62 203.312H142.817V188.492ZM146.378 201.775C149.877 201.775 151.597 199.592 151.597 195.852C151.597 192.111 149.877 190.009 146.378 190.009H144.698V201.775H146.378Z" fill="white"/>
<path d="M154.915 197.833C154.915 194.174 157.323 192.051 160.013 192.051C162.704 192.051 165.111 194.174 165.111 197.833C165.111 201.493 162.704 203.575 160.013 203.575C157.323 203.575 154.915 201.472 154.915 197.833ZM163.21 197.833C163.21 195.306 161.915 193.587 160.013 193.587C158.112 193.587 156.837 195.306 156.837 197.833C156.837 200.36 158.112 202.039 160.013 202.039C161.915 202.039 163.21 200.36 163.21 197.833Z" fill="white"/>
<path d="M164.441 207.942L164.805 206.527C165.088 206.628 165.452 206.729 165.837 206.729C166.95 206.729 167.213 205.9 167.213 204.566V192.334H169.054V204.566C169.054 206.81 168.224 208.225 166.059 208.225C165.392 208.225 164.825 208.084 164.441 207.942ZM166.871 188.876C166.871 188.128 167.417 187.684 168.146 187.684C168.874 187.684 169.42 188.128 169.42 188.876C169.42 189.564 168.854 190.069 168.146 190.069C167.438 190.069 166.871 189.564 166.871 188.876Z" fill="white"/>
<path d="M171.12 197.833C171.12 194.174 173.527 192.051 176.218 192.051C178.909 192.051 181.316 194.174 181.316 197.833C181.316 201.493 178.909 203.575 176.218 203.575C173.527 203.575 171.12 201.472 171.12 197.833ZM179.414 197.833C179.414 195.306 178.12 193.587 176.218 193.587C174.316 193.587 173.042 195.306 173.042 197.833C173.042 200.36 174.316 202.039 176.218 202.039C178.12 202.039 179.414 200.36 179.414 197.833Z" fill="white"/>
<path d="M9.8069 157.958C3.93237 157.958 0 154.61 0 149.467C0 144.324 3.39878 141.218 8.59305 140.78C8.68914 140.538 8.78777 140.295 8.78777 140.101C8.78777 139.615 8.6411 139.082 7.96336 138.597C7.96336 137.48 11.6049 138.597 11.6049 139.178C11.6049 139.469 11.266 140.245 11.0713 140.78C16.2175 141.218 19.6163 144.516 19.6163 149.467C19.6163 154.418 15.684 157.958 9.80943 157.958H9.8069ZM9.8069 155.727C13.5445 155.727 16.0709 153.252 16.0709 149.419C16.0709 145.585 13.5471 142.964 9.8069 142.964C6.06672 142.964 3.54292 145.438 3.54292 149.419C3.54292 153.399 6.06672 155.727 9.8069 155.727ZM37.5813 175.912C37.5813 176.154 37.3866 176.301 36.9997 176.301H17.2872C12.6746 176.301 11.7516 174.749 11.7516 171.401V166.159C11.7516 165.626 9.47056 164.607 8.54753 164.314C8.25671 164.218 9.03307 162.907 9.37193 162.907C10.295 162.907 13.1096 163.245 14.5662 163.731C14.857 163.827 15.2945 163.973 15.1984 164.605C15.1023 165.285 14.9556 166.303 14.9556 167.178V172.177C14.9556 173.875 15.5373 174.07 16.9939 174.07L30.2982 174.021C31.2693 174.021 34.1825 172.323 34.5214 172.323C35.103 172.323 37.5813 174.845 37.5813 175.914V175.912ZM31.5601 152.522V145.438H27.7719C26.0725 145.438 25.0053 145.875 23.9356 146.409C22.7218 146.118 21.0224 144.273 20.7315 143.983C20.5368 143.788 20.8276 143.159 20.9743 143.159C22.7218 143.159 23.9837 143.305 27.1397 143.305H31.5576V136.851C31.5576 136.317 28.4977 134.619 27.3344 134.035C27.0436 133.889 27.916 132.969 28.3535 132.969C29.8582 132.969 35.055 134.086 34.9564 134.763C34.8603 135.491 34.7616 136.413 34.7616 137.384V159.267C34.7616 162.859 34.2761 165.09 33.8866 166.642C33.4492 167.127 32.4781 167.418 31.8964 167.274C31.7017 165.914 31.5576 162.664 31.5576 159.267V154.658H27.7693C26.07 154.658 25.0028 155.095 23.9331 155.628C22.7192 155.337 21.0198 153.493 20.729 153.202C20.5343 153.007 20.8251 152.378 20.9718 152.378C22.7192 152.378 23.9811 152.525 27.1371 152.525H31.555L31.5601 152.522Z" fill="white"/>
<path d="M57.3417 147.526C52.8251 153.93 47.0973 158.833 43.7946 160.384C43.261 160.336 42.5808 159.657 42.5327 159.171C48.6981 154.804 54.7193 146.798 57.6325 140.343C57.8753 139.81 55.7384 138.256 54.8659 137.771C54.8659 137.48 55.3995 137.043 55.6423 136.8C56.0317 136.411 60.2549 137.917 61.2741 138.594C61.5649 138.789 62.149 138.885 61.9063 139.469C60.9832 141.7 59.8174 143.836 58.4594 145.873C62.2957 148.688 67.49 152.277 68.3169 153.49C68.9491 154.413 67.5886 158.1 67.1031 157.468C65.4998 155.38 60.8391 150.771 57.3442 147.521L57.3417 147.526ZM77.5396 173.195C78.316 173.728 79.4338 174.941 79.4338 175.717C79.4338 175.96 79.239 176.106 78.8521 176.106C78.3185 176.106 76.2777 176.058 73.7539 176.058H59.9161L59.7694 177.368C59.3319 177.853 58.1661 177.949 57.5364 177.805C57.3417 176.496 57.1975 173.923 57.0028 170.865L56.664 164.8C56.6159 164.218 55.0607 163.538 54.1402 163.197C54.0921 162.907 54.5296 161.984 54.9165 161.984C55.8395 161.984 58.0725 162.131 59.5772 162.517H72.444C73.9967 162.517 74.8237 162.421 75.4053 161.886C76.0375 161.643 78.9002 162.176 78.8041 162.856L77.5422 173.193L77.5396 173.195ZM60.0602 173.824H74.8211L75.3547 164.752H60.0602V173.824ZM72.3934 132.969C73.8981 132.969 79.0949 134.086 78.9963 134.763C78.9002 135.491 78.8015 136.413 78.8015 137.384V151.989C78.8015 155.58 78.316 157.812 77.9266 159.363C77.4891 159.849 76.518 160.139 75.9363 159.995C75.7416 158.636 75.5975 155.386 75.5975 151.989V136.851C75.5975 136.317 72.5376 134.619 71.3743 134.035C71.0835 133.889 71.9559 132.969 72.3934 132.969Z" fill="white"/>
<path d="M116.188 157.327C111.285 158.54 99.4368 160.481 94.9709 161.014C93.2715 161.209 92.2043 161.452 91.1827 162.081C89.2405 161.838 86.8608 160.14 86.3273 159.46C86.1806 159.265 86.4739 158.586 86.6661 158.586C88.4616 158.586 90.8413 158.682 93.9973 158.49C95.1631 158.442 96.6197 158.295 98.2205 158.1V151.211C98.2205 150.63 96.6677 149.851 95.5019 149.27C95.2111 149.124 96.0836 148.204 96.5211 148.204C98.0257 148.204 101.571 148.979 101.523 149.659L101.232 157.762C107.155 157.034 114.051 155.967 116.527 155.24C117.012 155.093 116.77 157.18 116.188 157.327ZM89.9208 140.296C89.678 140.053 90.0674 139.421 90.2596 139.472C92.0071 139.909 94.192 139.811 97.348 139.811H105.749C107.302 139.811 108.129 139.715 108.71 139.179C109.342 138.936 112.498 139.469 112.4 140.149C111.671 145.292 110.796 150.097 109.729 153.251C109.535 153.832 107.254 154.074 107.35 153.589C108.174 149.417 108.563 145.825 108.66 142.04H98.1724C96.473 142.04 95.4058 142.477 94.3361 143.01C92.394 142.719 90.2091 140.584 89.9182 140.293L89.9208 140.296ZM125.899 176.35C125.899 176.592 125.704 176.739 125.317 176.739H105.071C100.458 176.739 99.5355 175.187 99.5355 171.839V167.666C99.5355 167.133 97.2544 166.114 96.3314 165.821C96.0406 165.725 96.8169 164.413 97.1558 164.413C98.0788 164.413 100.893 164.752 102.35 165.237C102.641 165.333 103.078 165.48 102.982 166.112C102.886 166.792 102.74 167.81 102.74 168.685V172.614C102.74 174.313 103.321 174.507 104.778 174.507L118.616 174.459C119.587 174.459 122.5 172.761 122.839 172.761C123.42 172.761 125.899 175.283 125.899 176.352V176.35ZM129.591 151.214C130.223 151.067 131.923 154.562 130.951 154.562C130.175 154.562 128.038 154.416 122.017 154.416V160.529C122.017 164.12 121.531 166.352 121.142 167.904C120.705 168.389 119.733 168.679 119.152 168.535C118.957 167.176 118.813 163.926 118.813 160.529V136.849C118.813 136.315 115.753 134.617 114.59 134.033C114.299 133.887 115.171 132.967 115.609 132.967C117.114 132.967 122.31 134.084 122.212 134.761C122.116 135.489 122.017 136.411 122.017 137.382V153.005L129.591 151.211V151.214Z" fill="white"/>
<path d="M174.309 170.333C174.309 170.575 174.114 170.722 173.727 170.722H139.449C138.235 170.722 137.117 171.303 136.098 171.74C134.156 171.402 131.728 169.461 131.534 168.925C131.485 168.778 131.728 168.149 131.923 168.197C132.846 168.44 136.146 168.488 139.302 168.488H151.537V160.82C151.537 160.239 149.984 159.46 148.818 158.879C148.527 158.732 149.4 157.813 149.837 157.813C151.342 157.813 154.839 158.588 154.839 159.268L154.549 168.488H166.687C167.658 168.488 170.571 166.789 170.91 166.789C171.492 166.789 174.309 169.264 174.309 170.333ZM139.641 141.8C139.641 141.267 138.038 140.491 137.067 140.15C137.019 139.859 137.456 138.936 137.891 138.936C138.91 138.936 141.436 139.131 142.941 139.616H159.159C160.13 139.616 163.043 137.918 163.382 137.918C163.964 137.918 166.781 140.392 166.781 141.461C166.781 141.704 166.586 141.85 166.199 141.85H142.941V151.408C142.941 153.301 143.718 153.397 145.222 153.397H160.178C161.149 153.397 163.625 151.99 163.966 151.99C164.598 151.99 167.17 154.173 167.17 155.24C167.17 155.482 166.975 155.629 166.538 155.629H144.35C140.66 155.629 139.785 154.32 139.737 151.456L139.641 141.8Z" fill="white"/>
<path d="M177.999 162.131C177.417 161.792 176.785 161.208 176.737 160.579C183.63 156.212 190.817 149.661 195.577 142.044H187.371C186.157 142.044 185.039 142.625 184.02 143.063C182.078 142.724 179.65 140.783 179.455 140.247C179.407 140.101 179.65 139.471 179.845 139.519C180.768 139.762 184.068 139.81 187.224 139.81H194.07C195.817 139.81 196.644 139.373 197.226 138.84C198.343 138.888 200.963 139.663 200.576 140.343C198.73 143.545 196.596 146.457 194.312 149.029C197.759 151.261 201.305 153.591 202.42 154.706C203.295 155.58 201.886 159.121 201.353 158.54C199.507 156.503 196.449 153.397 193.05 150.387C187.613 156.209 181.688 160.187 177.999 162.128V162.131ZM210.674 170.089C210.674 174.699 206.694 177.805 200.72 177.805C194.747 177.805 190.671 174.699 190.671 170.089C190.671 165.722 194.216 162.715 199.653 162.373C199.701 162.179 199.749 162.035 199.749 161.888C199.749 161.403 199.603 160.87 198.925 160.384C198.925 159.267 202.567 160.384 202.567 160.966C202.567 161.208 202.276 161.84 202.081 162.373C207.275 162.811 210.674 165.818 210.674 170.089ZM207.275 169.942C207.275 166.692 204.605 164.509 200.624 164.509C196.644 164.509 194.07 166.692 194.07 169.942C194.07 173.193 196.644 175.427 200.528 175.427C204.413 175.427 207.278 173.243 207.278 169.942H207.275ZM218.347 146.992C218.979 146.846 220.678 150.826 219.707 150.826L210.434 150.68V153.445C210.434 157.036 209.948 159.267 209.559 160.819C209.121 161.304 208.15 161.595 207.569 161.451C207.374 160.091 207.23 156.841 207.23 153.445V136.851C207.23 136.317 204.17 134.619 203.007 134.035C202.716 133.889 203.588 132.969 204.026 132.969C205.53 132.969 210.727 134.086 210.629 134.763C210.532 135.491 210.434 136.413 210.434 137.384V148.835L218.349 146.99L218.347 146.992Z" fill="white"/>
<path d="M88.52 48.6016H84.9619V56.6054H88.52V48.6016Z" fill="white"/>
<path d="M127.824 6.84128C127.315 6.80843 126.83 6.57339 126.544 6.15134C125.08 4.00823 118.204 0 108.324 0C98.4434 0 91.5675 4.00823 90.1033 6.15134C89.815 6.57087 89.332 6.80843 88.8237 6.84128C68.7066 8.14029 52.79 24.8556 52.79 45.2884V76.0552C52.79 96.5715 68.8356 113.34 89.069 114.518C89.4635 114.54 89.8276 114.748 90.035 115.081C91.3348 117.194 98.274 121.341 108.326 121.341C118.378 121.341 125.318 117.194 126.617 115.081C126.825 114.745 127.189 114.54 127.583 114.518C147.817 113.34 163.862 96.5715 163.862 76.0552V45.2884C163.862 24.8556 147.946 8.14029 127.829 6.84128H127.824ZM63.7122 62.724C65.2623 60.6491 66.5015 58.3973 67.4245 55.9686C68.3475 53.5399 68.9469 51.0834 69.22 48.5991H65.4722C65.1233 48.5991 64.7819 48.4804 64.5239 48.2453C64.2103 47.9597 64.0536 47.6211 64.0536 47.2294C64.0536 46.8376 64.1901 46.5167 64.4632 46.2538C64.7363 45.991 65.0676 45.8596 65.4545 45.8596H76.8496C77.2365 45.8596 77.5627 45.991 77.8257 46.2538C78.0887 46.5167 78.2202 46.8402 78.2202 47.2294C78.2202 47.5933 78.0887 47.9142 77.8257 48.1872C77.5627 48.4601 77.239 48.5966 76.8496 48.5966H72.0928C71.9562 49.8956 71.7438 51.1668 71.4606 52.4102C71.1748 53.6536 70.8284 54.8794 70.4162 56.0874C70.9649 55.9509 71.6148 55.8827 72.3659 55.8827C74.0097 55.8827 75.183 56.2011 75.8911 56.8405C76.5992 57.4799 76.9507 58.6424 76.9507 60.3281V66.621C76.9507 68.2865 76.5967 69.4364 75.8911 70.0758C75.183 70.7151 74.0097 71.0336 72.3659 71.0336C70.7221 71.0336 69.5488 70.7151 68.8407 70.0758C68.1326 69.4389 67.7811 68.2865 67.7811 66.621V61.8672C67.5535 62.2766 67.3082 62.6886 67.0452 63.098C66.7822 63.5074 66.504 63.9194 66.2056 64.3288C65.978 64.67 65.6467 64.8772 65.2143 64.9454C64.7793 65.0137 64.3924 64.9353 64.051 64.7053C63.7324 64.5006 63.5377 64.1923 63.4694 63.7829C63.4011 63.3735 63.4795 63.0197 63.7096 62.7214L63.7122 62.724ZM79.9651 48.6017C79.6212 48.6017 79.2823 48.4778 79.0294 48.2453C78.6931 47.937 78.5388 47.568 78.5666 47.1384C78.5869 46.7972 78.7336 46.4838 78.9738 46.2412C79.2469 45.9683 79.5782 45.8318 79.9651 45.8318H93.7575C94.1444 45.8318 94.4706 45.9683 94.7336 46.2412C94.9966 46.5141 95.1281 46.8452 95.1281 47.2319C95.1281 47.5958 94.9966 47.9168 94.7336 48.1897C94.4706 48.4627 94.1469 48.5991 93.7575 48.5991H91.5321V56.603H94.5085C94.8955 56.603 95.2267 56.7394 95.5024 57.0124C95.7755 57.2853 95.9121 57.6164 95.9121 58.0056C95.9121 58.3948 95.7755 58.7233 95.5024 58.9963C95.2293 59.2692 94.898 59.4057 94.5085 59.4057H91.5321V74.0435C91.5321 74.4757 91.3829 74.8295 91.087 75.105C90.7911 75.3779 90.4371 75.5144 90.0249 75.5144C89.6127 75.5144 89.2612 75.3779 88.9653 75.105C88.6669 74.8321 88.5202 74.4782 88.5202 74.0435V59.4057H84.9621C84.9394 61.799 84.6991 63.9269 84.2439 65.7845C83.7862 67.642 83.0857 69.3024 82.1399 70.7606C81.1916 72.2189 79.9449 73.5533 78.3922 74.7613C78.028 75.0342 77.6158 75.1833 77.1606 75.2061C76.7054 75.2288 76.316 75.057 75.9973 74.6931C75.7242 74.3746 75.6028 74.0132 75.6382 73.6164C75.6711 73.2171 75.8608 72.8911 76.2022 72.6409C77.5475 71.6603 78.6425 70.561 79.4872 69.3403C80.3318 68.1197 80.9589 66.7019 81.3686 65.0819C81.7783 63.4645 81.9958 61.5715 82.0185 59.4057H79.1078C78.7184 59.4057 78.339 59.2591 78.0685 58.9811C77.8004 58.7082 77.6689 58.3771 77.6714 57.9904C77.674 57.6214 77.8206 57.2727 78.0836 57.0124C78.3568 56.7394 78.688 56.603 79.0749 56.603H82.0185V48.5991H79.9651V48.6017ZM100.418 106.675C100.418 107.454 99.7256 108.058 98.9568 107.934C97.2422 107.659 94.1823 106.706 90.6192 103.499C90.3385 103.246 89.9617 103.132 89.5874 103.185C87.6731 103.461 81.2523 103.847 74.2448 98.2547C68.9342 94.0164 65.3256 86.7885 63.8588 83.455C63.4896 82.616 64.1092 81.6733 65.0272 81.6733H89.461C89.9743 81.6733 90.4396 81.9791 90.6369 82.4543C91.0491 83.455 92.0227 85.2595 94.1216 86.9022C96.261 88.5753 98.4359 89.5053 99.5865 89.9223C100.09 90.1043 100.424 90.5819 100.424 91.1177V106.675H100.418ZM100.418 29.7534C100.418 30.2892 100.085 30.7668 99.5814 30.9488C98.4308 31.3658 96.256 32.2958 94.1166 33.9688C92.0303 35.6015 91.0567 37.3958 90.6394 38.3991C90.4396 38.8793 89.9768 39.1977 89.4584 39.1977H65.0221C64.1041 39.1977 63.4871 38.2551 63.8563 37.416C65.323 34.0826 68.9317 26.8546 74.2423 22.6164C81.2523 17.0211 87.6705 17.4077 89.5849 17.6857C89.9591 17.7388 90.3359 17.6251 90.6166 17.3724C94.1798 14.1678 97.2422 13.2125 98.9543 12.937C99.723 12.8132 100.416 13.4172 100.416 14.1956V29.7534H100.418ZM113.232 80.5184H103.415C103.279 80.5184 103.167 80.4072 103.167 80.2707V64.5107C103.167 64.0381 103.205 63.5681 103.279 63.1031L107.947 41.0275C107.995 40.7596 108.382 40.7571 108.432 41.0275L113.29 63.0778C113.374 63.5605 113.417 64.0508 113.419 64.5436L113.477 80.2707C113.477 80.4072 113.366 80.5184 113.23 80.5184H113.232ZM152.748 83.4576C151.281 86.7936 147.673 94.019 142.362 98.2572C135.352 103.853 128.934 103.466 127.019 103.188C126.645 103.135 126.268 103.249 125.99 103.501C122.427 106.706 119.365 107.661 117.65 107.937C116.881 108.06 116.188 107.454 116.188 106.675V91.1177C116.188 90.5819 116.522 90.1043 117.025 89.9223C118.176 89.5053 120.351 88.5753 122.49 86.9022C124.587 85.262 125.56 83.4576 125.973 82.4543C126.167 81.9791 126.635 81.6708 127.151 81.6708H151.582C152.5 81.6708 153.12 82.6135 152.751 83.455L152.748 83.4576ZM120.45 67.1745C121.026 66.343 121.585 65.4205 122.129 64.4071C122.67 63.3912 123.168 62.36 123.618 61.3112C124.068 60.2624 124.443 59.2869 124.744 58.3872C124.905 57.9247 125.199 57.6265 125.626 57.4875C126.053 57.3485 126.476 57.3611 126.891 57.5229C127.305 57.6846 127.594 57.9626 127.755 58.3543C127.917 58.7461 127.917 59.1631 127.755 59.6003C127.432 60.5227 127.04 61.526 126.577 62.6102C126.114 63.6944 125.606 64.7685 125.052 65.8274C124.498 66.8889 123.922 67.8568 123.32 68.7338C123.064 69.1028 122.713 69.3504 122.263 69.4768C121.813 69.6032 121.38 69.5526 120.965 69.3201C120.573 69.1129 120.331 68.797 120.24 68.3673C120.146 67.9402 120.217 67.5434 120.447 67.1745H120.45ZM132.881 54.3714C133.342 54.3714 133.723 54.5154 134.024 54.8035C134.325 55.0917 134.475 55.4783 134.475 55.9636V69.0446C134.475 69.9443 134.601 70.6368 134.856 71.122C135.109 71.6073 135.567 71.9409 136.225 72.1254C136.882 72.3099 137.823 72.4034 139.047 72.4034C140.2 72.4034 141.09 72.3275 141.712 72.1784C142.334 72.0293 142.815 71.7109 143.149 71.2257C143.482 70.7404 143.766 70.0025 143.996 69.0118C144.135 68.5266 144.428 68.1929 144.878 68.0085C145.328 67.824 145.773 67.8139 146.211 67.9731C146.671 68.1348 146.985 68.3951 147.147 68.7515C147.308 69.1103 147.331 69.5198 147.215 69.9797C146.891 71.4329 146.431 72.5575 145.829 73.3536C145.23 74.1497 144.375 74.7082 143.267 75.0317C142.16 75.3552 140.693 75.5169 138.87 75.5169C136.93 75.5169 135.408 75.3375 134.298 74.9812C133.19 74.6223 132.403 73.9955 131.943 73.0958C131.48 72.1961 131.25 70.9502 131.25 69.358V55.9661C131.25 55.4809 131.407 55.0967 131.718 54.8061C132.029 54.518 132.416 54.3739 132.879 54.3739L132.881 54.3714ZM132.12 46.6531C132.35 46.2614 132.669 46.0062 133.074 45.8924C133.478 45.7762 133.888 45.8242 134.303 46.0314C134.973 46.3549 135.729 46.7745 136.571 47.2951C137.413 47.8157 138.263 48.3515 139.115 48.9049C139.97 49.4584 140.731 49.9891 141.401 50.4971C141.793 50.7751 142.031 51.1264 142.112 51.5535C142.193 51.9806 142.094 52.39 141.818 52.7817C141.588 53.1507 141.229 53.3933 140.746 53.5071C140.261 53.6233 139.833 53.5298 139.464 53.2316C138.865 52.7464 138.154 52.2232 137.335 51.6571C136.515 51.091 135.691 50.5451 134.859 50.0119C134.027 49.4811 133.289 49.054 132.644 48.7305C132.252 48.5233 132.014 48.2074 131.933 47.7778C131.852 47.3507 131.915 46.9766 132.123 46.6531H132.12ZM143.098 57.9525C143.121 57.5254 143.283 57.164 143.583 56.8633C143.907 56.5625 144.294 56.4084 144.744 56.3957C145.194 56.3856 145.581 56.5398 145.905 56.8633C146.689 57.6012 147.485 58.415 148.295 59.3021C149.101 60.1917 149.865 61.0787 150.581 61.9658C151.296 62.8554 151.908 63.6793 152.417 64.44C152.715 64.8544 152.837 65.2942 152.781 65.7542C152.723 66.2166 152.498 66.5957 152.106 66.8965C151.714 67.1972 151.269 67.3059 150.773 67.225C150.277 67.1441 149.901 66.9066 149.648 66.5149C149.162 65.7314 148.568 64.8822 147.865 63.9724C147.159 63.0601 146.428 62.168 145.667 61.291C144.906 60.4141 144.19 59.6635 143.52 59.0418C143.219 58.741 143.083 58.3796 143.106 57.95L143.098 57.9525ZM151.62 39.453H127.186C126.665 39.453 126.203 39.1346 126.005 38.6544C125.591 37.6485 124.615 35.8567 122.528 34.2241C120.389 32.5511 118.214 31.621 117.063 31.204C116.56 31.0221 116.226 30.5444 116.226 30.0086V14.4508C116.226 13.6649 116.932 13.0684 117.708 13.1948C119.425 13.4728 122.475 14.4332 126.023 17.6226C126.304 17.8753 126.681 17.9941 127.055 17.9385C128.969 17.663 135.39 17.2738 142.4 22.8691C147.711 27.1073 151.317 34.3328 152.786 37.6687C153.155 38.5103 152.538 39.453 151.618 39.453H151.62Z" fill="white"/>
<path d="M72.3355 68.2977C72.9981 68.2977 73.4583 68.179 73.7213 67.9389C73.9843 67.6988 74.1158 67.2489 74.1158 66.5893V60.3647C74.1158 59.6798 73.9843 59.2249 73.7213 58.9974C73.4583 58.77 72.9981 58.6562 72.3355 58.6562C71.6729 58.6562 71.2101 58.77 70.9497 58.9974C70.6867 59.2249 70.5552 59.6823 70.5552 60.3647V66.5893C70.5552 67.2515 70.6867 67.7013 70.9497 67.9389C71.2101 68.179 71.6729 68.2977 72.3355 68.2977Z" fill="white"/>
</svg>
