<svg width="204" height="56" viewBox="0 0 204 56" fill="none" xmlns="http://www.w3.org/2000/svg">
<path d="M68.6108 30.091C64.8269 30.091 62.2939 27.935 62.2939 24.6237C62.2939 21.3124 64.4832 19.3126 67.8289 19.0311C67.8908 18.8749 67.9544 18.7187 67.9544 18.5934C67.9544 18.281 67.8599 17.9377 67.4233 17.6253C67.4233 16.9061 69.769 17.6253 69.769 17.9995C69.769 18.1866 69.5507 18.6862 69.4253 19.0311C72.7401 19.3126 74.9293 21.4361 74.9293 24.6237C74.9293 27.8114 72.3964 30.091 68.6108 30.091ZM68.6108 28.6542C71.02 28.6542 72.6456 27.0612 72.6456 24.5928C72.6456 22.1244 71.02 20.437 68.6108 20.437C66.2017 20.437 64.576 22.03 64.576 24.5928C64.576 27.1556 66.2017 28.6542 68.6108 28.6542ZM86.501 41.6505C86.501 41.8067 86.3756 41.9011 86.1264 41.9011H73.4291C70.458 41.9011 69.8634 40.902 69.8634 38.746V35.3712C69.8634 35.0279 68.3942 34.3721 67.7996 34.1834C67.6123 34.1216 68.1124 33.2771 68.3306 33.2771C68.9252 33.2771 70.7382 33.4951 71.6764 33.8075C71.8637 33.8693 72.1455 33.9637 72.0836 34.3705C72.0217 34.8082 71.9273 35.464 71.9273 36.027V39.2455C71.9273 40.339 72.3019 40.4643 73.2401 40.4643L81.8098 40.4334C82.4353 40.4334 84.3118 39.3399 84.53 39.3399C84.9047 39.3399 86.501 40.9638 86.501 41.6521V41.6505ZM82.6226 26.5926V22.0316H80.1825C79.0879 22.0316 78.4005 22.3132 77.7115 22.6565C76.9296 22.4694 75.835 21.2815 75.6477 21.0944C75.5222 20.9691 75.7096 20.5639 75.804 20.5639C76.9296 20.5639 77.7424 20.6583 79.7753 20.6583H82.621V16.5025C82.621 16.1592 80.65 15.0657 79.8991 14.6898C79.7118 14.5955 80.2737 14.0032 80.5555 14.0032C81.5247 14.0032 84.8721 14.7224 84.8086 15.1585C84.7467 15.6271 84.6832 16.221 84.6832 16.8458V30.9355C84.6832 33.2478 84.3704 34.6846 84.1196 35.6836C83.8378 35.9961 83.2123 36.1832 82.8376 36.0904C82.7122 35.215 82.6194 33.1225 82.6194 30.9355V27.9676H80.1793C79.0846 27.9676 78.3972 28.2491 77.7082 28.5924C76.9263 28.4053 75.8317 27.2175 75.6444 27.0303C75.519 26.905 75.7063 26.4999 75.8008 26.4999C76.9263 26.4999 77.7392 26.5942 79.772 26.5942H82.6177L82.6226 26.5926Z" fill="#B28A36"/>
<path d="M99.2293 23.3742C96.32 27.4975 92.6306 30.6542 90.5032 31.6533C90.1596 31.6224 89.7214 31.1847 89.6904 30.8722C93.6617 28.0605 97.5401 22.9056 99.4166 18.7498C99.573 18.4065 98.1965 17.4058 97.6329 17.0933C97.6329 16.9062 97.9766 16.6247 98.133 16.4685C98.3839 16.2179 101.104 17.1877 101.761 17.6238C101.948 17.7491 102.324 17.8109 102.168 18.1868C101.573 19.6236 100.822 20.9986 99.9476 22.3101C102.419 24.1227 105.764 26.4333 106.297 27.2144C106.704 27.8083 105.828 30.1823 105.515 29.7755C104.482 28.4315 101.48 25.4635 99.2293 23.371V23.3742ZM112.239 39.9014C112.739 40.2448 113.459 41.0258 113.459 41.5254C113.459 41.6816 113.334 41.7759 113.085 41.7759C112.741 41.7759 111.426 41.745 109.801 41.745H100.887L100.793 42.5879C100.511 42.9003 99.7603 42.9622 99.3547 42.8694C99.2293 42.0265 99.1364 40.3701 99.011 38.4012L98.7927 34.496C98.7618 34.1217 97.76 33.684 97.1671 33.4643C97.1361 33.2772 97.4179 32.6833 97.6671 32.6833C98.2617 32.6833 99.7 32.7777 100.669 33.0266H108.957C109.957 33.0266 110.49 32.9648 110.864 32.6198C111.272 32.4636 113.116 32.807 113.054 33.2447L112.241 39.8998L112.239 39.9014ZM100.98 40.3066H110.488L110.832 34.465H100.98V40.3066ZM108.924 14.0017C109.894 14.0017 113.241 14.7209 113.178 15.157C113.116 15.6256 113.052 16.2195 113.052 16.8444V26.2478C113.052 28.56 112.739 29.9968 112.489 30.9959C112.207 31.3083 111.581 31.4955 111.207 31.4027C111.081 30.5273 110.988 28.4347 110.988 26.2478V16.501C110.988 16.1577 109.017 15.0643 108.268 14.6884C108.081 14.594 108.643 14.0017 108.924 14.0017Z" fill="#B28A36"/>
<path d="M137.134 29.6843C133.975 30.4654 126.344 31.715 123.467 32.0584C122.373 32.1837 121.684 32.3399 121.027 32.745C119.776 32.5888 118.243 31.4954 117.9 31.0577C117.805 30.9324 117.994 30.4947 118.118 30.4947C119.274 30.4947 120.807 30.5565 122.84 30.4328C123.591 30.4019 124.529 30.3075 125.56 30.1822V25.7466C125.56 25.3723 124.56 24.8711 123.809 24.4969C123.622 24.4025 124.184 23.8102 124.466 23.8102C125.435 23.8102 127.719 24.3098 127.688 24.7475L127.5 29.9642C131.315 29.4956 135.757 28.8089 137.352 28.3403C137.665 28.2459 137.508 29.59 137.134 29.6843ZM120.214 18.7188C120.058 18.5626 120.309 18.1558 120.433 18.1883C121.558 18.4698 122.965 18.4064 124.998 18.4064H130.408C131.408 18.4064 131.941 18.3446 132.315 17.9996C132.723 17.8434 134.755 18.1867 134.692 18.6244C134.223 21.9357 133.659 25.029 132.972 27.0597C132.846 27.4339 131.377 27.5902 131.439 27.2777C131.97 24.5913 132.221 22.2791 132.283 19.8416H125.528C124.433 19.8416 123.746 20.1231 123.057 20.4664C121.806 20.2793 120.398 18.9043 120.211 18.7172L120.214 18.7188ZM143.389 41.9321C143.389 42.0883 143.263 42.1827 143.014 42.1827H129.973C127.002 42.1827 126.407 41.1836 126.407 39.0276V36.3411C126.407 35.9978 124.938 35.342 124.343 35.1533C124.156 35.0914 124.656 34.2469 124.875 34.2469C125.469 34.2469 127.282 34.465 128.22 34.7774C128.408 34.8392 128.689 34.9336 128.628 35.3404C128.566 35.7781 128.471 36.4338 128.471 36.9968V39.5271C128.471 40.6206 128.846 40.7459 129.784 40.7459L138.697 40.7149C139.323 40.7149 141.199 39.6215 141.418 39.6215C141.792 39.6215 143.389 41.2454 143.389 41.9337V41.9321ZM145.767 25.7482C146.174 25.6538 147.269 27.9042 146.643 27.9042C146.143 27.9042 144.767 27.8098 140.888 27.8098V31.746C140.888 34.0582 140.575 35.495 140.325 36.494C140.043 36.8065 139.417 36.9936 139.043 36.9008C138.917 36.0254 138.824 33.9329 138.824 31.746V16.4993C138.824 16.156 136.853 15.0625 136.104 14.6867C135.917 14.5923 136.479 14 136.761 14C137.73 14 141.077 14.7192 141.014 15.1553C140.952 15.6239 140.888 16.2178 140.888 16.8427V26.9019L145.767 25.7466V25.7482Z" fill="#B28A36"/>
<path d="M174.571 38.0579C174.571 38.2141 174.446 38.3085 174.196 38.3085H152.117C151.335 38.3085 150.615 38.6827 149.958 38.9642C148.707 38.7462 147.144 37.4965 147.018 37.1515C146.987 37.0572 147.144 36.652 147.269 36.6829C147.864 36.8391 149.989 36.87 152.022 36.87H159.903V31.9332C159.903 31.5589 158.903 31.0578 158.152 30.6835C157.964 30.5891 158.526 29.9969 158.808 29.9969C159.777 29.9969 162.03 30.4964 162.03 30.9341L161.843 36.87H169.661C170.287 36.87 172.163 35.7766 172.383 35.7766C172.758 35.7766 174.573 37.3696 174.573 38.0579H174.571ZM152.24 19.6871C152.24 19.3437 151.208 18.8442 150.582 18.6245C150.551 18.4374 150.833 17.8435 151.113 17.8435C151.77 17.8435 153.397 17.9688 154.366 18.2812H164.812C165.438 18.2812 167.314 17.1877 167.532 17.1877C167.907 17.1877 169.722 18.7807 169.722 19.469C169.722 19.6253 169.596 19.7196 169.347 19.7196H154.366V25.8736C154.366 27.0924 154.866 27.1542 155.835 27.1542H165.469C166.094 27.1542 167.689 26.2478 167.909 26.2478C168.316 26.2478 169.973 27.6537 169.973 28.3404C169.973 28.4966 169.847 28.591 169.565 28.591H155.273C152.897 28.591 152.333 27.7481 152.302 25.9045L152.24 19.6871Z" fill="#B28A36"/>
<path d="M176.946 32.7777C176.571 32.5596 176.164 32.1838 176.133 31.7786C180.573 28.9668 185.203 24.7492 188.268 19.8449H182.982C182.2 19.8449 181.48 20.2191 180.824 20.5006C179.573 20.2826 178.009 19.0329 177.884 18.688C177.853 18.5936 178.009 18.1884 178.135 18.2193C178.729 18.3756 180.857 18.4065 182.888 18.4065H187.297C188.423 18.4065 188.956 18.125 189.33 17.7816C190.05 17.8126 191.739 18.3121 191.488 18.7498C190.301 20.8114 188.925 22.6859 187.454 24.3424C189.674 25.7792 191.958 27.2794 192.676 27.997C193.24 28.56 192.332 30.8397 191.989 30.4655C190.799 29.154 188.83 27.1542 186.641 25.2162C183.139 28.9652 179.322 31.5264 176.946 32.776V32.7777ZM197.994 37.9016C197.994 40.8696 195.43 42.8694 191.583 42.8694C187.735 42.8694 185.11 40.8696 185.11 37.9016C185.11 35.0899 187.393 33.1535 190.896 32.9339C190.926 32.8086 190.957 32.7158 190.957 32.6215C190.957 32.309 190.863 31.9657 190.426 31.6533C190.426 30.9341 192.772 31.6533 192.772 32.0275C192.772 32.1838 192.585 32.5905 192.459 32.9339C195.805 33.2154 197.994 35.1517 197.994 37.9016ZM195.805 37.8073C195.805 35.7147 194.085 34.3088 191.521 34.3088C188.957 34.3088 187.299 35.7147 187.299 37.8073C187.299 39.8998 188.957 41.3382 191.459 41.3382C193.961 41.3382 195.807 39.9324 195.807 37.8073H195.805ZM202.936 23.0309C203.344 22.9365 204.438 25.4993 203.813 25.4993L197.84 25.4049V27.1851C197.84 29.4973 197.527 30.9341 197.276 31.9332C196.994 32.2456 196.369 32.4327 195.994 32.34C195.869 31.4645 195.776 29.372 195.776 27.1851V16.501C195.776 16.1577 193.805 15.0643 193.055 14.6884C192.868 14.594 193.43 14.0017 193.712 14.0017C194.681 14.0017 198.028 14.7209 197.965 15.157C197.903 15.6256 197.84 16.2195 197.84 16.8444V24.2171L202.938 23.0293L202.936 23.0309Z" fill="#B28A36"/>
<path d="M16.3941 22.2849H14.7607V25.9557H16.3941V22.2849Z" fill="#B28A36"/>
<path d="M34.4239 3.13505C34.1917 3.11996 33.9689 3.01244 33.8367 2.82004C33.1644 1.83727 30.011 0 25.4771 0C20.9433 0 17.7898 1.83727 17.1176 2.82004C16.9854 3.01244 16.7626 3.11996 16.5303 3.13505C7.3021 3.73113 0 11.3952 0 20.7664V34.876C0 44.285 7.36064 51.9736 16.6436 52.5149C16.8249 52.5262 16.991 52.6206 17.0855 52.7733C17.6822 53.7429 20.8659 55.6443 25.4771 55.6443C30.0884 55.6443 33.2721 53.7429 33.8688 52.7733C33.9632 52.6187 34.1312 52.5244 34.3106 52.5149C43.5936 51.9736 50.9542 44.285 50.9542 34.876V20.7664C50.9542 11.3952 43.6521 3.73113 34.422 3.13505H34.4239ZM5.00969 28.7606C5.72159 27.8099 6.28997 26.7762 6.71295 25.6633C7.13593 24.5504 7.41163 23.4223 7.53626 22.283H5.816C5.6555 22.283 5.49877 22.2283 5.38169 22.1208C5.23818 21.9887 5.16642 21.8341 5.16642 21.6549C5.16642 21.4757 5.22874 21.3285 5.35525 21.2078C5.48177 21.0871 5.63284 21.0267 5.81034 21.0267H11.0391C11.2166 21.0267 11.3658 21.0871 11.4866 21.2078C11.6075 21.3285 11.6679 21.4775 11.6679 21.6549C11.6679 21.8227 11.6075 21.968 11.4866 22.0944C11.3658 22.2208 11.2166 22.283 11.0391 22.283H8.85619C8.79387 22.8791 8.69568 23.462 8.56539 24.0316C8.43509 24.6013 8.27459 25.1634 8.08575 25.718C8.3369 25.6557 8.63525 25.6237 8.98081 25.6237C9.73425 25.6237 10.2743 25.7708 10.5972 26.0632C10.922 26.3556 11.0844 26.8894 11.0844 27.6628V30.5488C11.0844 31.3128 10.922 31.8409 10.5972 32.1333C10.2724 32.4257 9.73425 32.5728 8.98081 32.5728C8.22738 32.5728 7.68732 32.4257 7.36442 32.1333C7.03963 31.8409 6.87723 31.3128 6.87723 30.5488V28.3682C6.77338 28.5569 6.66008 28.7455 6.53923 28.9323C6.41837 29.1209 6.28997 29.3095 6.15401 29.4963C6.05015 29.6528 5.8972 29.7471 5.69893 29.7792C5.50065 29.8113 5.32126 29.7736 5.16454 29.6698C5.01725 29.5755 4.9285 29.434 4.89828 29.2473C4.86618 29.0586 4.90395 28.8964 5.0078 28.7606H5.00969ZM12.4685 22.2849C12.3099 22.2849 12.1551 22.2283 12.0399 22.1208C11.885 21.9793 11.8152 21.8114 11.8265 21.6134C11.8359 21.4568 11.902 21.3134 12.0134 21.2021C12.14 21.0758 12.291 21.0135 12.4685 21.0135H18.7963C18.9738 21.0135 19.1229 21.0758 19.2438 21.2021C19.3646 21.3285 19.4251 21.4794 19.4251 21.6567C19.4251 21.8246 19.3646 21.9699 19.2438 22.0963C19.1229 22.2226 18.9738 22.2849 18.7963 22.2849H17.7766V25.9557H19.1418C19.3193 25.9557 19.4723 26.0179 19.5969 26.1443C19.7215 26.2707 19.7857 26.4216 19.7857 26.5989C19.7857 26.7762 19.7234 26.929 19.5969 27.0535C19.4704 27.178 19.3193 27.2421 19.1418 27.2421H17.7766V33.9555C17.7766 34.1536 17.7086 34.3158 17.5726 34.4422C17.4367 34.5667 17.2743 34.6308 17.0855 34.6308C16.8966 34.6308 16.7342 34.5686 16.5983 34.4422C16.4623 34.3158 16.3943 34.1536 16.3943 33.9555V27.2421H14.7609C14.7496 28.34 14.6401 29.3152 14.4305 30.1678C14.2209 31.0204 13.8999 31.7806 13.4656 32.4502C13.0312 33.1199 12.4572 33.731 11.7472 34.2856C11.5791 34.4101 11.3903 34.478 11.1826 34.4893C10.973 34.4988 10.7955 34.4214 10.6482 34.2535C10.5236 34.1064 10.4669 33.9423 10.4839 33.7593C10.499 33.5764 10.5859 33.4273 10.7426 33.3123C11.3601 32.8633 11.8624 32.3578 12.2495 31.7994C12.6366 31.2411 12.9236 30.5884 13.1124 29.8471C13.3013 29.1058 13.3995 28.2362 13.4108 27.244H12.0758C11.8983 27.244 11.7226 27.1761 11.598 27.0497C11.4753 26.9233 11.4148 26.7724 11.4167 26.5951C11.4167 26.4253 11.4866 26.265 11.6056 26.1462C11.7321 26.0217 11.8832 25.9575 12.0607 25.9575H13.4108V22.2868H12.4685V22.2849ZM21.8516 48.9158C21.8516 49.2724 21.5343 49.5496 21.1812 49.4931C20.3957 49.3667 18.9908 48.9291 17.3555 47.4596C17.2271 47.3445 17.0534 47.2917 16.8834 47.3163C16.0053 47.4426 13.0596 47.6199 9.84377 45.0546C7.40785 43.1117 5.7518 39.7974 5.07956 38.2676C4.90961 37.8828 5.19475 37.4508 5.61584 37.4508H16.8249C17.0609 37.4508 17.2743 37.5904 17.363 37.8092C17.5519 38.2695 17.9994 39.0957 18.9605 39.8483C19.9425 40.6161 20.9395 41.0424 21.4682 41.2329C21.6986 41.3159 21.8516 41.5347 21.8516 41.7818V48.9158ZM21.8516 13.6418C21.8516 13.887 21.6986 14.1058 21.4682 14.1907C20.9395 14.3831 19.9425 14.8094 18.9605 15.5753C18.0032 16.3241 17.5556 17.1466 17.3649 17.6068C17.2743 17.8275 17.0609 17.9728 16.823 17.9728H5.61206C5.19097 17.9728 4.90772 17.5408 5.07767 17.156C5.74991 15.6262 7.40596 12.312 9.84188 10.3691C13.0577 7.80367 16.0034 7.98099 16.8815 8.10737C17.0534 8.13189 17.2252 8.07907 17.3536 7.96401C18.9889 6.49457 20.3938 6.05695 21.1793 5.93057C21.5324 5.87398 21.8497 6.15126 21.8497 6.50778V13.6418H21.8516ZM27.7299 36.9208H23.2262C23.1639 36.9208 23.1129 36.8699 23.1129 36.8076V29.5811C23.1129 29.3642 23.1299 29.1492 23.1639 28.936L25.3053 18.8122C25.3279 18.6896 25.5054 18.6877 25.5281 18.8122L27.7563 28.9228C27.7941 29.1435 27.8148 29.3699 27.8148 29.5944L27.8413 36.8076C27.8413 36.8699 27.7903 36.9208 27.728 36.9208H27.7299ZM45.8596 38.2695C45.1854 39.7993 43.5313 43.1135 41.0953 45.0564C37.8796 47.6218 34.9338 47.4445 34.0557 47.3181C33.8839 47.2936 33.712 47.3464 33.5836 47.4615C31.9484 48.9309 30.5435 49.3686 29.7579 49.4949C29.4048 49.5515 29.0876 49.2742 29.0876 48.9177V41.7837C29.0876 41.5385 29.2405 41.3197 29.4709 41.2348C29.9996 41.0424 30.9967 40.6161 31.9786 39.8502C32.9397 39.0976 33.3873 38.2714 33.5761 37.8111C33.6667 37.5923 33.8801 37.4527 34.1161 37.4527H45.3252C45.7463 37.4527 46.0314 37.8847 45.8614 38.2714L45.8596 38.2695ZM31.0401 30.8016C31.3044 30.4206 31.5613 29.998 31.8105 29.5321C32.0598 29.0662 32.2864 28.5927 32.4941 28.1117C32.6999 27.6307 32.8717 27.1836 33.0096 26.7705C33.0832 26.5593 33.2192 26.4216 33.4156 26.3574C33.612 26.2933 33.8046 26.299 33.9953 26.3725C34.186 26.4461 34.3182 26.5744 34.3918 26.7536C34.4655 26.9328 34.4655 27.1233 34.3918 27.3251C34.2427 27.7477 34.0633 28.2079 33.8518 28.7059C33.6403 29.2039 33.4061 29.6962 33.1531 30.181C32.8982 30.6677 32.6338 31.1128 32.3581 31.5146C32.241 31.6844 32.0805 31.7976 31.8728 31.856C31.667 31.9145 31.4668 31.89 31.278 31.7844C31.0986 31.69 30.9872 31.5448 30.9438 31.3486C30.9003 31.1524 30.9324 30.9714 31.0382 30.8016H31.0401ZM36.7447 24.9295C36.9562 24.9295 37.1318 24.9955 37.2696 25.1276C37.4075 25.2596 37.4755 25.4369 37.4755 25.6595V31.658C37.4755 32.0711 37.534 32.388 37.6511 32.6106C37.7681 32.8331 37.9759 32.9859 38.278 33.0708C38.5801 33.1557 39.0107 33.1972 39.5734 33.1972C40.1021 33.1972 40.51 33.1633 40.797 33.0935C41.084 33.0237 41.3031 32.8784 41.456 32.6577C41.609 32.4351 41.7393 32.0975 41.845 31.6429C41.9092 31.4203 42.0433 31.2675 42.251 31.1826C42.4568 31.0977 42.6608 31.094 42.8628 31.1675C43.0743 31.2411 43.2178 31.3599 43.2915 31.524C43.3651 31.6882 43.3764 31.8768 43.3236 32.0881C43.1744 32.7539 42.9629 33.2708 42.6872 33.6348C42.4115 34.0008 42.0206 34.2554 41.5108 34.4044C41.0028 34.5516 40.3306 34.627 39.4922 34.627C38.6028 34.627 37.9041 34.544 37.3943 34.3818C36.8863 34.2177 36.5256 33.9291 36.3141 33.516C36.1026 33.1029 35.9969 32.5313 35.9969 31.8013V25.6595C35.9969 25.4369 36.0687 25.2596 36.2122 25.1276C36.3557 24.9955 36.5332 24.9295 36.7447 24.9295ZM36.3953 21.3908C36.5011 21.2116 36.6465 21.0946 36.8315 21.0418C37.0166 20.989 37.2054 21.0097 37.3961 21.1059C37.7039 21.255 38.0495 21.4474 38.4366 21.685C38.8237 21.9227 39.2127 22.1698 39.6036 22.4226C39.9945 22.6772 40.3438 22.9206 40.6516 23.1526C40.831 23.279 40.9405 23.4412 40.9764 23.6374C41.0141 23.8336 40.9688 24.0203 40.8404 24.2014C40.7347 24.3712 40.5704 24.4824 40.3476 24.5353C40.1248 24.5881 39.9284 24.5466 39.7603 24.4089C39.4846 24.1863 39.1598 23.9467 38.784 23.6864C38.4083 23.428 38.0287 23.1752 37.6473 22.9319C37.2658 22.6886 36.9278 22.4924 36.6295 22.3453C36.4501 22.2509 36.3406 22.1057 36.3047 21.9095C36.2669 21.7133 36.2971 21.5417 36.3916 21.3946L36.3953 21.3908ZM41.4315 26.5725C41.4409 26.3763 41.5164 26.2103 41.6543 26.0726C41.8016 25.9349 41.9791 25.8632 42.1868 25.8595C42.3926 25.8538 42.5701 25.9255 42.7193 26.0726C43.08 26.4121 43.4444 26.7837 43.8145 27.1912C44.1846 27.5986 44.534 28.0061 44.8625 28.4135C45.1911 28.821 45.4706 29.2001 45.7047 29.5491C45.8426 29.7396 45.8973 29.9414 45.8709 30.1527C45.8445 30.364 45.7406 30.5394 45.5612 30.6771C45.3818 30.8148 45.1779 30.8657 44.9494 30.828C44.7209 30.7903 44.5491 30.6828 44.4339 30.5017C44.2111 30.1414 43.9391 29.7528 43.6162 29.3359C43.2933 28.9172 42.9572 28.5078 42.6079 28.1061C42.2585 27.7043 41.93 27.361 41.6222 27.0742C41.4843 26.9365 41.4201 26.7705 41.4315 26.5744V26.5725ZM45.3422 18.0897H34.1331C33.8952 18.0897 33.6818 17.9445 33.5912 17.7238C33.4005 17.2635 32.9529 16.4411 31.9956 15.6922C31.0136 14.9245 30.0166 14.4982 29.4879 14.3077C29.2575 14.2247 29.1046 14.0059 29.1046 13.7588V6.62473C29.1046 6.26444 29.4275 5.99093 29.7844 6.0494C30.5718 6.17767 31.971 6.61718 33.5987 8.08096C33.7271 8.19603 33.9009 8.25073 34.0727 8.22621C34.9508 8.09982 37.8965 7.92251 41.1123 10.4879C43.5483 12.4308 45.2043 15.745 45.8766 17.2748C46.0465 17.6597 45.7633 18.0935 45.3403 18.0935L45.3422 18.0897Z" fill="#B28A36"/>
<path d="M8.96754 31.3185C9.27156 31.3185 9.48305 31.2638 9.6039 31.1544C9.72476 31.045 9.78518 30.8375 9.78518 30.5357V27.6817C9.78518 27.3685 9.72476 27.1592 9.6039 27.0535C9.48305 26.9498 9.27156 26.897 8.96754 26.897C8.66352 26.897 8.45203 26.9498 8.33118 27.0535C8.21033 27.1573 8.1499 27.3667 8.1499 27.6817V30.5357C8.1499 30.8394 8.21033 31.045 8.33118 31.1544C8.45203 31.2638 8.66352 31.3185 8.96754 31.3185Z" fill="#B28A36"/>
</svg>
