<svg width="24" height="24" viewBox="0 0 24 24" fill="none" xmlns="http://www.w3.org/2000/svg">
<g clip-path="url(#clip0_45_13851)">
<path fill-rule="evenodd" clip-rule="evenodd" d="M4.92188 0H19.0781C21.7852 0 24 2.21484 24 4.92188V19.0781C24 21.7852 21.7852 24 19.0781 24H4.92188C2.21484 24 0 21.7852 0 19.0781V4.92188C0 2.21484 2.21484 0 4.92188 0Z" fill="white"/>
<path d="M15.8137 11.4183C15.7453 11.3855 15.6754 11.3536 15.6047 11.3236C15.4819 9.05672 14.2434 7.75875 12.1636 7.74563C10.9636 7.73766 9.8892 8.22703 9.21982 9.24281L10.3636 10.0275C10.8394 9.30563 11.5861 9.15188 12.1359 9.15188H12.1547C12.8395 9.15609 13.3565 9.35531 13.6908 9.74344C13.934 10.0266 14.0972 10.417 14.1778 10.9102C13.5703 10.807 12.914 10.7752 12.2119 10.8155C10.2347 10.9294 8.96342 12.0825 9.04873 13.6847C9.09186 14.498 9.49686 15.1969 10.1887 15.6539C10.7737 16.0402 11.5275 16.2291 12.3103 16.1859C13.3448 16.1297 14.1558 15.735 14.722 15.0136C15.1519 14.4656 15.4237 13.7555 15.5437 12.8611C16.0364 13.1583 16.4015 13.5497 16.6036 14.0203C16.9462 14.82 16.9664 16.1344 15.8939 17.2059C14.9545 18.1448 13.8248 18.5508 12.1181 18.5634C10.2244 18.5494 8.79232 17.9419 7.86139 16.7583C6.98951 15.6502 6.53904 14.0494 6.52217 12.0005C6.53904 9.95156 6.98951 8.35078 7.86139 7.24266C8.79232 6.05906 10.2244 5.45156 12.1181 5.4375C14.025 5.45156 15.4819 6.06187 16.4489 7.25109C16.9228 7.83422 17.28 8.56781 17.5158 9.42281L18.8559 9.06516C18.5704 8.01281 18.1214 7.10578 17.5097 6.35344C16.2703 4.82859 14.4581 4.04766 12.1228 4.03125H12.1134C9.78279 4.04766 7.99029 4.83188 6.78654 6.36234C5.71498 7.72406 5.16232 9.61922 5.14404 11.9948V12.0061C5.16232 14.3817 5.71498 16.2769 6.78654 17.6386C7.99029 19.1691 9.78279 19.9538 12.1134 19.9697H12.1228C14.1947 19.9552 15.6553 19.4128 16.8586 18.2105C18.4326 16.6378 18.3853 14.6667 17.8664 13.4564C17.4942 12.5887 16.7845 11.8837 15.8137 11.4183ZM12.2362 14.782C11.37 14.8308 10.4695 14.4417 10.425 13.6088C10.3922 12.9909 10.8647 12.3014 12.2897 12.2194C12.4528 12.21 12.6131 12.2053 12.7701 12.2053C13.2876 12.2053 13.7719 12.2555 14.212 12.352C14.0479 14.4023 13.0851 14.7352 12.2362 14.782Z" fill="#B28A36"/>
</g>
<defs>
<clipPath id="clip0_45_13851">
<rect width="24" height="24" fill="white"/>
</clipPath>
</defs>
</svg>
