<svg width="24" height="24" viewBox="0 0 24 24" fill="none" xmlns="http://www.w3.org/2000/svg">
<g clip-path="url(#clip0_45_11707)">
<path fill-rule="evenodd" clip-rule="evenodd" d="M4.92188 0H19.0781C21.7852 0 24 2.21484 24 4.92188V19.0781C24 21.7852 21.7852 24 19.0781 24H4.92188C2.21484 24 0 21.7852 0 19.0781V4.92188C0 2.21484 2.21484 0 4.92188 0Z" fill="#B28A36"/>
<path d="M15.8137 11.4178C15.7453 11.385 15.6754 11.3531 15.6047 11.3231C15.4819 9.05623 14.2434 7.75826 12.1636 7.74514C10.9636 7.73717 9.8892 8.22654 9.21982 9.24232L10.3636 10.027C10.8394 9.30514 11.5861 9.15139 12.1359 9.15139H12.1547C12.8395 9.15561 13.3565 9.35482 13.6908 9.74295C13.934 10.0261 14.0972 10.4165 14.1778 10.9097C13.5703 10.8065 12.914 10.7747 12.2119 10.815C10.2347 10.9289 8.96342 12.082 9.04873 13.6842C9.09186 14.4975 9.49686 15.1964 10.1887 15.6534C10.7737 16.0397 11.5275 16.2286 12.3103 16.1854C13.3448 16.1292 14.1558 15.7345 14.722 15.0131C15.1519 14.4651 15.4237 13.755 15.5437 12.8606C16.0364 13.1578 16.4015 13.5492 16.6036 14.0198C16.9462 14.8195 16.9664 16.1339 15.8939 17.2054C14.9545 18.1444 13.8248 18.5503 12.1181 18.563C10.2244 18.5489 8.79232 17.9414 7.86139 16.7578C6.98951 15.6497 6.53904 14.0489 6.52217 12C6.53904 9.95107 6.98951 8.35029 7.86139 7.24217C8.79232 6.05857 10.2244 5.45107 12.1181 5.43701C14.025 5.45107 15.4819 6.06139 16.4489 7.25061C16.9228 7.83373 17.28 8.56732 17.5158 9.42232L18.8559 9.06467C18.5704 8.01232 18.1214 7.10529 17.5097 6.35295C16.2703 4.82811 14.4581 4.04717 12.1228 4.03076H12.1134C9.78279 4.04717 7.99029 4.83139 6.78654 6.36186C5.71498 7.72357 5.16232 9.61873 5.14404 11.9944V12.0056C5.16232 14.3812 5.71498 16.2764 6.78654 17.6381C7.99029 19.1686 9.78279 19.9533 12.1134 19.9692H12.1228C14.1947 19.9547 15.6553 19.4123 16.8586 18.21C18.4326 16.6373 18.3853 14.6662 17.8664 13.4559C17.4942 12.5883 16.7845 11.8833 15.8137 11.4178ZM12.2362 14.7815C11.37 14.8303 10.4695 14.4412 10.425 13.6083C10.3922 12.9904 10.8647 12.3009 12.2897 12.2189C12.4528 12.2095 12.6131 12.2048 12.7701 12.2048C13.2876 12.2048 13.7719 12.255 14.212 12.3515C14.0479 14.4019 13.0851 14.7347 12.2362 14.7815Z" fill="white"/>
</g>
<defs>
<clipPath id="clip0_45_11707">
<rect width="24" height="24" fill="white"/>
</clipPath>
</defs>
</svg>
