<svg width="24" height="17" viewBox="0 0 24 17" fill="none" xmlns="http://www.w3.org/2000/svg">
<g clip-path="url(#clip0_45_11713)">
<g clip-path="url(#clip1_45_11713)">
<path d="M23.4982 2.65475C23.2217 1.60925 22.4096 0.78763 21.3764 0.507761C19.5055 1.51992e-07 12 0 12 0C12 0 4.49458 1.51992e-07 2.62364 0.507761C1.59039 0.78763 0.778402 1.60925 0.501813 2.65475C1.50211e-07 4.54786 0 8.5 0 8.5C0 8.5 1.50211e-07 12.4522 0.501813 14.3453C0.778402 15.3908 1.59039 16.2124 2.62364 16.4922C4.49458 17 12 17 12 17C12 17 19.5055 17 21.3764 16.4922C22.4096 16.2124 23.2217 15.3908 23.4982 14.3453C24.0001 12.4522 24.0001 8.5 24.0001 8.5C24.0001 8.5 23.9981 4.54786 23.4982 2.65475Z" fill="#B28A36"/>
<path d="M9.59766 12.1425L15.8328 8.50022L9.59766 4.85791V12.1425Z" fill="white"/>
</g>
</g>
<defs>
<clipPath id="clip0_45_11713">
<rect width="24" height="17" fill="white"/>
</clipPath>
<clipPath id="clip1_45_11713">
<rect width="24" height="17" fill="white"/>
</clipPath>
</defs>
</svg>
